%TF.GenerationSoftware,KiCad,Pcbnew,5.1.10-88a1d61d58~90~ubuntu20.04.1*%
%TF.CreationDate,2022-01-13T19:57:23+00:00*%
%TF.ProjectId,RPi_shield,5250695f-7368-4696-956c-642e6b696361,rev?*%
%TF.SameCoordinates,Original*%
%TF.FileFunction,Copper,L2,Bot*%
%TF.FilePolarity,Positive*%
%FSLAX46Y46*%
G04 Gerber Fmt 4.6, Leading zero omitted, Abs format (unit mm)*
G04 Created by KiCad (PCBNEW 5.1.10-88a1d61d58~90~ubuntu20.04.1) date 2022-01-13 19:57:23*
%MOMM*%
%LPD*%
G01*
G04 APERTURE LIST*
%TA.AperFunction,ComponentPad*%
%ADD10O,2.800000X1.800000*%
%TD*%
%TA.AperFunction,ComponentPad*%
%ADD11R,1.640000X1.640000*%
%TD*%
%TA.AperFunction,ComponentPad*%
%ADD12C,1.640000*%
%TD*%
%TA.AperFunction,ComponentPad*%
%ADD13R,1.700000X1.700000*%
%TD*%
%TA.AperFunction,ComponentPad*%
%ADD14O,1.700000X1.700000*%
%TD*%
%TA.AperFunction,Conductor*%
%ADD15C,0.254000*%
%TD*%
%TA.AperFunction,Conductor*%
%ADD16C,0.100000*%
%TD*%
G04 APERTURE END LIST*
D10*
%TO.P,J1,R*%
%TO.N,jack3*%
X97822000Y-74904000D03*
%TO.P,J1,T*%
X97822000Y-80404000D03*
%TO.P,J1,S*%
%TO.N,GND*%
X99822000Y-82804000D03*
%TD*%
%TO.P,J2,S*%
%TO.N,GND*%
X77978000Y-82804000D03*
%TO.P,J2,T*%
%TO.N,jack2*%
X75978000Y-80404000D03*
%TO.P,J2,R*%
X75978000Y-74904000D03*
%TD*%
%TO.P,J3,R*%
%TO.N,jack1*%
X86900000Y-74904000D03*
%TO.P,J3,T*%
X86900000Y-80404000D03*
%TO.P,J3,S*%
%TO.N,GND*%
X88900000Y-82804000D03*
%TD*%
%TO.P,J4,S*%
%TO.N,GND*%
X67056000Y-82804000D03*
%TO.P,J4,T*%
%TO.N,jack4*%
X65056000Y-80404000D03*
%TO.P,J4,R*%
X65056000Y-74904000D03*
%TD*%
D11*
%TO.P,J5,1*%
%TO.N,Net-(J5-Pad1)*%
X108204000Y-37338000D03*
D12*
%TO.P,J5,2*%
%TO.N,+5V*%
X108204000Y-34798000D03*
%TO.P,J5,3*%
%TO.N,Net-(J5-Pad3)*%
X105664000Y-37338000D03*
%TO.P,J5,4*%
%TO.N,+5V*%
X105664000Y-34798000D03*
%TO.P,J5,5*%
%TO.N,Net-(J5-Pad5)*%
X103124000Y-37338000D03*
%TO.P,J5,6*%
%TO.N,GND*%
X103124000Y-34798000D03*
%TO.P,J5,7*%
%TO.N,Net-(J5-Pad7)*%
X100584000Y-37338000D03*
%TO.P,J5,8*%
%TO.N,Net-(J5-Pad8)*%
X100584000Y-34798000D03*
%TO.P,J5,9*%
%TO.N,GND*%
X98044000Y-37338000D03*
%TO.P,J5,10*%
%TO.N,Net-(J5-Pad10)*%
X98044000Y-34798000D03*
%TO.P,J5,11*%
%TO.N,Net-(J5-Pad11)*%
X95504000Y-37338000D03*
%TO.P,J5,12*%
%TO.N,Net-(J5-Pad12)*%
X95504000Y-34798000D03*
%TO.P,J5,13*%
%TO.N,Net-(J5-Pad13)*%
X92964000Y-37338000D03*
%TO.P,J5,14*%
%TO.N,GND*%
X92964000Y-34798000D03*
%TO.P,J5,15*%
%TO.N,Net-(J5-Pad15)*%
X90424000Y-37338000D03*
%TO.P,J5,16*%
%TO.N,Net-(J5-Pad16)*%
X90424000Y-34798000D03*
%TO.P,J5,17*%
%TO.N,Net-(J5-Pad17)*%
X87884000Y-37338000D03*
%TO.P,J5,18*%
%TO.N,Net-(J5-Pad18)*%
X87884000Y-34798000D03*
%TO.P,J5,19*%
%TO.N,Net-(J5-Pad19)*%
X85344000Y-37338000D03*
%TO.P,J5,20*%
%TO.N,GND*%
X85344000Y-34798000D03*
%TO.P,J5,21*%
%TO.N,jack3*%
X82804000Y-37338000D03*
%TO.P,J5,22*%
%TO.N,Net-(J5-Pad22)*%
X82804000Y-34798000D03*
%TO.P,J5,23*%
%TO.N,Net-(J5-Pad23)*%
X80264000Y-37338000D03*
%TO.P,J5,24*%
%TO.N,Net-(J5-Pad24)*%
X80264000Y-34798000D03*
%TO.P,J5,25*%
%TO.N,GND*%
X77724000Y-37338000D03*
%TO.P,J5,26*%
%TO.N,Net-(J5-Pad26)*%
X77724000Y-34798000D03*
%TO.P,J5,27*%
%TO.N,Net-(J5-Pad27)*%
X75184000Y-37338000D03*
%TO.P,J5,28*%
%TO.N,jack1*%
X75184000Y-34798000D03*
%TO.P,J5,29*%
%TO.N,jack2*%
X72644000Y-37338000D03*
%TO.P,J5,30*%
%TO.N,GND*%
X72644000Y-34798000D03*
%TO.P,J5,31*%
%TO.N,Net-(J5-Pad31)*%
X70104000Y-37338000D03*
%TO.P,J5,32*%
%TO.N,Net-(J5-Pad32)*%
X70104000Y-34798000D03*
%TO.P,J5,33*%
%TO.N,jack4*%
X67564000Y-37338000D03*
%TO.P,J5,34*%
%TO.N,GND*%
X67564000Y-34798000D03*
%TO.P,J5,35*%
%TO.N,Net-(J5-Pad35)*%
X65024000Y-37338000D03*
%TO.P,J5,36*%
%TO.N,Net-(J5-Pad36)*%
X65024000Y-34798000D03*
%TO.P,J5,37*%
%TO.N,Net-(J5-Pad37)*%
X62484000Y-37338000D03*
%TO.P,J5,38*%
%TO.N,Net-(J5-Pad38)*%
X62484000Y-34798000D03*
%TO.P,J5,39*%
%TO.N,GND*%
X59944000Y-37338000D03*
%TO.P,J5,40*%
%TO.N,Net-(J5-Pad40)*%
X59944000Y-34798000D03*
%TD*%
D13*
%TO.P,M1,1*%
%TO.N,+5V*%
X104648000Y-41656000D03*
D14*
%TO.P,M1,2*%
%TO.N,GND*%
X104648000Y-44196000D03*
%TD*%
D15*
%TO.N,GND*%
X110617000Y-87757000D02*
X57785000Y-87757000D01*
X57785000Y-83168740D01*
X65064964Y-83168740D01*
X65089245Y-83274087D01*
X65209138Y-83551204D01*
X65380790Y-83799606D01*
X65597604Y-84009748D01*
X65851249Y-84173554D01*
X66131977Y-84284729D01*
X66429000Y-84339000D01*
X66929000Y-84339000D01*
X66929000Y-82931000D01*
X67183000Y-82931000D01*
X67183000Y-84339000D01*
X67683000Y-84339000D01*
X67980023Y-84284729D01*
X68260751Y-84173554D01*
X68514396Y-84009748D01*
X68731210Y-83799606D01*
X68902862Y-83551204D01*
X69022755Y-83274087D01*
X69047036Y-83168740D01*
X75986964Y-83168740D01*
X76011245Y-83274087D01*
X76131138Y-83551204D01*
X76302790Y-83799606D01*
X76519604Y-84009748D01*
X76773249Y-84173554D01*
X77053977Y-84284729D01*
X77351000Y-84339000D01*
X77851000Y-84339000D01*
X77851000Y-82931000D01*
X78105000Y-82931000D01*
X78105000Y-84339000D01*
X78605000Y-84339000D01*
X78902023Y-84284729D01*
X79182751Y-84173554D01*
X79436396Y-84009748D01*
X79653210Y-83799606D01*
X79824862Y-83551204D01*
X79944755Y-83274087D01*
X79969036Y-83168740D01*
X86908964Y-83168740D01*
X86933245Y-83274087D01*
X87053138Y-83551204D01*
X87224790Y-83799606D01*
X87441604Y-84009748D01*
X87695249Y-84173554D01*
X87975977Y-84284729D01*
X88273000Y-84339000D01*
X88773000Y-84339000D01*
X88773000Y-82931000D01*
X89027000Y-82931000D01*
X89027000Y-84339000D01*
X89527000Y-84339000D01*
X89824023Y-84284729D01*
X90104751Y-84173554D01*
X90358396Y-84009748D01*
X90575210Y-83799606D01*
X90746862Y-83551204D01*
X90866755Y-83274087D01*
X90891036Y-83168740D01*
X97830964Y-83168740D01*
X97855245Y-83274087D01*
X97975138Y-83551204D01*
X98146790Y-83799606D01*
X98363604Y-84009748D01*
X98617249Y-84173554D01*
X98897977Y-84284729D01*
X99195000Y-84339000D01*
X99695000Y-84339000D01*
X99695000Y-82931000D01*
X99949000Y-82931000D01*
X99949000Y-84339000D01*
X100449000Y-84339000D01*
X100746023Y-84284729D01*
X101026751Y-84173554D01*
X101280396Y-84009748D01*
X101497210Y-83799606D01*
X101668862Y-83551204D01*
X101788755Y-83274087D01*
X101813036Y-83168740D01*
X101692378Y-82931000D01*
X99949000Y-82931000D01*
X99695000Y-82931000D01*
X97951622Y-82931000D01*
X97830964Y-83168740D01*
X90891036Y-83168740D01*
X90770378Y-82931000D01*
X89027000Y-82931000D01*
X88773000Y-82931000D01*
X87029622Y-82931000D01*
X86908964Y-83168740D01*
X79969036Y-83168740D01*
X79848378Y-82931000D01*
X78105000Y-82931000D01*
X77851000Y-82931000D01*
X76107622Y-82931000D01*
X75986964Y-83168740D01*
X69047036Y-83168740D01*
X68926378Y-82931000D01*
X67183000Y-82931000D01*
X66929000Y-82931000D01*
X65185622Y-82931000D01*
X65064964Y-83168740D01*
X57785000Y-83168740D01*
X57785000Y-80404000D01*
X63013573Y-80404000D01*
X63043210Y-80704913D01*
X63130983Y-80994261D01*
X63273519Y-81260927D01*
X63465339Y-81494661D01*
X63699073Y-81686481D01*
X63965739Y-81829017D01*
X64255087Y-81916790D01*
X64480592Y-81939000D01*
X65290538Y-81939000D01*
X65209138Y-82056796D01*
X65089245Y-82333913D01*
X65064964Y-82439260D01*
X65185622Y-82677000D01*
X66929000Y-82677000D01*
X66929000Y-81269000D01*
X67183000Y-81269000D01*
X67183000Y-82677000D01*
X68926378Y-82677000D01*
X69047036Y-82439260D01*
X69022755Y-82333913D01*
X68902862Y-82056796D01*
X68731210Y-81808394D01*
X68514396Y-81598252D01*
X68260751Y-81434446D01*
X67980023Y-81323271D01*
X67683000Y-81269000D01*
X67183000Y-81269000D01*
X66929000Y-81269000D01*
X66831856Y-81269000D01*
X66838481Y-81260927D01*
X66981017Y-80994261D01*
X67068790Y-80704913D01*
X67098427Y-80404000D01*
X73935573Y-80404000D01*
X73965210Y-80704913D01*
X74052983Y-80994261D01*
X74195519Y-81260927D01*
X74387339Y-81494661D01*
X74621073Y-81686481D01*
X74887739Y-81829017D01*
X75177087Y-81916790D01*
X75402592Y-81939000D01*
X76212538Y-81939000D01*
X76131138Y-82056796D01*
X76011245Y-82333913D01*
X75986964Y-82439260D01*
X76107622Y-82677000D01*
X77851000Y-82677000D01*
X77851000Y-81269000D01*
X78105000Y-81269000D01*
X78105000Y-82677000D01*
X79848378Y-82677000D01*
X79969036Y-82439260D01*
X79944755Y-82333913D01*
X79824862Y-82056796D01*
X79653210Y-81808394D01*
X79436396Y-81598252D01*
X79182751Y-81434446D01*
X78902023Y-81323271D01*
X78605000Y-81269000D01*
X78105000Y-81269000D01*
X77851000Y-81269000D01*
X77753856Y-81269000D01*
X77760481Y-81260927D01*
X77903017Y-80994261D01*
X77990790Y-80704913D01*
X78020427Y-80404000D01*
X84857573Y-80404000D01*
X84887210Y-80704913D01*
X84974983Y-80994261D01*
X85117519Y-81260927D01*
X85309339Y-81494661D01*
X85543073Y-81686481D01*
X85809739Y-81829017D01*
X86099087Y-81916790D01*
X86324592Y-81939000D01*
X87134538Y-81939000D01*
X87053138Y-82056796D01*
X86933245Y-82333913D01*
X86908964Y-82439260D01*
X87029622Y-82677000D01*
X88773000Y-82677000D01*
X88773000Y-81269000D01*
X89027000Y-81269000D01*
X89027000Y-82677000D01*
X90770378Y-82677000D01*
X90891036Y-82439260D01*
X90866755Y-82333913D01*
X90746862Y-82056796D01*
X90575210Y-81808394D01*
X90358396Y-81598252D01*
X90104751Y-81434446D01*
X89824023Y-81323271D01*
X89527000Y-81269000D01*
X89027000Y-81269000D01*
X88773000Y-81269000D01*
X88675856Y-81269000D01*
X88682481Y-81260927D01*
X88825017Y-80994261D01*
X88912790Y-80704913D01*
X88942427Y-80404000D01*
X95779573Y-80404000D01*
X95809210Y-80704913D01*
X95896983Y-80994261D01*
X96039519Y-81260927D01*
X96231339Y-81494661D01*
X96465073Y-81686481D01*
X96731739Y-81829017D01*
X97021087Y-81916790D01*
X97246592Y-81939000D01*
X98056538Y-81939000D01*
X97975138Y-82056796D01*
X97855245Y-82333913D01*
X97830964Y-82439260D01*
X97951622Y-82677000D01*
X99695000Y-82677000D01*
X99695000Y-81269000D01*
X99949000Y-81269000D01*
X99949000Y-82677000D01*
X101692378Y-82677000D01*
X101813036Y-82439260D01*
X101788755Y-82333913D01*
X101668862Y-82056796D01*
X101497210Y-81808394D01*
X101280396Y-81598252D01*
X101026751Y-81434446D01*
X100746023Y-81323271D01*
X100449000Y-81269000D01*
X99949000Y-81269000D01*
X99695000Y-81269000D01*
X99597856Y-81269000D01*
X99604481Y-81260927D01*
X99747017Y-80994261D01*
X99834790Y-80704913D01*
X99864427Y-80404000D01*
X99834790Y-80103087D01*
X99747017Y-79813739D01*
X99604481Y-79547073D01*
X99412661Y-79313339D01*
X99178927Y-79121519D01*
X98912261Y-78978983D01*
X98622913Y-78891210D01*
X98397408Y-78869000D01*
X97246592Y-78869000D01*
X97021087Y-78891210D01*
X96731739Y-78978983D01*
X96465073Y-79121519D01*
X96231339Y-79313339D01*
X96039519Y-79547073D01*
X95896983Y-79813739D01*
X95809210Y-80103087D01*
X95779573Y-80404000D01*
X88942427Y-80404000D01*
X88912790Y-80103087D01*
X88825017Y-79813739D01*
X88682481Y-79547073D01*
X88490661Y-79313339D01*
X88256927Y-79121519D01*
X87990261Y-78978983D01*
X87700913Y-78891210D01*
X87475408Y-78869000D01*
X86324592Y-78869000D01*
X86099087Y-78891210D01*
X85809739Y-78978983D01*
X85543073Y-79121519D01*
X85309339Y-79313339D01*
X85117519Y-79547073D01*
X84974983Y-79813739D01*
X84887210Y-80103087D01*
X84857573Y-80404000D01*
X78020427Y-80404000D01*
X77990790Y-80103087D01*
X77903017Y-79813739D01*
X77760481Y-79547073D01*
X77568661Y-79313339D01*
X77334927Y-79121519D01*
X77068261Y-78978983D01*
X76778913Y-78891210D01*
X76553408Y-78869000D01*
X75402592Y-78869000D01*
X75177087Y-78891210D01*
X74887739Y-78978983D01*
X74621073Y-79121519D01*
X74387339Y-79313339D01*
X74195519Y-79547073D01*
X74052983Y-79813739D01*
X73965210Y-80103087D01*
X73935573Y-80404000D01*
X67098427Y-80404000D01*
X67068790Y-80103087D01*
X66981017Y-79813739D01*
X66838481Y-79547073D01*
X66646661Y-79313339D01*
X66412927Y-79121519D01*
X66146261Y-78978983D01*
X65856913Y-78891210D01*
X65631408Y-78869000D01*
X64480592Y-78869000D01*
X64255087Y-78891210D01*
X63965739Y-78978983D01*
X63699073Y-79121519D01*
X63465339Y-79313339D01*
X63273519Y-79547073D01*
X63130983Y-79813739D01*
X63043210Y-80103087D01*
X63013573Y-80404000D01*
X57785000Y-80404000D01*
X57785000Y-74904000D01*
X63013573Y-74904000D01*
X63043210Y-75204913D01*
X63130983Y-75494261D01*
X63273519Y-75760927D01*
X63465339Y-75994661D01*
X63699073Y-76186481D01*
X63965739Y-76329017D01*
X64255087Y-76416790D01*
X64480592Y-76439000D01*
X65631408Y-76439000D01*
X65856913Y-76416790D01*
X66146261Y-76329017D01*
X66412927Y-76186481D01*
X66646661Y-75994661D01*
X66838481Y-75760927D01*
X66981017Y-75494261D01*
X67068790Y-75204913D01*
X67098427Y-74904000D01*
X73935573Y-74904000D01*
X73965210Y-75204913D01*
X74052983Y-75494261D01*
X74195519Y-75760927D01*
X74387339Y-75994661D01*
X74621073Y-76186481D01*
X74887739Y-76329017D01*
X75177087Y-76416790D01*
X75402592Y-76439000D01*
X76553408Y-76439000D01*
X76778913Y-76416790D01*
X77068261Y-76329017D01*
X77334927Y-76186481D01*
X77568661Y-75994661D01*
X77760481Y-75760927D01*
X77903017Y-75494261D01*
X77990790Y-75204913D01*
X78020427Y-74904000D01*
X84857573Y-74904000D01*
X84887210Y-75204913D01*
X84974983Y-75494261D01*
X85117519Y-75760927D01*
X85309339Y-75994661D01*
X85543073Y-76186481D01*
X85809739Y-76329017D01*
X86099087Y-76416790D01*
X86324592Y-76439000D01*
X87475408Y-76439000D01*
X87700913Y-76416790D01*
X87990261Y-76329017D01*
X88256927Y-76186481D01*
X88490661Y-75994661D01*
X88682481Y-75760927D01*
X88825017Y-75494261D01*
X88912790Y-75204913D01*
X88942427Y-74904000D01*
X95779573Y-74904000D01*
X95809210Y-75204913D01*
X95896983Y-75494261D01*
X96039519Y-75760927D01*
X96231339Y-75994661D01*
X96465073Y-76186481D01*
X96731739Y-76329017D01*
X97021087Y-76416790D01*
X97246592Y-76439000D01*
X98397408Y-76439000D01*
X98622913Y-76416790D01*
X98912261Y-76329017D01*
X99178927Y-76186481D01*
X99412661Y-75994661D01*
X99604481Y-75760927D01*
X99747017Y-75494261D01*
X99834790Y-75204913D01*
X99864427Y-74904000D01*
X99834790Y-74603087D01*
X99747017Y-74313739D01*
X99604481Y-74047073D01*
X99412661Y-73813339D01*
X99178927Y-73621519D01*
X98912261Y-73478983D01*
X98622913Y-73391210D01*
X98397408Y-73369000D01*
X97246592Y-73369000D01*
X97021087Y-73391210D01*
X96731739Y-73478983D01*
X96465073Y-73621519D01*
X96231339Y-73813339D01*
X96039519Y-74047073D01*
X95896983Y-74313739D01*
X95809210Y-74603087D01*
X95779573Y-74904000D01*
X88942427Y-74904000D01*
X88912790Y-74603087D01*
X88825017Y-74313739D01*
X88682481Y-74047073D01*
X88490661Y-73813339D01*
X88256927Y-73621519D01*
X87990261Y-73478983D01*
X87700913Y-73391210D01*
X87475408Y-73369000D01*
X86324592Y-73369000D01*
X86099087Y-73391210D01*
X85809739Y-73478983D01*
X85543073Y-73621519D01*
X85309339Y-73813339D01*
X85117519Y-74047073D01*
X84974983Y-74313739D01*
X84887210Y-74603087D01*
X84857573Y-74904000D01*
X78020427Y-74904000D01*
X77990790Y-74603087D01*
X77903017Y-74313739D01*
X77760481Y-74047073D01*
X77568661Y-73813339D01*
X77334927Y-73621519D01*
X77068261Y-73478983D01*
X76778913Y-73391210D01*
X76553408Y-73369000D01*
X75402592Y-73369000D01*
X75177087Y-73391210D01*
X74887739Y-73478983D01*
X74621073Y-73621519D01*
X74387339Y-73813339D01*
X74195519Y-74047073D01*
X74052983Y-74313739D01*
X73965210Y-74603087D01*
X73935573Y-74904000D01*
X67098427Y-74904000D01*
X67068790Y-74603087D01*
X66981017Y-74313739D01*
X66838481Y-74047073D01*
X66646661Y-73813339D01*
X66412927Y-73621519D01*
X66146261Y-73478983D01*
X65856913Y-73391210D01*
X65631408Y-73369000D01*
X64480592Y-73369000D01*
X64255087Y-73391210D01*
X63965739Y-73478983D01*
X63699073Y-73621519D01*
X63465339Y-73813339D01*
X63273519Y-74047073D01*
X63130983Y-74313739D01*
X63043210Y-74603087D01*
X63013573Y-74904000D01*
X57785000Y-74904000D01*
X57785000Y-44552890D01*
X103206524Y-44552890D01*
X103251175Y-44700099D01*
X103376359Y-44962920D01*
X103550412Y-45196269D01*
X103766645Y-45391178D01*
X104016748Y-45540157D01*
X104291109Y-45637481D01*
X104521000Y-45516814D01*
X104521000Y-44323000D01*
X104775000Y-44323000D01*
X104775000Y-45516814D01*
X105004891Y-45637481D01*
X105279252Y-45540157D01*
X105529355Y-45391178D01*
X105745588Y-45196269D01*
X105919641Y-44962920D01*
X106044825Y-44700099D01*
X106089476Y-44552890D01*
X105968155Y-44323000D01*
X104775000Y-44323000D01*
X104521000Y-44323000D01*
X103327845Y-44323000D01*
X103206524Y-44552890D01*
X57785000Y-44552890D01*
X57785000Y-40806000D01*
X103159928Y-40806000D01*
X103159928Y-42506000D01*
X103172188Y-42630482D01*
X103208498Y-42750180D01*
X103267463Y-42860494D01*
X103346815Y-42957185D01*
X103443506Y-43036537D01*
X103553820Y-43095502D01*
X103634466Y-43119966D01*
X103550412Y-43195731D01*
X103376359Y-43429080D01*
X103251175Y-43691901D01*
X103206524Y-43839110D01*
X103327845Y-44069000D01*
X104521000Y-44069000D01*
X104521000Y-44049000D01*
X104775000Y-44049000D01*
X104775000Y-44069000D01*
X105968155Y-44069000D01*
X106089476Y-43839110D01*
X106044825Y-43691901D01*
X105919641Y-43429080D01*
X105745588Y-43195731D01*
X105661534Y-43119966D01*
X105742180Y-43095502D01*
X105852494Y-43036537D01*
X105949185Y-42957185D01*
X106028537Y-42860494D01*
X106087502Y-42750180D01*
X106123812Y-42630482D01*
X106136072Y-42506000D01*
X106136072Y-40806000D01*
X106123812Y-40681518D01*
X106087502Y-40561820D01*
X106028537Y-40451506D01*
X105949185Y-40354815D01*
X105852494Y-40275463D01*
X105742180Y-40216498D01*
X105622482Y-40180188D01*
X105498000Y-40167928D01*
X103798000Y-40167928D01*
X103673518Y-40180188D01*
X103553820Y-40216498D01*
X103443506Y-40275463D01*
X103346815Y-40354815D01*
X103267463Y-40451506D01*
X103208498Y-40561820D01*
X103172188Y-40681518D01*
X103159928Y-40806000D01*
X57785000Y-40806000D01*
X57785000Y-38344982D01*
X59116624Y-38344982D01*
X59190627Y-38590993D01*
X59449550Y-38713893D01*
X59727474Y-38783917D01*
X60013719Y-38798376D01*
X60297285Y-38756714D01*
X60567275Y-38660532D01*
X60697373Y-38590993D01*
X60771376Y-38344982D01*
X59944000Y-37517605D01*
X59116624Y-38344982D01*
X57785000Y-38344982D01*
X57785000Y-37407719D01*
X58483624Y-37407719D01*
X58525286Y-37691285D01*
X58621468Y-37961275D01*
X58691007Y-38091373D01*
X58937018Y-38165376D01*
X59764395Y-37338000D01*
X58937018Y-36510624D01*
X58691007Y-36584627D01*
X58568107Y-36843550D01*
X58498083Y-37121474D01*
X58483624Y-37407719D01*
X57785000Y-37407719D01*
X57785000Y-34654695D01*
X58489000Y-34654695D01*
X58489000Y-34941305D01*
X58544915Y-35222408D01*
X58654596Y-35487201D01*
X58813828Y-35725508D01*
X59016492Y-35928172D01*
X59224286Y-36067016D01*
X59190627Y-36085007D01*
X59116624Y-36331018D01*
X59944000Y-37158395D01*
X60771376Y-36331018D01*
X60697373Y-36085007D01*
X60661951Y-36068194D01*
X60871508Y-35928172D01*
X61074172Y-35725508D01*
X61214000Y-35516241D01*
X61353828Y-35725508D01*
X61556492Y-35928172D01*
X61765759Y-36068000D01*
X61556492Y-36207828D01*
X61353828Y-36410492D01*
X61214984Y-36618286D01*
X61196993Y-36584627D01*
X60950982Y-36510624D01*
X60123605Y-37338000D01*
X60950982Y-38165376D01*
X61196993Y-38091373D01*
X61213806Y-38055951D01*
X61353828Y-38265508D01*
X61556492Y-38468172D01*
X61794799Y-38627404D01*
X62059592Y-38737085D01*
X62340695Y-38793000D01*
X62627305Y-38793000D01*
X62908408Y-38737085D01*
X63173201Y-38627404D01*
X63411508Y-38468172D01*
X63614172Y-38265508D01*
X63754000Y-38056241D01*
X63893828Y-38265508D01*
X64096492Y-38468172D01*
X64334799Y-38627404D01*
X64599592Y-38737085D01*
X64880695Y-38793000D01*
X65167305Y-38793000D01*
X65448408Y-38737085D01*
X65713201Y-38627404D01*
X65951508Y-38468172D01*
X66154172Y-38265508D01*
X66294000Y-38056241D01*
X66433828Y-38265508D01*
X66636492Y-38468172D01*
X66874799Y-38627404D01*
X67139592Y-38737085D01*
X67420695Y-38793000D01*
X67707305Y-38793000D01*
X67988408Y-38737085D01*
X68253201Y-38627404D01*
X68491508Y-38468172D01*
X68694172Y-38265508D01*
X68834000Y-38056241D01*
X68973828Y-38265508D01*
X69176492Y-38468172D01*
X69414799Y-38627404D01*
X69679592Y-38737085D01*
X69960695Y-38793000D01*
X70247305Y-38793000D01*
X70528408Y-38737085D01*
X70793201Y-38627404D01*
X71031508Y-38468172D01*
X71234172Y-38265508D01*
X71374000Y-38056241D01*
X71513828Y-38265508D01*
X71716492Y-38468172D01*
X71954799Y-38627404D01*
X72219592Y-38737085D01*
X72500695Y-38793000D01*
X72787305Y-38793000D01*
X73068408Y-38737085D01*
X73333201Y-38627404D01*
X73571508Y-38468172D01*
X73774172Y-38265508D01*
X73914000Y-38056241D01*
X74053828Y-38265508D01*
X74256492Y-38468172D01*
X74494799Y-38627404D01*
X74759592Y-38737085D01*
X75040695Y-38793000D01*
X75327305Y-38793000D01*
X75608408Y-38737085D01*
X75873201Y-38627404D01*
X76111508Y-38468172D01*
X76234698Y-38344982D01*
X76896624Y-38344982D01*
X76970627Y-38590993D01*
X77229550Y-38713893D01*
X77507474Y-38783917D01*
X77793719Y-38798376D01*
X78077285Y-38756714D01*
X78347275Y-38660532D01*
X78477373Y-38590993D01*
X78551376Y-38344982D01*
X77724000Y-37517605D01*
X76896624Y-38344982D01*
X76234698Y-38344982D01*
X76314172Y-38265508D01*
X76453016Y-38057714D01*
X76471007Y-38091373D01*
X76717018Y-38165376D01*
X77544395Y-37338000D01*
X76717018Y-36510624D01*
X76471007Y-36584627D01*
X76454194Y-36620049D01*
X76314172Y-36410492D01*
X76111508Y-36207828D01*
X75902241Y-36068000D01*
X76111508Y-35928172D01*
X76314172Y-35725508D01*
X76454000Y-35516241D01*
X76593828Y-35725508D01*
X76796492Y-35928172D01*
X77004286Y-36067016D01*
X76970627Y-36085007D01*
X76896624Y-36331018D01*
X77724000Y-37158395D01*
X78551376Y-36331018D01*
X78477373Y-36085007D01*
X78441951Y-36068194D01*
X78651508Y-35928172D01*
X78854172Y-35725508D01*
X78994000Y-35516241D01*
X79133828Y-35725508D01*
X79336492Y-35928172D01*
X79545759Y-36068000D01*
X79336492Y-36207828D01*
X79133828Y-36410492D01*
X78994984Y-36618286D01*
X78976993Y-36584627D01*
X78730982Y-36510624D01*
X77903605Y-37338000D01*
X78730982Y-38165376D01*
X78976993Y-38091373D01*
X78993806Y-38055951D01*
X79133828Y-38265508D01*
X79336492Y-38468172D01*
X79574799Y-38627404D01*
X79839592Y-38737085D01*
X80120695Y-38793000D01*
X80407305Y-38793000D01*
X80688408Y-38737085D01*
X80953201Y-38627404D01*
X81191508Y-38468172D01*
X81394172Y-38265508D01*
X81534000Y-38056241D01*
X81673828Y-38265508D01*
X81876492Y-38468172D01*
X82114799Y-38627404D01*
X82379592Y-38737085D01*
X82660695Y-38793000D01*
X82947305Y-38793000D01*
X83228408Y-38737085D01*
X83493201Y-38627404D01*
X83731508Y-38468172D01*
X83934172Y-38265508D01*
X84074000Y-38056241D01*
X84213828Y-38265508D01*
X84416492Y-38468172D01*
X84654799Y-38627404D01*
X84919592Y-38737085D01*
X85200695Y-38793000D01*
X85487305Y-38793000D01*
X85768408Y-38737085D01*
X86033201Y-38627404D01*
X86271508Y-38468172D01*
X86474172Y-38265508D01*
X86614000Y-38056241D01*
X86753828Y-38265508D01*
X86956492Y-38468172D01*
X87194799Y-38627404D01*
X87459592Y-38737085D01*
X87740695Y-38793000D01*
X88027305Y-38793000D01*
X88308408Y-38737085D01*
X88573201Y-38627404D01*
X88811508Y-38468172D01*
X89014172Y-38265508D01*
X89154000Y-38056241D01*
X89293828Y-38265508D01*
X89496492Y-38468172D01*
X89734799Y-38627404D01*
X89999592Y-38737085D01*
X90280695Y-38793000D01*
X90567305Y-38793000D01*
X90848408Y-38737085D01*
X91113201Y-38627404D01*
X91351508Y-38468172D01*
X91554172Y-38265508D01*
X91694000Y-38056241D01*
X91833828Y-38265508D01*
X92036492Y-38468172D01*
X92274799Y-38627404D01*
X92539592Y-38737085D01*
X92820695Y-38793000D01*
X93107305Y-38793000D01*
X93388408Y-38737085D01*
X93653201Y-38627404D01*
X93891508Y-38468172D01*
X94094172Y-38265508D01*
X94234000Y-38056241D01*
X94373828Y-38265508D01*
X94576492Y-38468172D01*
X94814799Y-38627404D01*
X95079592Y-38737085D01*
X95360695Y-38793000D01*
X95647305Y-38793000D01*
X95928408Y-38737085D01*
X96193201Y-38627404D01*
X96431508Y-38468172D01*
X96554698Y-38344982D01*
X97216624Y-38344982D01*
X97290627Y-38590993D01*
X97549550Y-38713893D01*
X97827474Y-38783917D01*
X98113719Y-38798376D01*
X98397285Y-38756714D01*
X98667275Y-38660532D01*
X98797373Y-38590993D01*
X98871376Y-38344982D01*
X98044000Y-37517605D01*
X97216624Y-38344982D01*
X96554698Y-38344982D01*
X96634172Y-38265508D01*
X96773016Y-38057714D01*
X96791007Y-38091373D01*
X97037018Y-38165376D01*
X97864395Y-37338000D01*
X97037018Y-36510624D01*
X96791007Y-36584627D01*
X96774194Y-36620049D01*
X96634172Y-36410492D01*
X96431508Y-36207828D01*
X96222241Y-36068000D01*
X96431508Y-35928172D01*
X96634172Y-35725508D01*
X96774000Y-35516241D01*
X96913828Y-35725508D01*
X97116492Y-35928172D01*
X97324286Y-36067016D01*
X97290627Y-36085007D01*
X97216624Y-36331018D01*
X98044000Y-37158395D01*
X98871376Y-36331018D01*
X98797373Y-36085007D01*
X98761951Y-36068194D01*
X98971508Y-35928172D01*
X99174172Y-35725508D01*
X99314000Y-35516241D01*
X99453828Y-35725508D01*
X99656492Y-35928172D01*
X99865759Y-36068000D01*
X99656492Y-36207828D01*
X99453828Y-36410492D01*
X99314984Y-36618286D01*
X99296993Y-36584627D01*
X99050982Y-36510624D01*
X98223605Y-37338000D01*
X99050982Y-38165376D01*
X99296993Y-38091373D01*
X99313806Y-38055951D01*
X99453828Y-38265508D01*
X99656492Y-38468172D01*
X99894799Y-38627404D01*
X100159592Y-38737085D01*
X100440695Y-38793000D01*
X100727305Y-38793000D01*
X101008408Y-38737085D01*
X101273201Y-38627404D01*
X101511508Y-38468172D01*
X101714172Y-38265508D01*
X101854000Y-38056241D01*
X101993828Y-38265508D01*
X102196492Y-38468172D01*
X102434799Y-38627404D01*
X102699592Y-38737085D01*
X102980695Y-38793000D01*
X103267305Y-38793000D01*
X103548408Y-38737085D01*
X103813201Y-38627404D01*
X104051508Y-38468172D01*
X104254172Y-38265508D01*
X104394000Y-38056241D01*
X104533828Y-38265508D01*
X104736492Y-38468172D01*
X104974799Y-38627404D01*
X105239592Y-38737085D01*
X105520695Y-38793000D01*
X105807305Y-38793000D01*
X106088408Y-38737085D01*
X106353201Y-38627404D01*
X106591508Y-38468172D01*
X106762612Y-38297068D01*
X106794498Y-38402180D01*
X106853463Y-38512494D01*
X106932815Y-38609185D01*
X107029506Y-38688537D01*
X107139820Y-38747502D01*
X107259518Y-38783812D01*
X107384000Y-38796072D01*
X109024000Y-38796072D01*
X109148482Y-38783812D01*
X109268180Y-38747502D01*
X109378494Y-38688537D01*
X109475185Y-38609185D01*
X109554537Y-38512494D01*
X109613502Y-38402180D01*
X109649812Y-38282482D01*
X109662072Y-38158000D01*
X109662072Y-36518000D01*
X109649812Y-36393518D01*
X109613502Y-36273820D01*
X109554537Y-36163506D01*
X109475185Y-36066815D01*
X109378494Y-35987463D01*
X109268180Y-35928498D01*
X109163068Y-35896612D01*
X109334172Y-35725508D01*
X109493404Y-35487201D01*
X109603085Y-35222408D01*
X109659000Y-34941305D01*
X109659000Y-34654695D01*
X109603085Y-34373592D01*
X109493404Y-34108799D01*
X109334172Y-33870492D01*
X109131508Y-33667828D01*
X108893201Y-33508596D01*
X108628408Y-33398915D01*
X108347305Y-33343000D01*
X108060695Y-33343000D01*
X107779592Y-33398915D01*
X107514799Y-33508596D01*
X107276492Y-33667828D01*
X107073828Y-33870492D01*
X106934000Y-34079759D01*
X106794172Y-33870492D01*
X106591508Y-33667828D01*
X106353201Y-33508596D01*
X106088408Y-33398915D01*
X105807305Y-33343000D01*
X105520695Y-33343000D01*
X105239592Y-33398915D01*
X104974799Y-33508596D01*
X104736492Y-33667828D01*
X104533828Y-33870492D01*
X104394984Y-34078286D01*
X104376993Y-34044627D01*
X104130982Y-33970624D01*
X103303605Y-34798000D01*
X104130982Y-35625376D01*
X104376993Y-35551373D01*
X104393806Y-35515951D01*
X104533828Y-35725508D01*
X104736492Y-35928172D01*
X104945759Y-36068000D01*
X104736492Y-36207828D01*
X104533828Y-36410492D01*
X104394000Y-36619759D01*
X104254172Y-36410492D01*
X104051508Y-36207828D01*
X103843714Y-36068984D01*
X103877373Y-36050993D01*
X103951376Y-35804982D01*
X103124000Y-34977605D01*
X102296624Y-35804982D01*
X102370627Y-36050993D01*
X102406049Y-36067806D01*
X102196492Y-36207828D01*
X101993828Y-36410492D01*
X101854000Y-36619759D01*
X101714172Y-36410492D01*
X101511508Y-36207828D01*
X101302241Y-36068000D01*
X101511508Y-35928172D01*
X101714172Y-35725508D01*
X101853016Y-35517714D01*
X101871007Y-35551373D01*
X102117018Y-35625376D01*
X102944395Y-34798000D01*
X102117018Y-33970624D01*
X101871007Y-34044627D01*
X101854194Y-34080049D01*
X101714172Y-33870492D01*
X101634698Y-33791018D01*
X102296624Y-33791018D01*
X103124000Y-34618395D01*
X103951376Y-33791018D01*
X103877373Y-33545007D01*
X103618450Y-33422107D01*
X103340526Y-33352083D01*
X103054281Y-33337624D01*
X102770715Y-33379286D01*
X102500725Y-33475468D01*
X102370627Y-33545007D01*
X102296624Y-33791018D01*
X101634698Y-33791018D01*
X101511508Y-33667828D01*
X101273201Y-33508596D01*
X101008408Y-33398915D01*
X100727305Y-33343000D01*
X100440695Y-33343000D01*
X100159592Y-33398915D01*
X99894799Y-33508596D01*
X99656492Y-33667828D01*
X99453828Y-33870492D01*
X99314000Y-34079759D01*
X99174172Y-33870492D01*
X98971508Y-33667828D01*
X98733201Y-33508596D01*
X98468408Y-33398915D01*
X98187305Y-33343000D01*
X97900695Y-33343000D01*
X97619592Y-33398915D01*
X97354799Y-33508596D01*
X97116492Y-33667828D01*
X96913828Y-33870492D01*
X96774000Y-34079759D01*
X96634172Y-33870492D01*
X96431508Y-33667828D01*
X96193201Y-33508596D01*
X95928408Y-33398915D01*
X95647305Y-33343000D01*
X95360695Y-33343000D01*
X95079592Y-33398915D01*
X94814799Y-33508596D01*
X94576492Y-33667828D01*
X94373828Y-33870492D01*
X94234984Y-34078286D01*
X94216993Y-34044627D01*
X93970982Y-33970624D01*
X93143605Y-34798000D01*
X93970982Y-35625376D01*
X94216993Y-35551373D01*
X94233806Y-35515951D01*
X94373828Y-35725508D01*
X94576492Y-35928172D01*
X94785759Y-36068000D01*
X94576492Y-36207828D01*
X94373828Y-36410492D01*
X94234000Y-36619759D01*
X94094172Y-36410492D01*
X93891508Y-36207828D01*
X93683714Y-36068984D01*
X93717373Y-36050993D01*
X93791376Y-35804982D01*
X92964000Y-34977605D01*
X92136624Y-35804982D01*
X92210627Y-36050993D01*
X92246049Y-36067806D01*
X92036492Y-36207828D01*
X91833828Y-36410492D01*
X91694000Y-36619759D01*
X91554172Y-36410492D01*
X91351508Y-36207828D01*
X91142241Y-36068000D01*
X91351508Y-35928172D01*
X91554172Y-35725508D01*
X91693016Y-35517714D01*
X91711007Y-35551373D01*
X91957018Y-35625376D01*
X92784395Y-34798000D01*
X91957018Y-33970624D01*
X91711007Y-34044627D01*
X91694194Y-34080049D01*
X91554172Y-33870492D01*
X91474698Y-33791018D01*
X92136624Y-33791018D01*
X92964000Y-34618395D01*
X93791376Y-33791018D01*
X93717373Y-33545007D01*
X93458450Y-33422107D01*
X93180526Y-33352083D01*
X92894281Y-33337624D01*
X92610715Y-33379286D01*
X92340725Y-33475468D01*
X92210627Y-33545007D01*
X92136624Y-33791018D01*
X91474698Y-33791018D01*
X91351508Y-33667828D01*
X91113201Y-33508596D01*
X90848408Y-33398915D01*
X90567305Y-33343000D01*
X90280695Y-33343000D01*
X89999592Y-33398915D01*
X89734799Y-33508596D01*
X89496492Y-33667828D01*
X89293828Y-33870492D01*
X89154000Y-34079759D01*
X89014172Y-33870492D01*
X88811508Y-33667828D01*
X88573201Y-33508596D01*
X88308408Y-33398915D01*
X88027305Y-33343000D01*
X87740695Y-33343000D01*
X87459592Y-33398915D01*
X87194799Y-33508596D01*
X86956492Y-33667828D01*
X86753828Y-33870492D01*
X86614984Y-34078286D01*
X86596993Y-34044627D01*
X86350982Y-33970624D01*
X85523605Y-34798000D01*
X86350982Y-35625376D01*
X86596993Y-35551373D01*
X86613806Y-35515951D01*
X86753828Y-35725508D01*
X86956492Y-35928172D01*
X87165759Y-36068000D01*
X86956492Y-36207828D01*
X86753828Y-36410492D01*
X86614000Y-36619759D01*
X86474172Y-36410492D01*
X86271508Y-36207828D01*
X86063714Y-36068984D01*
X86097373Y-36050993D01*
X86171376Y-35804982D01*
X85344000Y-34977605D01*
X84516624Y-35804982D01*
X84590627Y-36050993D01*
X84626049Y-36067806D01*
X84416492Y-36207828D01*
X84213828Y-36410492D01*
X84074000Y-36619759D01*
X83934172Y-36410492D01*
X83731508Y-36207828D01*
X83522241Y-36068000D01*
X83731508Y-35928172D01*
X83934172Y-35725508D01*
X84073016Y-35517714D01*
X84091007Y-35551373D01*
X84337018Y-35625376D01*
X85164395Y-34798000D01*
X84337018Y-33970624D01*
X84091007Y-34044627D01*
X84074194Y-34080049D01*
X83934172Y-33870492D01*
X83854698Y-33791018D01*
X84516624Y-33791018D01*
X85344000Y-34618395D01*
X86171376Y-33791018D01*
X86097373Y-33545007D01*
X85838450Y-33422107D01*
X85560526Y-33352083D01*
X85274281Y-33337624D01*
X84990715Y-33379286D01*
X84720725Y-33475468D01*
X84590627Y-33545007D01*
X84516624Y-33791018D01*
X83854698Y-33791018D01*
X83731508Y-33667828D01*
X83493201Y-33508596D01*
X83228408Y-33398915D01*
X82947305Y-33343000D01*
X82660695Y-33343000D01*
X82379592Y-33398915D01*
X82114799Y-33508596D01*
X81876492Y-33667828D01*
X81673828Y-33870492D01*
X81534000Y-34079759D01*
X81394172Y-33870492D01*
X81191508Y-33667828D01*
X80953201Y-33508596D01*
X80688408Y-33398915D01*
X80407305Y-33343000D01*
X80120695Y-33343000D01*
X79839592Y-33398915D01*
X79574799Y-33508596D01*
X79336492Y-33667828D01*
X79133828Y-33870492D01*
X78994000Y-34079759D01*
X78854172Y-33870492D01*
X78651508Y-33667828D01*
X78413201Y-33508596D01*
X78148408Y-33398915D01*
X77867305Y-33343000D01*
X77580695Y-33343000D01*
X77299592Y-33398915D01*
X77034799Y-33508596D01*
X76796492Y-33667828D01*
X76593828Y-33870492D01*
X76454000Y-34079759D01*
X76314172Y-33870492D01*
X76111508Y-33667828D01*
X75873201Y-33508596D01*
X75608408Y-33398915D01*
X75327305Y-33343000D01*
X75040695Y-33343000D01*
X74759592Y-33398915D01*
X74494799Y-33508596D01*
X74256492Y-33667828D01*
X74053828Y-33870492D01*
X73914984Y-34078286D01*
X73896993Y-34044627D01*
X73650982Y-33970624D01*
X72823605Y-34798000D01*
X73650982Y-35625376D01*
X73896993Y-35551373D01*
X73913806Y-35515951D01*
X74053828Y-35725508D01*
X74256492Y-35928172D01*
X74465759Y-36068000D01*
X74256492Y-36207828D01*
X74053828Y-36410492D01*
X73914000Y-36619759D01*
X73774172Y-36410492D01*
X73571508Y-36207828D01*
X73363714Y-36068984D01*
X73397373Y-36050993D01*
X73471376Y-35804982D01*
X72644000Y-34977605D01*
X71816624Y-35804982D01*
X71890627Y-36050993D01*
X71926049Y-36067806D01*
X71716492Y-36207828D01*
X71513828Y-36410492D01*
X71374000Y-36619759D01*
X71234172Y-36410492D01*
X71031508Y-36207828D01*
X70822241Y-36068000D01*
X71031508Y-35928172D01*
X71234172Y-35725508D01*
X71373016Y-35517714D01*
X71391007Y-35551373D01*
X71637018Y-35625376D01*
X72464395Y-34798000D01*
X71637018Y-33970624D01*
X71391007Y-34044627D01*
X71374194Y-34080049D01*
X71234172Y-33870492D01*
X71154698Y-33791018D01*
X71816624Y-33791018D01*
X72644000Y-34618395D01*
X73471376Y-33791018D01*
X73397373Y-33545007D01*
X73138450Y-33422107D01*
X72860526Y-33352083D01*
X72574281Y-33337624D01*
X72290715Y-33379286D01*
X72020725Y-33475468D01*
X71890627Y-33545007D01*
X71816624Y-33791018D01*
X71154698Y-33791018D01*
X71031508Y-33667828D01*
X70793201Y-33508596D01*
X70528408Y-33398915D01*
X70247305Y-33343000D01*
X69960695Y-33343000D01*
X69679592Y-33398915D01*
X69414799Y-33508596D01*
X69176492Y-33667828D01*
X68973828Y-33870492D01*
X68834984Y-34078286D01*
X68816993Y-34044627D01*
X68570982Y-33970624D01*
X67743605Y-34798000D01*
X68570982Y-35625376D01*
X68816993Y-35551373D01*
X68833806Y-35515951D01*
X68973828Y-35725508D01*
X69176492Y-35928172D01*
X69385759Y-36068000D01*
X69176492Y-36207828D01*
X68973828Y-36410492D01*
X68834000Y-36619759D01*
X68694172Y-36410492D01*
X68491508Y-36207828D01*
X68283714Y-36068984D01*
X68317373Y-36050993D01*
X68391376Y-35804982D01*
X67564000Y-34977605D01*
X66736624Y-35804982D01*
X66810627Y-36050993D01*
X66846049Y-36067806D01*
X66636492Y-36207828D01*
X66433828Y-36410492D01*
X66294000Y-36619759D01*
X66154172Y-36410492D01*
X65951508Y-36207828D01*
X65742241Y-36068000D01*
X65951508Y-35928172D01*
X66154172Y-35725508D01*
X66293016Y-35517714D01*
X66311007Y-35551373D01*
X66557018Y-35625376D01*
X67384395Y-34798000D01*
X66557018Y-33970624D01*
X66311007Y-34044627D01*
X66294194Y-34080049D01*
X66154172Y-33870492D01*
X66074698Y-33791018D01*
X66736624Y-33791018D01*
X67564000Y-34618395D01*
X68391376Y-33791018D01*
X68317373Y-33545007D01*
X68058450Y-33422107D01*
X67780526Y-33352083D01*
X67494281Y-33337624D01*
X67210715Y-33379286D01*
X66940725Y-33475468D01*
X66810627Y-33545007D01*
X66736624Y-33791018D01*
X66074698Y-33791018D01*
X65951508Y-33667828D01*
X65713201Y-33508596D01*
X65448408Y-33398915D01*
X65167305Y-33343000D01*
X64880695Y-33343000D01*
X64599592Y-33398915D01*
X64334799Y-33508596D01*
X64096492Y-33667828D01*
X63893828Y-33870492D01*
X63754000Y-34079759D01*
X63614172Y-33870492D01*
X63411508Y-33667828D01*
X63173201Y-33508596D01*
X62908408Y-33398915D01*
X62627305Y-33343000D01*
X62340695Y-33343000D01*
X62059592Y-33398915D01*
X61794799Y-33508596D01*
X61556492Y-33667828D01*
X61353828Y-33870492D01*
X61214000Y-34079759D01*
X61074172Y-33870492D01*
X60871508Y-33667828D01*
X60633201Y-33508596D01*
X60368408Y-33398915D01*
X60087305Y-33343000D01*
X59800695Y-33343000D01*
X59519592Y-33398915D01*
X59254799Y-33508596D01*
X59016492Y-33667828D01*
X58813828Y-33870492D01*
X58654596Y-34108799D01*
X58544915Y-34373592D01*
X58489000Y-34654695D01*
X57785000Y-34654695D01*
X57785000Y-33172000D01*
X110617000Y-33172000D01*
X110617000Y-87757000D01*
%TA.AperFunction,Conductor*%
D16*
G36*
X110617000Y-87757000D02*
G01*
X57785000Y-87757000D01*
X57785000Y-83168740D01*
X65064964Y-83168740D01*
X65089245Y-83274087D01*
X65209138Y-83551204D01*
X65380790Y-83799606D01*
X65597604Y-84009748D01*
X65851249Y-84173554D01*
X66131977Y-84284729D01*
X66429000Y-84339000D01*
X66929000Y-84339000D01*
X66929000Y-82931000D01*
X67183000Y-82931000D01*
X67183000Y-84339000D01*
X67683000Y-84339000D01*
X67980023Y-84284729D01*
X68260751Y-84173554D01*
X68514396Y-84009748D01*
X68731210Y-83799606D01*
X68902862Y-83551204D01*
X69022755Y-83274087D01*
X69047036Y-83168740D01*
X75986964Y-83168740D01*
X76011245Y-83274087D01*
X76131138Y-83551204D01*
X76302790Y-83799606D01*
X76519604Y-84009748D01*
X76773249Y-84173554D01*
X77053977Y-84284729D01*
X77351000Y-84339000D01*
X77851000Y-84339000D01*
X77851000Y-82931000D01*
X78105000Y-82931000D01*
X78105000Y-84339000D01*
X78605000Y-84339000D01*
X78902023Y-84284729D01*
X79182751Y-84173554D01*
X79436396Y-84009748D01*
X79653210Y-83799606D01*
X79824862Y-83551204D01*
X79944755Y-83274087D01*
X79969036Y-83168740D01*
X86908964Y-83168740D01*
X86933245Y-83274087D01*
X87053138Y-83551204D01*
X87224790Y-83799606D01*
X87441604Y-84009748D01*
X87695249Y-84173554D01*
X87975977Y-84284729D01*
X88273000Y-84339000D01*
X88773000Y-84339000D01*
X88773000Y-82931000D01*
X89027000Y-82931000D01*
X89027000Y-84339000D01*
X89527000Y-84339000D01*
X89824023Y-84284729D01*
X90104751Y-84173554D01*
X90358396Y-84009748D01*
X90575210Y-83799606D01*
X90746862Y-83551204D01*
X90866755Y-83274087D01*
X90891036Y-83168740D01*
X97830964Y-83168740D01*
X97855245Y-83274087D01*
X97975138Y-83551204D01*
X98146790Y-83799606D01*
X98363604Y-84009748D01*
X98617249Y-84173554D01*
X98897977Y-84284729D01*
X99195000Y-84339000D01*
X99695000Y-84339000D01*
X99695000Y-82931000D01*
X99949000Y-82931000D01*
X99949000Y-84339000D01*
X100449000Y-84339000D01*
X100746023Y-84284729D01*
X101026751Y-84173554D01*
X101280396Y-84009748D01*
X101497210Y-83799606D01*
X101668862Y-83551204D01*
X101788755Y-83274087D01*
X101813036Y-83168740D01*
X101692378Y-82931000D01*
X99949000Y-82931000D01*
X99695000Y-82931000D01*
X97951622Y-82931000D01*
X97830964Y-83168740D01*
X90891036Y-83168740D01*
X90770378Y-82931000D01*
X89027000Y-82931000D01*
X88773000Y-82931000D01*
X87029622Y-82931000D01*
X86908964Y-83168740D01*
X79969036Y-83168740D01*
X79848378Y-82931000D01*
X78105000Y-82931000D01*
X77851000Y-82931000D01*
X76107622Y-82931000D01*
X75986964Y-83168740D01*
X69047036Y-83168740D01*
X68926378Y-82931000D01*
X67183000Y-82931000D01*
X66929000Y-82931000D01*
X65185622Y-82931000D01*
X65064964Y-83168740D01*
X57785000Y-83168740D01*
X57785000Y-80404000D01*
X63013573Y-80404000D01*
X63043210Y-80704913D01*
X63130983Y-80994261D01*
X63273519Y-81260927D01*
X63465339Y-81494661D01*
X63699073Y-81686481D01*
X63965739Y-81829017D01*
X64255087Y-81916790D01*
X64480592Y-81939000D01*
X65290538Y-81939000D01*
X65209138Y-82056796D01*
X65089245Y-82333913D01*
X65064964Y-82439260D01*
X65185622Y-82677000D01*
X66929000Y-82677000D01*
X66929000Y-81269000D01*
X67183000Y-81269000D01*
X67183000Y-82677000D01*
X68926378Y-82677000D01*
X69047036Y-82439260D01*
X69022755Y-82333913D01*
X68902862Y-82056796D01*
X68731210Y-81808394D01*
X68514396Y-81598252D01*
X68260751Y-81434446D01*
X67980023Y-81323271D01*
X67683000Y-81269000D01*
X67183000Y-81269000D01*
X66929000Y-81269000D01*
X66831856Y-81269000D01*
X66838481Y-81260927D01*
X66981017Y-80994261D01*
X67068790Y-80704913D01*
X67098427Y-80404000D01*
X73935573Y-80404000D01*
X73965210Y-80704913D01*
X74052983Y-80994261D01*
X74195519Y-81260927D01*
X74387339Y-81494661D01*
X74621073Y-81686481D01*
X74887739Y-81829017D01*
X75177087Y-81916790D01*
X75402592Y-81939000D01*
X76212538Y-81939000D01*
X76131138Y-82056796D01*
X76011245Y-82333913D01*
X75986964Y-82439260D01*
X76107622Y-82677000D01*
X77851000Y-82677000D01*
X77851000Y-81269000D01*
X78105000Y-81269000D01*
X78105000Y-82677000D01*
X79848378Y-82677000D01*
X79969036Y-82439260D01*
X79944755Y-82333913D01*
X79824862Y-82056796D01*
X79653210Y-81808394D01*
X79436396Y-81598252D01*
X79182751Y-81434446D01*
X78902023Y-81323271D01*
X78605000Y-81269000D01*
X78105000Y-81269000D01*
X77851000Y-81269000D01*
X77753856Y-81269000D01*
X77760481Y-81260927D01*
X77903017Y-80994261D01*
X77990790Y-80704913D01*
X78020427Y-80404000D01*
X84857573Y-80404000D01*
X84887210Y-80704913D01*
X84974983Y-80994261D01*
X85117519Y-81260927D01*
X85309339Y-81494661D01*
X85543073Y-81686481D01*
X85809739Y-81829017D01*
X86099087Y-81916790D01*
X86324592Y-81939000D01*
X87134538Y-81939000D01*
X87053138Y-82056796D01*
X86933245Y-82333913D01*
X86908964Y-82439260D01*
X87029622Y-82677000D01*
X88773000Y-82677000D01*
X88773000Y-81269000D01*
X89027000Y-81269000D01*
X89027000Y-82677000D01*
X90770378Y-82677000D01*
X90891036Y-82439260D01*
X90866755Y-82333913D01*
X90746862Y-82056796D01*
X90575210Y-81808394D01*
X90358396Y-81598252D01*
X90104751Y-81434446D01*
X89824023Y-81323271D01*
X89527000Y-81269000D01*
X89027000Y-81269000D01*
X88773000Y-81269000D01*
X88675856Y-81269000D01*
X88682481Y-81260927D01*
X88825017Y-80994261D01*
X88912790Y-80704913D01*
X88942427Y-80404000D01*
X95779573Y-80404000D01*
X95809210Y-80704913D01*
X95896983Y-80994261D01*
X96039519Y-81260927D01*
X96231339Y-81494661D01*
X96465073Y-81686481D01*
X96731739Y-81829017D01*
X97021087Y-81916790D01*
X97246592Y-81939000D01*
X98056538Y-81939000D01*
X97975138Y-82056796D01*
X97855245Y-82333913D01*
X97830964Y-82439260D01*
X97951622Y-82677000D01*
X99695000Y-82677000D01*
X99695000Y-81269000D01*
X99949000Y-81269000D01*
X99949000Y-82677000D01*
X101692378Y-82677000D01*
X101813036Y-82439260D01*
X101788755Y-82333913D01*
X101668862Y-82056796D01*
X101497210Y-81808394D01*
X101280396Y-81598252D01*
X101026751Y-81434446D01*
X100746023Y-81323271D01*
X100449000Y-81269000D01*
X99949000Y-81269000D01*
X99695000Y-81269000D01*
X99597856Y-81269000D01*
X99604481Y-81260927D01*
X99747017Y-80994261D01*
X99834790Y-80704913D01*
X99864427Y-80404000D01*
X99834790Y-80103087D01*
X99747017Y-79813739D01*
X99604481Y-79547073D01*
X99412661Y-79313339D01*
X99178927Y-79121519D01*
X98912261Y-78978983D01*
X98622913Y-78891210D01*
X98397408Y-78869000D01*
X97246592Y-78869000D01*
X97021087Y-78891210D01*
X96731739Y-78978983D01*
X96465073Y-79121519D01*
X96231339Y-79313339D01*
X96039519Y-79547073D01*
X95896983Y-79813739D01*
X95809210Y-80103087D01*
X95779573Y-80404000D01*
X88942427Y-80404000D01*
X88912790Y-80103087D01*
X88825017Y-79813739D01*
X88682481Y-79547073D01*
X88490661Y-79313339D01*
X88256927Y-79121519D01*
X87990261Y-78978983D01*
X87700913Y-78891210D01*
X87475408Y-78869000D01*
X86324592Y-78869000D01*
X86099087Y-78891210D01*
X85809739Y-78978983D01*
X85543073Y-79121519D01*
X85309339Y-79313339D01*
X85117519Y-79547073D01*
X84974983Y-79813739D01*
X84887210Y-80103087D01*
X84857573Y-80404000D01*
X78020427Y-80404000D01*
X77990790Y-80103087D01*
X77903017Y-79813739D01*
X77760481Y-79547073D01*
X77568661Y-79313339D01*
X77334927Y-79121519D01*
X77068261Y-78978983D01*
X76778913Y-78891210D01*
X76553408Y-78869000D01*
X75402592Y-78869000D01*
X75177087Y-78891210D01*
X74887739Y-78978983D01*
X74621073Y-79121519D01*
X74387339Y-79313339D01*
X74195519Y-79547073D01*
X74052983Y-79813739D01*
X73965210Y-80103087D01*
X73935573Y-80404000D01*
X67098427Y-80404000D01*
X67068790Y-80103087D01*
X66981017Y-79813739D01*
X66838481Y-79547073D01*
X66646661Y-79313339D01*
X66412927Y-79121519D01*
X66146261Y-78978983D01*
X65856913Y-78891210D01*
X65631408Y-78869000D01*
X64480592Y-78869000D01*
X64255087Y-78891210D01*
X63965739Y-78978983D01*
X63699073Y-79121519D01*
X63465339Y-79313339D01*
X63273519Y-79547073D01*
X63130983Y-79813739D01*
X63043210Y-80103087D01*
X63013573Y-80404000D01*
X57785000Y-80404000D01*
X57785000Y-74904000D01*
X63013573Y-74904000D01*
X63043210Y-75204913D01*
X63130983Y-75494261D01*
X63273519Y-75760927D01*
X63465339Y-75994661D01*
X63699073Y-76186481D01*
X63965739Y-76329017D01*
X64255087Y-76416790D01*
X64480592Y-76439000D01*
X65631408Y-76439000D01*
X65856913Y-76416790D01*
X66146261Y-76329017D01*
X66412927Y-76186481D01*
X66646661Y-75994661D01*
X66838481Y-75760927D01*
X66981017Y-75494261D01*
X67068790Y-75204913D01*
X67098427Y-74904000D01*
X73935573Y-74904000D01*
X73965210Y-75204913D01*
X74052983Y-75494261D01*
X74195519Y-75760927D01*
X74387339Y-75994661D01*
X74621073Y-76186481D01*
X74887739Y-76329017D01*
X75177087Y-76416790D01*
X75402592Y-76439000D01*
X76553408Y-76439000D01*
X76778913Y-76416790D01*
X77068261Y-76329017D01*
X77334927Y-76186481D01*
X77568661Y-75994661D01*
X77760481Y-75760927D01*
X77903017Y-75494261D01*
X77990790Y-75204913D01*
X78020427Y-74904000D01*
X84857573Y-74904000D01*
X84887210Y-75204913D01*
X84974983Y-75494261D01*
X85117519Y-75760927D01*
X85309339Y-75994661D01*
X85543073Y-76186481D01*
X85809739Y-76329017D01*
X86099087Y-76416790D01*
X86324592Y-76439000D01*
X87475408Y-76439000D01*
X87700913Y-76416790D01*
X87990261Y-76329017D01*
X88256927Y-76186481D01*
X88490661Y-75994661D01*
X88682481Y-75760927D01*
X88825017Y-75494261D01*
X88912790Y-75204913D01*
X88942427Y-74904000D01*
X95779573Y-74904000D01*
X95809210Y-75204913D01*
X95896983Y-75494261D01*
X96039519Y-75760927D01*
X96231339Y-75994661D01*
X96465073Y-76186481D01*
X96731739Y-76329017D01*
X97021087Y-76416790D01*
X97246592Y-76439000D01*
X98397408Y-76439000D01*
X98622913Y-76416790D01*
X98912261Y-76329017D01*
X99178927Y-76186481D01*
X99412661Y-75994661D01*
X99604481Y-75760927D01*
X99747017Y-75494261D01*
X99834790Y-75204913D01*
X99864427Y-74904000D01*
X99834790Y-74603087D01*
X99747017Y-74313739D01*
X99604481Y-74047073D01*
X99412661Y-73813339D01*
X99178927Y-73621519D01*
X98912261Y-73478983D01*
X98622913Y-73391210D01*
X98397408Y-73369000D01*
X97246592Y-73369000D01*
X97021087Y-73391210D01*
X96731739Y-73478983D01*
X96465073Y-73621519D01*
X96231339Y-73813339D01*
X96039519Y-74047073D01*
X95896983Y-74313739D01*
X95809210Y-74603087D01*
X95779573Y-74904000D01*
X88942427Y-74904000D01*
X88912790Y-74603087D01*
X88825017Y-74313739D01*
X88682481Y-74047073D01*
X88490661Y-73813339D01*
X88256927Y-73621519D01*
X87990261Y-73478983D01*
X87700913Y-73391210D01*
X87475408Y-73369000D01*
X86324592Y-73369000D01*
X86099087Y-73391210D01*
X85809739Y-73478983D01*
X85543073Y-73621519D01*
X85309339Y-73813339D01*
X85117519Y-74047073D01*
X84974983Y-74313739D01*
X84887210Y-74603087D01*
X84857573Y-74904000D01*
X78020427Y-74904000D01*
X77990790Y-74603087D01*
X77903017Y-74313739D01*
X77760481Y-74047073D01*
X77568661Y-73813339D01*
X77334927Y-73621519D01*
X77068261Y-73478983D01*
X76778913Y-73391210D01*
X76553408Y-73369000D01*
X75402592Y-73369000D01*
X75177087Y-73391210D01*
X74887739Y-73478983D01*
X74621073Y-73621519D01*
X74387339Y-73813339D01*
X74195519Y-74047073D01*
X74052983Y-74313739D01*
X73965210Y-74603087D01*
X73935573Y-74904000D01*
X67098427Y-74904000D01*
X67068790Y-74603087D01*
X66981017Y-74313739D01*
X66838481Y-74047073D01*
X66646661Y-73813339D01*
X66412927Y-73621519D01*
X66146261Y-73478983D01*
X65856913Y-73391210D01*
X65631408Y-73369000D01*
X64480592Y-73369000D01*
X64255087Y-73391210D01*
X63965739Y-73478983D01*
X63699073Y-73621519D01*
X63465339Y-73813339D01*
X63273519Y-74047073D01*
X63130983Y-74313739D01*
X63043210Y-74603087D01*
X63013573Y-74904000D01*
X57785000Y-74904000D01*
X57785000Y-44552890D01*
X103206524Y-44552890D01*
X103251175Y-44700099D01*
X103376359Y-44962920D01*
X103550412Y-45196269D01*
X103766645Y-45391178D01*
X104016748Y-45540157D01*
X104291109Y-45637481D01*
X104521000Y-45516814D01*
X104521000Y-44323000D01*
X104775000Y-44323000D01*
X104775000Y-45516814D01*
X105004891Y-45637481D01*
X105279252Y-45540157D01*
X105529355Y-45391178D01*
X105745588Y-45196269D01*
X105919641Y-44962920D01*
X106044825Y-44700099D01*
X106089476Y-44552890D01*
X105968155Y-44323000D01*
X104775000Y-44323000D01*
X104521000Y-44323000D01*
X103327845Y-44323000D01*
X103206524Y-44552890D01*
X57785000Y-44552890D01*
X57785000Y-40806000D01*
X103159928Y-40806000D01*
X103159928Y-42506000D01*
X103172188Y-42630482D01*
X103208498Y-42750180D01*
X103267463Y-42860494D01*
X103346815Y-42957185D01*
X103443506Y-43036537D01*
X103553820Y-43095502D01*
X103634466Y-43119966D01*
X103550412Y-43195731D01*
X103376359Y-43429080D01*
X103251175Y-43691901D01*
X103206524Y-43839110D01*
X103327845Y-44069000D01*
X104521000Y-44069000D01*
X104521000Y-44049000D01*
X104775000Y-44049000D01*
X104775000Y-44069000D01*
X105968155Y-44069000D01*
X106089476Y-43839110D01*
X106044825Y-43691901D01*
X105919641Y-43429080D01*
X105745588Y-43195731D01*
X105661534Y-43119966D01*
X105742180Y-43095502D01*
X105852494Y-43036537D01*
X105949185Y-42957185D01*
X106028537Y-42860494D01*
X106087502Y-42750180D01*
X106123812Y-42630482D01*
X106136072Y-42506000D01*
X106136072Y-40806000D01*
X106123812Y-40681518D01*
X106087502Y-40561820D01*
X106028537Y-40451506D01*
X105949185Y-40354815D01*
X105852494Y-40275463D01*
X105742180Y-40216498D01*
X105622482Y-40180188D01*
X105498000Y-40167928D01*
X103798000Y-40167928D01*
X103673518Y-40180188D01*
X103553820Y-40216498D01*
X103443506Y-40275463D01*
X103346815Y-40354815D01*
X103267463Y-40451506D01*
X103208498Y-40561820D01*
X103172188Y-40681518D01*
X103159928Y-40806000D01*
X57785000Y-40806000D01*
X57785000Y-38344982D01*
X59116624Y-38344982D01*
X59190627Y-38590993D01*
X59449550Y-38713893D01*
X59727474Y-38783917D01*
X60013719Y-38798376D01*
X60297285Y-38756714D01*
X60567275Y-38660532D01*
X60697373Y-38590993D01*
X60771376Y-38344982D01*
X59944000Y-37517605D01*
X59116624Y-38344982D01*
X57785000Y-38344982D01*
X57785000Y-37407719D01*
X58483624Y-37407719D01*
X58525286Y-37691285D01*
X58621468Y-37961275D01*
X58691007Y-38091373D01*
X58937018Y-38165376D01*
X59764395Y-37338000D01*
X58937018Y-36510624D01*
X58691007Y-36584627D01*
X58568107Y-36843550D01*
X58498083Y-37121474D01*
X58483624Y-37407719D01*
X57785000Y-37407719D01*
X57785000Y-34654695D01*
X58489000Y-34654695D01*
X58489000Y-34941305D01*
X58544915Y-35222408D01*
X58654596Y-35487201D01*
X58813828Y-35725508D01*
X59016492Y-35928172D01*
X59224286Y-36067016D01*
X59190627Y-36085007D01*
X59116624Y-36331018D01*
X59944000Y-37158395D01*
X60771376Y-36331018D01*
X60697373Y-36085007D01*
X60661951Y-36068194D01*
X60871508Y-35928172D01*
X61074172Y-35725508D01*
X61214000Y-35516241D01*
X61353828Y-35725508D01*
X61556492Y-35928172D01*
X61765759Y-36068000D01*
X61556492Y-36207828D01*
X61353828Y-36410492D01*
X61214984Y-36618286D01*
X61196993Y-36584627D01*
X60950982Y-36510624D01*
X60123605Y-37338000D01*
X60950982Y-38165376D01*
X61196993Y-38091373D01*
X61213806Y-38055951D01*
X61353828Y-38265508D01*
X61556492Y-38468172D01*
X61794799Y-38627404D01*
X62059592Y-38737085D01*
X62340695Y-38793000D01*
X62627305Y-38793000D01*
X62908408Y-38737085D01*
X63173201Y-38627404D01*
X63411508Y-38468172D01*
X63614172Y-38265508D01*
X63754000Y-38056241D01*
X63893828Y-38265508D01*
X64096492Y-38468172D01*
X64334799Y-38627404D01*
X64599592Y-38737085D01*
X64880695Y-38793000D01*
X65167305Y-38793000D01*
X65448408Y-38737085D01*
X65713201Y-38627404D01*
X65951508Y-38468172D01*
X66154172Y-38265508D01*
X66294000Y-38056241D01*
X66433828Y-38265508D01*
X66636492Y-38468172D01*
X66874799Y-38627404D01*
X67139592Y-38737085D01*
X67420695Y-38793000D01*
X67707305Y-38793000D01*
X67988408Y-38737085D01*
X68253201Y-38627404D01*
X68491508Y-38468172D01*
X68694172Y-38265508D01*
X68834000Y-38056241D01*
X68973828Y-38265508D01*
X69176492Y-38468172D01*
X69414799Y-38627404D01*
X69679592Y-38737085D01*
X69960695Y-38793000D01*
X70247305Y-38793000D01*
X70528408Y-38737085D01*
X70793201Y-38627404D01*
X71031508Y-38468172D01*
X71234172Y-38265508D01*
X71374000Y-38056241D01*
X71513828Y-38265508D01*
X71716492Y-38468172D01*
X71954799Y-38627404D01*
X72219592Y-38737085D01*
X72500695Y-38793000D01*
X72787305Y-38793000D01*
X73068408Y-38737085D01*
X73333201Y-38627404D01*
X73571508Y-38468172D01*
X73774172Y-38265508D01*
X73914000Y-38056241D01*
X74053828Y-38265508D01*
X74256492Y-38468172D01*
X74494799Y-38627404D01*
X74759592Y-38737085D01*
X75040695Y-38793000D01*
X75327305Y-38793000D01*
X75608408Y-38737085D01*
X75873201Y-38627404D01*
X76111508Y-38468172D01*
X76234698Y-38344982D01*
X76896624Y-38344982D01*
X76970627Y-38590993D01*
X77229550Y-38713893D01*
X77507474Y-38783917D01*
X77793719Y-38798376D01*
X78077285Y-38756714D01*
X78347275Y-38660532D01*
X78477373Y-38590993D01*
X78551376Y-38344982D01*
X77724000Y-37517605D01*
X76896624Y-38344982D01*
X76234698Y-38344982D01*
X76314172Y-38265508D01*
X76453016Y-38057714D01*
X76471007Y-38091373D01*
X76717018Y-38165376D01*
X77544395Y-37338000D01*
X76717018Y-36510624D01*
X76471007Y-36584627D01*
X76454194Y-36620049D01*
X76314172Y-36410492D01*
X76111508Y-36207828D01*
X75902241Y-36068000D01*
X76111508Y-35928172D01*
X76314172Y-35725508D01*
X76454000Y-35516241D01*
X76593828Y-35725508D01*
X76796492Y-35928172D01*
X77004286Y-36067016D01*
X76970627Y-36085007D01*
X76896624Y-36331018D01*
X77724000Y-37158395D01*
X78551376Y-36331018D01*
X78477373Y-36085007D01*
X78441951Y-36068194D01*
X78651508Y-35928172D01*
X78854172Y-35725508D01*
X78994000Y-35516241D01*
X79133828Y-35725508D01*
X79336492Y-35928172D01*
X79545759Y-36068000D01*
X79336492Y-36207828D01*
X79133828Y-36410492D01*
X78994984Y-36618286D01*
X78976993Y-36584627D01*
X78730982Y-36510624D01*
X77903605Y-37338000D01*
X78730982Y-38165376D01*
X78976993Y-38091373D01*
X78993806Y-38055951D01*
X79133828Y-38265508D01*
X79336492Y-38468172D01*
X79574799Y-38627404D01*
X79839592Y-38737085D01*
X80120695Y-38793000D01*
X80407305Y-38793000D01*
X80688408Y-38737085D01*
X80953201Y-38627404D01*
X81191508Y-38468172D01*
X81394172Y-38265508D01*
X81534000Y-38056241D01*
X81673828Y-38265508D01*
X81876492Y-38468172D01*
X82114799Y-38627404D01*
X82379592Y-38737085D01*
X82660695Y-38793000D01*
X82947305Y-38793000D01*
X83228408Y-38737085D01*
X83493201Y-38627404D01*
X83731508Y-38468172D01*
X83934172Y-38265508D01*
X84074000Y-38056241D01*
X84213828Y-38265508D01*
X84416492Y-38468172D01*
X84654799Y-38627404D01*
X84919592Y-38737085D01*
X85200695Y-38793000D01*
X85487305Y-38793000D01*
X85768408Y-38737085D01*
X86033201Y-38627404D01*
X86271508Y-38468172D01*
X86474172Y-38265508D01*
X86614000Y-38056241D01*
X86753828Y-38265508D01*
X86956492Y-38468172D01*
X87194799Y-38627404D01*
X87459592Y-38737085D01*
X87740695Y-38793000D01*
X88027305Y-38793000D01*
X88308408Y-38737085D01*
X88573201Y-38627404D01*
X88811508Y-38468172D01*
X89014172Y-38265508D01*
X89154000Y-38056241D01*
X89293828Y-38265508D01*
X89496492Y-38468172D01*
X89734799Y-38627404D01*
X89999592Y-38737085D01*
X90280695Y-38793000D01*
X90567305Y-38793000D01*
X90848408Y-38737085D01*
X91113201Y-38627404D01*
X91351508Y-38468172D01*
X91554172Y-38265508D01*
X91694000Y-38056241D01*
X91833828Y-38265508D01*
X92036492Y-38468172D01*
X92274799Y-38627404D01*
X92539592Y-38737085D01*
X92820695Y-38793000D01*
X93107305Y-38793000D01*
X93388408Y-38737085D01*
X93653201Y-38627404D01*
X93891508Y-38468172D01*
X94094172Y-38265508D01*
X94234000Y-38056241D01*
X94373828Y-38265508D01*
X94576492Y-38468172D01*
X94814799Y-38627404D01*
X95079592Y-38737085D01*
X95360695Y-38793000D01*
X95647305Y-38793000D01*
X95928408Y-38737085D01*
X96193201Y-38627404D01*
X96431508Y-38468172D01*
X96554698Y-38344982D01*
X97216624Y-38344982D01*
X97290627Y-38590993D01*
X97549550Y-38713893D01*
X97827474Y-38783917D01*
X98113719Y-38798376D01*
X98397285Y-38756714D01*
X98667275Y-38660532D01*
X98797373Y-38590993D01*
X98871376Y-38344982D01*
X98044000Y-37517605D01*
X97216624Y-38344982D01*
X96554698Y-38344982D01*
X96634172Y-38265508D01*
X96773016Y-38057714D01*
X96791007Y-38091373D01*
X97037018Y-38165376D01*
X97864395Y-37338000D01*
X97037018Y-36510624D01*
X96791007Y-36584627D01*
X96774194Y-36620049D01*
X96634172Y-36410492D01*
X96431508Y-36207828D01*
X96222241Y-36068000D01*
X96431508Y-35928172D01*
X96634172Y-35725508D01*
X96774000Y-35516241D01*
X96913828Y-35725508D01*
X97116492Y-35928172D01*
X97324286Y-36067016D01*
X97290627Y-36085007D01*
X97216624Y-36331018D01*
X98044000Y-37158395D01*
X98871376Y-36331018D01*
X98797373Y-36085007D01*
X98761951Y-36068194D01*
X98971508Y-35928172D01*
X99174172Y-35725508D01*
X99314000Y-35516241D01*
X99453828Y-35725508D01*
X99656492Y-35928172D01*
X99865759Y-36068000D01*
X99656492Y-36207828D01*
X99453828Y-36410492D01*
X99314984Y-36618286D01*
X99296993Y-36584627D01*
X99050982Y-36510624D01*
X98223605Y-37338000D01*
X99050982Y-38165376D01*
X99296993Y-38091373D01*
X99313806Y-38055951D01*
X99453828Y-38265508D01*
X99656492Y-38468172D01*
X99894799Y-38627404D01*
X100159592Y-38737085D01*
X100440695Y-38793000D01*
X100727305Y-38793000D01*
X101008408Y-38737085D01*
X101273201Y-38627404D01*
X101511508Y-38468172D01*
X101714172Y-38265508D01*
X101854000Y-38056241D01*
X101993828Y-38265508D01*
X102196492Y-38468172D01*
X102434799Y-38627404D01*
X102699592Y-38737085D01*
X102980695Y-38793000D01*
X103267305Y-38793000D01*
X103548408Y-38737085D01*
X103813201Y-38627404D01*
X104051508Y-38468172D01*
X104254172Y-38265508D01*
X104394000Y-38056241D01*
X104533828Y-38265508D01*
X104736492Y-38468172D01*
X104974799Y-38627404D01*
X105239592Y-38737085D01*
X105520695Y-38793000D01*
X105807305Y-38793000D01*
X106088408Y-38737085D01*
X106353201Y-38627404D01*
X106591508Y-38468172D01*
X106762612Y-38297068D01*
X106794498Y-38402180D01*
X106853463Y-38512494D01*
X106932815Y-38609185D01*
X107029506Y-38688537D01*
X107139820Y-38747502D01*
X107259518Y-38783812D01*
X107384000Y-38796072D01*
X109024000Y-38796072D01*
X109148482Y-38783812D01*
X109268180Y-38747502D01*
X109378494Y-38688537D01*
X109475185Y-38609185D01*
X109554537Y-38512494D01*
X109613502Y-38402180D01*
X109649812Y-38282482D01*
X109662072Y-38158000D01*
X109662072Y-36518000D01*
X109649812Y-36393518D01*
X109613502Y-36273820D01*
X109554537Y-36163506D01*
X109475185Y-36066815D01*
X109378494Y-35987463D01*
X109268180Y-35928498D01*
X109163068Y-35896612D01*
X109334172Y-35725508D01*
X109493404Y-35487201D01*
X109603085Y-35222408D01*
X109659000Y-34941305D01*
X109659000Y-34654695D01*
X109603085Y-34373592D01*
X109493404Y-34108799D01*
X109334172Y-33870492D01*
X109131508Y-33667828D01*
X108893201Y-33508596D01*
X108628408Y-33398915D01*
X108347305Y-33343000D01*
X108060695Y-33343000D01*
X107779592Y-33398915D01*
X107514799Y-33508596D01*
X107276492Y-33667828D01*
X107073828Y-33870492D01*
X106934000Y-34079759D01*
X106794172Y-33870492D01*
X106591508Y-33667828D01*
X106353201Y-33508596D01*
X106088408Y-33398915D01*
X105807305Y-33343000D01*
X105520695Y-33343000D01*
X105239592Y-33398915D01*
X104974799Y-33508596D01*
X104736492Y-33667828D01*
X104533828Y-33870492D01*
X104394984Y-34078286D01*
X104376993Y-34044627D01*
X104130982Y-33970624D01*
X103303605Y-34798000D01*
X104130982Y-35625376D01*
X104376993Y-35551373D01*
X104393806Y-35515951D01*
X104533828Y-35725508D01*
X104736492Y-35928172D01*
X104945759Y-36068000D01*
X104736492Y-36207828D01*
X104533828Y-36410492D01*
X104394000Y-36619759D01*
X104254172Y-36410492D01*
X104051508Y-36207828D01*
X103843714Y-36068984D01*
X103877373Y-36050993D01*
X103951376Y-35804982D01*
X103124000Y-34977605D01*
X102296624Y-35804982D01*
X102370627Y-36050993D01*
X102406049Y-36067806D01*
X102196492Y-36207828D01*
X101993828Y-36410492D01*
X101854000Y-36619759D01*
X101714172Y-36410492D01*
X101511508Y-36207828D01*
X101302241Y-36068000D01*
X101511508Y-35928172D01*
X101714172Y-35725508D01*
X101853016Y-35517714D01*
X101871007Y-35551373D01*
X102117018Y-35625376D01*
X102944395Y-34798000D01*
X102117018Y-33970624D01*
X101871007Y-34044627D01*
X101854194Y-34080049D01*
X101714172Y-33870492D01*
X101634698Y-33791018D01*
X102296624Y-33791018D01*
X103124000Y-34618395D01*
X103951376Y-33791018D01*
X103877373Y-33545007D01*
X103618450Y-33422107D01*
X103340526Y-33352083D01*
X103054281Y-33337624D01*
X102770715Y-33379286D01*
X102500725Y-33475468D01*
X102370627Y-33545007D01*
X102296624Y-33791018D01*
X101634698Y-33791018D01*
X101511508Y-33667828D01*
X101273201Y-33508596D01*
X101008408Y-33398915D01*
X100727305Y-33343000D01*
X100440695Y-33343000D01*
X100159592Y-33398915D01*
X99894799Y-33508596D01*
X99656492Y-33667828D01*
X99453828Y-33870492D01*
X99314000Y-34079759D01*
X99174172Y-33870492D01*
X98971508Y-33667828D01*
X98733201Y-33508596D01*
X98468408Y-33398915D01*
X98187305Y-33343000D01*
X97900695Y-33343000D01*
X97619592Y-33398915D01*
X97354799Y-33508596D01*
X97116492Y-33667828D01*
X96913828Y-33870492D01*
X96774000Y-34079759D01*
X96634172Y-33870492D01*
X96431508Y-33667828D01*
X96193201Y-33508596D01*
X95928408Y-33398915D01*
X95647305Y-33343000D01*
X95360695Y-33343000D01*
X95079592Y-33398915D01*
X94814799Y-33508596D01*
X94576492Y-33667828D01*
X94373828Y-33870492D01*
X94234984Y-34078286D01*
X94216993Y-34044627D01*
X93970982Y-33970624D01*
X93143605Y-34798000D01*
X93970982Y-35625376D01*
X94216993Y-35551373D01*
X94233806Y-35515951D01*
X94373828Y-35725508D01*
X94576492Y-35928172D01*
X94785759Y-36068000D01*
X94576492Y-36207828D01*
X94373828Y-36410492D01*
X94234000Y-36619759D01*
X94094172Y-36410492D01*
X93891508Y-36207828D01*
X93683714Y-36068984D01*
X93717373Y-36050993D01*
X93791376Y-35804982D01*
X92964000Y-34977605D01*
X92136624Y-35804982D01*
X92210627Y-36050993D01*
X92246049Y-36067806D01*
X92036492Y-36207828D01*
X91833828Y-36410492D01*
X91694000Y-36619759D01*
X91554172Y-36410492D01*
X91351508Y-36207828D01*
X91142241Y-36068000D01*
X91351508Y-35928172D01*
X91554172Y-35725508D01*
X91693016Y-35517714D01*
X91711007Y-35551373D01*
X91957018Y-35625376D01*
X92784395Y-34798000D01*
X91957018Y-33970624D01*
X91711007Y-34044627D01*
X91694194Y-34080049D01*
X91554172Y-33870492D01*
X91474698Y-33791018D01*
X92136624Y-33791018D01*
X92964000Y-34618395D01*
X93791376Y-33791018D01*
X93717373Y-33545007D01*
X93458450Y-33422107D01*
X93180526Y-33352083D01*
X92894281Y-33337624D01*
X92610715Y-33379286D01*
X92340725Y-33475468D01*
X92210627Y-33545007D01*
X92136624Y-33791018D01*
X91474698Y-33791018D01*
X91351508Y-33667828D01*
X91113201Y-33508596D01*
X90848408Y-33398915D01*
X90567305Y-33343000D01*
X90280695Y-33343000D01*
X89999592Y-33398915D01*
X89734799Y-33508596D01*
X89496492Y-33667828D01*
X89293828Y-33870492D01*
X89154000Y-34079759D01*
X89014172Y-33870492D01*
X88811508Y-33667828D01*
X88573201Y-33508596D01*
X88308408Y-33398915D01*
X88027305Y-33343000D01*
X87740695Y-33343000D01*
X87459592Y-33398915D01*
X87194799Y-33508596D01*
X86956492Y-33667828D01*
X86753828Y-33870492D01*
X86614984Y-34078286D01*
X86596993Y-34044627D01*
X86350982Y-33970624D01*
X85523605Y-34798000D01*
X86350982Y-35625376D01*
X86596993Y-35551373D01*
X86613806Y-35515951D01*
X86753828Y-35725508D01*
X86956492Y-35928172D01*
X87165759Y-36068000D01*
X86956492Y-36207828D01*
X86753828Y-36410492D01*
X86614000Y-36619759D01*
X86474172Y-36410492D01*
X86271508Y-36207828D01*
X86063714Y-36068984D01*
X86097373Y-36050993D01*
X86171376Y-35804982D01*
X85344000Y-34977605D01*
X84516624Y-35804982D01*
X84590627Y-36050993D01*
X84626049Y-36067806D01*
X84416492Y-36207828D01*
X84213828Y-36410492D01*
X84074000Y-36619759D01*
X83934172Y-36410492D01*
X83731508Y-36207828D01*
X83522241Y-36068000D01*
X83731508Y-35928172D01*
X83934172Y-35725508D01*
X84073016Y-35517714D01*
X84091007Y-35551373D01*
X84337018Y-35625376D01*
X85164395Y-34798000D01*
X84337018Y-33970624D01*
X84091007Y-34044627D01*
X84074194Y-34080049D01*
X83934172Y-33870492D01*
X83854698Y-33791018D01*
X84516624Y-33791018D01*
X85344000Y-34618395D01*
X86171376Y-33791018D01*
X86097373Y-33545007D01*
X85838450Y-33422107D01*
X85560526Y-33352083D01*
X85274281Y-33337624D01*
X84990715Y-33379286D01*
X84720725Y-33475468D01*
X84590627Y-33545007D01*
X84516624Y-33791018D01*
X83854698Y-33791018D01*
X83731508Y-33667828D01*
X83493201Y-33508596D01*
X83228408Y-33398915D01*
X82947305Y-33343000D01*
X82660695Y-33343000D01*
X82379592Y-33398915D01*
X82114799Y-33508596D01*
X81876492Y-33667828D01*
X81673828Y-33870492D01*
X81534000Y-34079759D01*
X81394172Y-33870492D01*
X81191508Y-33667828D01*
X80953201Y-33508596D01*
X80688408Y-33398915D01*
X80407305Y-33343000D01*
X80120695Y-33343000D01*
X79839592Y-33398915D01*
X79574799Y-33508596D01*
X79336492Y-33667828D01*
X79133828Y-33870492D01*
X78994000Y-34079759D01*
X78854172Y-33870492D01*
X78651508Y-33667828D01*
X78413201Y-33508596D01*
X78148408Y-33398915D01*
X77867305Y-33343000D01*
X77580695Y-33343000D01*
X77299592Y-33398915D01*
X77034799Y-33508596D01*
X76796492Y-33667828D01*
X76593828Y-33870492D01*
X76454000Y-34079759D01*
X76314172Y-33870492D01*
X76111508Y-33667828D01*
X75873201Y-33508596D01*
X75608408Y-33398915D01*
X75327305Y-33343000D01*
X75040695Y-33343000D01*
X74759592Y-33398915D01*
X74494799Y-33508596D01*
X74256492Y-33667828D01*
X74053828Y-33870492D01*
X73914984Y-34078286D01*
X73896993Y-34044627D01*
X73650982Y-33970624D01*
X72823605Y-34798000D01*
X73650982Y-35625376D01*
X73896993Y-35551373D01*
X73913806Y-35515951D01*
X74053828Y-35725508D01*
X74256492Y-35928172D01*
X74465759Y-36068000D01*
X74256492Y-36207828D01*
X74053828Y-36410492D01*
X73914000Y-36619759D01*
X73774172Y-36410492D01*
X73571508Y-36207828D01*
X73363714Y-36068984D01*
X73397373Y-36050993D01*
X73471376Y-35804982D01*
X72644000Y-34977605D01*
X71816624Y-35804982D01*
X71890627Y-36050993D01*
X71926049Y-36067806D01*
X71716492Y-36207828D01*
X71513828Y-36410492D01*
X71374000Y-36619759D01*
X71234172Y-36410492D01*
X71031508Y-36207828D01*
X70822241Y-36068000D01*
X71031508Y-35928172D01*
X71234172Y-35725508D01*
X71373016Y-35517714D01*
X71391007Y-35551373D01*
X71637018Y-35625376D01*
X72464395Y-34798000D01*
X71637018Y-33970624D01*
X71391007Y-34044627D01*
X71374194Y-34080049D01*
X71234172Y-33870492D01*
X71154698Y-33791018D01*
X71816624Y-33791018D01*
X72644000Y-34618395D01*
X73471376Y-33791018D01*
X73397373Y-33545007D01*
X73138450Y-33422107D01*
X72860526Y-33352083D01*
X72574281Y-33337624D01*
X72290715Y-33379286D01*
X72020725Y-33475468D01*
X71890627Y-33545007D01*
X71816624Y-33791018D01*
X71154698Y-33791018D01*
X71031508Y-33667828D01*
X70793201Y-33508596D01*
X70528408Y-33398915D01*
X70247305Y-33343000D01*
X69960695Y-33343000D01*
X69679592Y-33398915D01*
X69414799Y-33508596D01*
X69176492Y-33667828D01*
X68973828Y-33870492D01*
X68834984Y-34078286D01*
X68816993Y-34044627D01*
X68570982Y-33970624D01*
X67743605Y-34798000D01*
X68570982Y-35625376D01*
X68816993Y-35551373D01*
X68833806Y-35515951D01*
X68973828Y-35725508D01*
X69176492Y-35928172D01*
X69385759Y-36068000D01*
X69176492Y-36207828D01*
X68973828Y-36410492D01*
X68834000Y-36619759D01*
X68694172Y-36410492D01*
X68491508Y-36207828D01*
X68283714Y-36068984D01*
X68317373Y-36050993D01*
X68391376Y-35804982D01*
X67564000Y-34977605D01*
X66736624Y-35804982D01*
X66810627Y-36050993D01*
X66846049Y-36067806D01*
X66636492Y-36207828D01*
X66433828Y-36410492D01*
X66294000Y-36619759D01*
X66154172Y-36410492D01*
X65951508Y-36207828D01*
X65742241Y-36068000D01*
X65951508Y-35928172D01*
X66154172Y-35725508D01*
X66293016Y-35517714D01*
X66311007Y-35551373D01*
X66557018Y-35625376D01*
X67384395Y-34798000D01*
X66557018Y-33970624D01*
X66311007Y-34044627D01*
X66294194Y-34080049D01*
X66154172Y-33870492D01*
X66074698Y-33791018D01*
X66736624Y-33791018D01*
X67564000Y-34618395D01*
X68391376Y-33791018D01*
X68317373Y-33545007D01*
X68058450Y-33422107D01*
X67780526Y-33352083D01*
X67494281Y-33337624D01*
X67210715Y-33379286D01*
X66940725Y-33475468D01*
X66810627Y-33545007D01*
X66736624Y-33791018D01*
X66074698Y-33791018D01*
X65951508Y-33667828D01*
X65713201Y-33508596D01*
X65448408Y-33398915D01*
X65167305Y-33343000D01*
X64880695Y-33343000D01*
X64599592Y-33398915D01*
X64334799Y-33508596D01*
X64096492Y-33667828D01*
X63893828Y-33870492D01*
X63754000Y-34079759D01*
X63614172Y-33870492D01*
X63411508Y-33667828D01*
X63173201Y-33508596D01*
X62908408Y-33398915D01*
X62627305Y-33343000D01*
X62340695Y-33343000D01*
X62059592Y-33398915D01*
X61794799Y-33508596D01*
X61556492Y-33667828D01*
X61353828Y-33870492D01*
X61214000Y-34079759D01*
X61074172Y-33870492D01*
X60871508Y-33667828D01*
X60633201Y-33508596D01*
X60368408Y-33398915D01*
X60087305Y-33343000D01*
X59800695Y-33343000D01*
X59519592Y-33398915D01*
X59254799Y-33508596D01*
X59016492Y-33667828D01*
X58813828Y-33870492D01*
X58654596Y-34108799D01*
X58544915Y-34373592D01*
X58489000Y-34654695D01*
X57785000Y-34654695D01*
X57785000Y-33172000D01*
X110617000Y-33172000D01*
X110617000Y-87757000D01*
G37*
%TD.AperFunction*%
%TD*%
M02*
