M48
; DRILL file {KiCad 5.1.10-88a1d61d58~90~ubuntu20.04.1} date Mon Dec 20 21:33:19 2021
; FORMAT={-:-/ absolute / metric / decimal}
; #@! TF.CreationDate,2021-12-20T21:33:19+00:00
; #@! TF.GenerationSoftware,Kicad,Pcbnew,5.1.10-88a1d61d58~90~ubuntu20.04.1
; #@! TF.FileFunction,Plated,1,2,PTH
FMAT,2
METRIC
T1C1.000
T2C1.110
%
G90
G05
T1
X104.648Y-41.656
X104.648Y-44.196
T2
X59.944Y-34.798
X59.944Y-37.338
X62.484Y-34.798
X62.484Y-37.338
X65.024Y-34.798
X65.024Y-37.338
X67.564Y-34.798
X67.564Y-37.338
X70.104Y-34.798
X70.104Y-37.338
X72.644Y-34.798
X72.644Y-37.338
X75.184Y-34.798
X75.184Y-37.338
X77.724Y-34.798
X77.724Y-37.338
X80.264Y-34.798
X80.264Y-37.338
X82.804Y-34.798
X82.804Y-37.338
X85.344Y-34.798
X85.344Y-37.338
X87.884Y-34.798
X87.884Y-37.338
X90.424Y-34.798
X90.424Y-37.338
X92.964Y-34.798
X92.964Y-37.338
X95.504Y-34.798
X95.504Y-37.338
X98.044Y-34.798
X98.044Y-37.338
X100.584Y-34.798
X100.584Y-37.338
X103.124Y-34.798
X103.124Y-37.338
X105.664Y-34.798
X105.664Y-37.338
X108.204Y-34.798
X108.204Y-37.338
T1
G00X65.556Y-74.904
M15
G01X64.556Y-74.904
M16
G05
G00X65.556Y-80.404
M15
G01X64.556Y-80.404
M16
G05
G00X67.556Y-82.804
M15
G01X66.556Y-82.804
M16
G05
G00X76.478Y-74.904
M15
G01X75.478Y-74.904
M16
G05
G00X76.478Y-80.404
M15
G01X75.478Y-80.404
M16
G05
G00X78.478Y-82.804
M15
G01X77.478Y-82.804
M16
G05
G00X87.4Y-74.904
M15
G01X86.4Y-74.904
M16
G05
G00X87.4Y-80.404
M15
G01X86.4Y-80.404
M16
G05
G00X89.4Y-82.804
M15
G01X88.4Y-82.804
M16
G05
G00X98.322Y-74.904
M15
G01X97.322Y-74.904
M16
G05
G00X98.322Y-80.404
M15
G01X97.322Y-80.404
M16
G05
G00X100.322Y-82.804
M15
G01X99.322Y-82.804
M16
G05
T0
M30
