%TF.GenerationSoftware,KiCad,Pcbnew,5.1.10-88a1d61d58~90~ubuntu20.04.1*%
%TF.CreationDate,2022-01-13T19:57:23+00:00*%
%TF.ProjectId,RPi_shield,5250695f-7368-4696-956c-642e6b696361,rev?*%
%TF.SameCoordinates,Original*%
%TF.FileFunction,Other,Fab,Bot*%
%FSLAX46Y46*%
G04 Gerber Fmt 4.6, Leading zero omitted, Abs format (unit mm)*
G04 Created by KiCad (PCBNEW 5.1.10-88a1d61d58~90~ubuntu20.04.1) date 2022-01-13 19:57:23*
%MOMM*%
%LPD*%
G01*
G04 APERTURE LIST*
%ADD10C,0.150000*%
G04 APERTURE END LIST*
%TO.C,J1*%
D10*
X95745809Y-68920666D02*
X96222000Y-68920666D01*
X95650571Y-69206380D02*
X95983904Y-68206380D01*
X96317238Y-69206380D01*
X97079142Y-68539714D02*
X97079142Y-69206380D01*
X96650571Y-68539714D02*
X96650571Y-69063523D01*
X96698190Y-69158761D01*
X96793428Y-69206380D01*
X96936285Y-69206380D01*
X97031523Y-69158761D01*
X97079142Y-69111142D01*
X97983904Y-69206380D02*
X97983904Y-68206380D01*
X97983904Y-69158761D02*
X97888666Y-69206380D01*
X97698190Y-69206380D01*
X97602952Y-69158761D01*
X97555333Y-69111142D01*
X97507714Y-69015904D01*
X97507714Y-68730190D01*
X97555333Y-68634952D01*
X97602952Y-68587333D01*
X97698190Y-68539714D01*
X97888666Y-68539714D01*
X97983904Y-68587333D01*
X98460095Y-69206380D02*
X98460095Y-68539714D01*
X98460095Y-68206380D02*
X98412476Y-68254000D01*
X98460095Y-68301619D01*
X98507714Y-68254000D01*
X98460095Y-68206380D01*
X98460095Y-68301619D01*
X99079142Y-69206380D02*
X98983904Y-69158761D01*
X98936285Y-69111142D01*
X98888666Y-69015904D01*
X98888666Y-68730190D01*
X98936285Y-68634952D01*
X98983904Y-68587333D01*
X99079142Y-68539714D01*
X99222000Y-68539714D01*
X99317238Y-68587333D01*
X99364857Y-68634952D01*
X99412476Y-68730190D01*
X99412476Y-69015904D01*
X99364857Y-69111142D01*
X99317238Y-69158761D01*
X99222000Y-69206380D01*
X99079142Y-69206380D01*
X100126761Y-68206380D02*
X100126761Y-68920666D01*
X100079142Y-69063523D01*
X99983904Y-69158761D01*
X99841047Y-69206380D01*
X99745809Y-69206380D01*
X101031523Y-69206380D02*
X101031523Y-68682571D01*
X100983904Y-68587333D01*
X100888666Y-68539714D01*
X100698190Y-68539714D01*
X100602952Y-68587333D01*
X101031523Y-69158761D02*
X100936285Y-69206380D01*
X100698190Y-69206380D01*
X100602952Y-69158761D01*
X100555333Y-69063523D01*
X100555333Y-68968285D01*
X100602952Y-68873047D01*
X100698190Y-68825428D01*
X100936285Y-68825428D01*
X101031523Y-68777809D01*
X101936285Y-69158761D02*
X101841047Y-69206380D01*
X101650571Y-69206380D01*
X101555333Y-69158761D01*
X101507714Y-69111142D01*
X101460095Y-69015904D01*
X101460095Y-68730190D01*
X101507714Y-68634952D01*
X101555333Y-68587333D01*
X101650571Y-68539714D01*
X101841047Y-68539714D01*
X101936285Y-68587333D01*
X102364857Y-69206380D02*
X102364857Y-68206380D01*
X102460095Y-68825428D02*
X102745809Y-69206380D01*
X102745809Y-68539714D02*
X102364857Y-68920666D01*
X103079142Y-68206380D02*
X103698190Y-68206380D01*
X103364857Y-68587333D01*
X103507714Y-68587333D01*
X103602952Y-68634952D01*
X103650571Y-68682571D01*
X103698190Y-68777809D01*
X103698190Y-69015904D01*
X103650571Y-69111142D01*
X103602952Y-69158761D01*
X103507714Y-69206380D01*
X103222000Y-69206380D01*
X103126761Y-69158761D01*
X103079142Y-69111142D01*
%TD*%
M02*
