%TF.GenerationSoftware,KiCad,Pcbnew,5.1.10-88a1d61d58~90~ubuntu20.04.1*%
%TF.CreationDate,2022-01-13T19:57:23+00:00*%
%TF.ProjectId,RPi_shield,5250695f-7368-4696-956c-642e6b696361,rev?*%
%TF.SameCoordinates,Original*%
%TF.FileFunction,Legend,Bot*%
%TF.FilePolarity,Positive*%
%FSLAX46Y46*%
G04 Gerber Fmt 4.6, Leading zero omitted, Abs format (unit mm)*
G04 Created by KiCad (PCBNEW 5.1.10-88a1d61d58~90~ubuntu20.04.1) date 2022-01-13 19:57:23*
%MOMM*%
%LPD*%
G01*
G04 APERTURE LIST*
%ADD10C,0.250000*%
%ADD11C,0.150000*%
%ADD12C,0.300000*%
%ADD13C,0.010000*%
%ADD14C,0.120000*%
%ADD15C,0.100000*%
%ADD16C,0.254000*%
G04 APERTURE END LIST*
D10*
X55757142Y-53515428D02*
X55804761Y-53467809D01*
X55852380Y-53324952D01*
X55852380Y-53229714D01*
X55804761Y-53086857D01*
X55709523Y-52991619D01*
X55614285Y-52944000D01*
X55423809Y-52896380D01*
X55280952Y-52896380D01*
X55090476Y-52944000D01*
X54995238Y-52991619D01*
X54900000Y-53086857D01*
X54852380Y-53229714D01*
X54852380Y-53324952D01*
X54900000Y-53467809D01*
X54947619Y-53515428D01*
X55328571Y-53944000D02*
X55328571Y-54277333D01*
X55852380Y-54420190D02*
X55852380Y-53944000D01*
X54852380Y-53944000D01*
X54852380Y-54420190D01*
X55852380Y-55420190D02*
X55376190Y-55086857D01*
X55852380Y-54848761D02*
X54852380Y-54848761D01*
X54852380Y-55229714D01*
X54900000Y-55324952D01*
X54947619Y-55372571D01*
X55042857Y-55420190D01*
X55185714Y-55420190D01*
X55280952Y-55372571D01*
X55328571Y-55324952D01*
X55376190Y-55229714D01*
X55376190Y-54848761D01*
X55852380Y-55848761D02*
X54852380Y-55848761D01*
X55852380Y-56420190D01*
X54852380Y-56420190D01*
X54852380Y-57848761D02*
X54852380Y-58039238D01*
X54900000Y-58134476D01*
X54995238Y-58229714D01*
X55185714Y-58277333D01*
X55519047Y-58277333D01*
X55709523Y-58229714D01*
X55804761Y-58134476D01*
X55852380Y-58039238D01*
X55852380Y-57848761D01*
X55804761Y-57753523D01*
X55709523Y-57658285D01*
X55519047Y-57610666D01*
X55185714Y-57610666D01*
X54995238Y-57658285D01*
X54900000Y-57753523D01*
X54852380Y-57848761D01*
X55852380Y-58705904D02*
X54852380Y-58705904D01*
X55328571Y-58705904D02*
X55328571Y-59277333D01*
X55852380Y-59277333D02*
X54852380Y-59277333D01*
X55852380Y-60229714D02*
X55852380Y-59753523D01*
X54852380Y-59753523D01*
X55471428Y-60563047D02*
X55471428Y-61324952D01*
X55804761Y-61753523D02*
X55852380Y-61896380D01*
X55852380Y-62134476D01*
X55804761Y-62229714D01*
X55757142Y-62277333D01*
X55661904Y-62324952D01*
X55566666Y-62324952D01*
X55471428Y-62277333D01*
X55423809Y-62229714D01*
X55376190Y-62134476D01*
X55328571Y-61944000D01*
X55280952Y-61848761D01*
X55233333Y-61801142D01*
X55138095Y-61753523D01*
X55042857Y-61753523D01*
X54947619Y-61801142D01*
X54900000Y-61848761D01*
X54852380Y-61944000D01*
X54852380Y-62182095D01*
X54900000Y-62324952D01*
X55185714Y-63420190D02*
X55852380Y-63658285D01*
X55185714Y-63896380D01*
X54947619Y-64229714D02*
X54900000Y-64277333D01*
X54852380Y-64372571D01*
X54852380Y-64610666D01*
X54900000Y-64705904D01*
X54947619Y-64753523D01*
X55042857Y-64801142D01*
X55138095Y-64801142D01*
X55280952Y-64753523D01*
X55852380Y-64182095D01*
X55852380Y-64801142D01*
X55757142Y-65229714D02*
X55804761Y-65277333D01*
X55852380Y-65229714D01*
X55804761Y-65182095D01*
X55757142Y-65229714D01*
X55852380Y-65229714D01*
X54852380Y-65896380D02*
X54852380Y-65991619D01*
X54900000Y-66086857D01*
X54947619Y-66134476D01*
X55042857Y-66182095D01*
X55233333Y-66229714D01*
X55471428Y-66229714D01*
X55661904Y-66182095D01*
X55757142Y-66134476D01*
X55804761Y-66086857D01*
X55852380Y-65991619D01*
X55852380Y-65896380D01*
X55804761Y-65801142D01*
X55757142Y-65753523D01*
X55661904Y-65705904D01*
X55471428Y-65658285D01*
X55233333Y-65658285D01*
X55042857Y-65705904D01*
X54947619Y-65753523D01*
X54900000Y-65801142D01*
X54852380Y-65896380D01*
X57554761Y-50824952D02*
X57602380Y-50920190D01*
X57602380Y-51110666D01*
X57554761Y-51205904D01*
X57459523Y-51253523D01*
X57411904Y-51253523D01*
X57316666Y-51205904D01*
X57269047Y-51110666D01*
X57269047Y-50967809D01*
X57221428Y-50872571D01*
X57126190Y-50824952D01*
X57078571Y-50824952D01*
X56983333Y-50872571D01*
X56935714Y-50967809D01*
X56935714Y-51110666D01*
X56983333Y-51205904D01*
X57554761Y-52110666D02*
X57602380Y-52015428D01*
X57602380Y-51824952D01*
X57554761Y-51729714D01*
X57507142Y-51682095D01*
X57411904Y-51634476D01*
X57126190Y-51634476D01*
X57030952Y-51682095D01*
X56983333Y-51729714D01*
X56935714Y-51824952D01*
X56935714Y-52015428D01*
X56983333Y-52110666D01*
X57602380Y-52539238D02*
X56602380Y-52539238D01*
X57602380Y-52967809D02*
X57078571Y-52967809D01*
X56983333Y-52920190D01*
X56935714Y-52824952D01*
X56935714Y-52682095D01*
X56983333Y-52586857D01*
X57030952Y-52539238D01*
X57554761Y-53824952D02*
X57602380Y-53729714D01*
X57602380Y-53539238D01*
X57554761Y-53444000D01*
X57459523Y-53396380D01*
X57078571Y-53396380D01*
X56983333Y-53444000D01*
X56935714Y-53539238D01*
X56935714Y-53729714D01*
X56983333Y-53824952D01*
X57078571Y-53872571D01*
X57173809Y-53872571D01*
X57269047Y-53396380D01*
X57602380Y-54301142D02*
X56935714Y-54301142D01*
X57030952Y-54301142D02*
X56983333Y-54348761D01*
X56935714Y-54444000D01*
X56935714Y-54586857D01*
X56983333Y-54682095D01*
X57078571Y-54729714D01*
X57602380Y-54729714D01*
X57078571Y-54729714D02*
X56983333Y-54777333D01*
X56935714Y-54872571D01*
X56935714Y-55015428D01*
X56983333Y-55110666D01*
X57078571Y-55158285D01*
X57602380Y-55158285D01*
X57602380Y-56063047D02*
X57078571Y-56063047D01*
X56983333Y-56015428D01*
X56935714Y-55920190D01*
X56935714Y-55729714D01*
X56983333Y-55634476D01*
X57554761Y-56063047D02*
X57602380Y-55967809D01*
X57602380Y-55729714D01*
X57554761Y-55634476D01*
X57459523Y-55586857D01*
X57364285Y-55586857D01*
X57269047Y-55634476D01*
X57221428Y-55729714D01*
X57221428Y-55967809D01*
X57173809Y-56063047D01*
X56935714Y-56396380D02*
X56935714Y-56777333D01*
X56602380Y-56539238D02*
X57459523Y-56539238D01*
X57554761Y-56586857D01*
X57602380Y-56682095D01*
X57602380Y-56777333D01*
X57602380Y-57110666D02*
X56935714Y-57110666D01*
X56602380Y-57110666D02*
X56650000Y-57063047D01*
X56697619Y-57110666D01*
X56650000Y-57158285D01*
X56602380Y-57110666D01*
X56697619Y-57110666D01*
X57554761Y-58015428D02*
X57602380Y-57920190D01*
X57602380Y-57729714D01*
X57554761Y-57634476D01*
X57507142Y-57586857D01*
X57411904Y-57539238D01*
X57126190Y-57539238D01*
X57030952Y-57586857D01*
X56983333Y-57634476D01*
X56935714Y-57729714D01*
X56935714Y-57920190D01*
X56983333Y-58015428D01*
X57602380Y-59205904D02*
X56602380Y-59205904D01*
X56983333Y-59205904D02*
X56935714Y-59301142D01*
X56935714Y-59491619D01*
X56983333Y-59586857D01*
X57030952Y-59634476D01*
X57126190Y-59682095D01*
X57411904Y-59682095D01*
X57507142Y-59634476D01*
X57554761Y-59586857D01*
X57602380Y-59491619D01*
X57602380Y-59301142D01*
X57554761Y-59205904D01*
X56935714Y-60015428D02*
X57602380Y-60253523D01*
X56935714Y-60491619D02*
X57602380Y-60253523D01*
X57840476Y-60158285D01*
X57888095Y-60110666D01*
X57935714Y-60015428D01*
X56602380Y-61920190D02*
X57316666Y-61920190D01*
X57459523Y-61872571D01*
X57554761Y-61777333D01*
X57602380Y-61634476D01*
X57602380Y-61539238D01*
X57078571Y-63158285D02*
X57078571Y-63491619D01*
X57602380Y-63634476D02*
X57602380Y-63158285D01*
X56602380Y-63158285D01*
X56602380Y-63634476D01*
X57602380Y-64491619D02*
X57078571Y-64491619D01*
X56983333Y-64444000D01*
X56935714Y-64348761D01*
X56935714Y-64158285D01*
X56983333Y-64063047D01*
X57554761Y-64491619D02*
X57602380Y-64396380D01*
X57602380Y-64158285D01*
X57554761Y-64063047D01*
X57459523Y-64015428D01*
X57364285Y-64015428D01*
X57269047Y-64063047D01*
X57221428Y-64158285D01*
X57221428Y-64396380D01*
X57173809Y-64491619D01*
X57554761Y-64920190D02*
X57602380Y-65015428D01*
X57602380Y-65205904D01*
X57554761Y-65301142D01*
X57459523Y-65348761D01*
X57411904Y-65348761D01*
X57316666Y-65301142D01*
X57269047Y-65205904D01*
X57269047Y-65063047D01*
X57221428Y-64967809D01*
X57126190Y-64920190D01*
X57078571Y-64920190D01*
X56983333Y-64967809D01*
X56935714Y-65063047D01*
X56935714Y-65205904D01*
X56983333Y-65301142D01*
X56935714Y-65634476D02*
X56935714Y-66015428D01*
X56602380Y-65777333D02*
X57459523Y-65777333D01*
X57554761Y-65824952D01*
X57602380Y-65920190D01*
X57602380Y-66015428D01*
X57602380Y-66348761D02*
X56935714Y-66348761D01*
X57030952Y-66348761D02*
X56983333Y-66396380D01*
X56935714Y-66491619D01*
X56935714Y-66634476D01*
X56983333Y-66729714D01*
X57078571Y-66777333D01*
X57602380Y-66777333D01*
X57078571Y-66777333D02*
X56983333Y-66824952D01*
X56935714Y-66920190D01*
X56935714Y-67063047D01*
X56983333Y-67158285D01*
X57078571Y-67205904D01*
X57602380Y-67205904D01*
X57602380Y-68110666D02*
X57078571Y-68110666D01*
X56983333Y-68063047D01*
X56935714Y-67967809D01*
X56935714Y-67777333D01*
X56983333Y-67682095D01*
X57554761Y-68110666D02*
X57602380Y-68015428D01*
X57602380Y-67777333D01*
X57554761Y-67682095D01*
X57459523Y-67634476D01*
X57364285Y-67634476D01*
X57269047Y-67682095D01*
X57221428Y-67777333D01*
X57221428Y-68015428D01*
X57173809Y-68110666D01*
X56935714Y-68586857D02*
X57602380Y-68586857D01*
X57030952Y-68586857D02*
X56983333Y-68634476D01*
X56935714Y-68729714D01*
X56935714Y-68872571D01*
X56983333Y-68967809D01*
X57078571Y-69015428D01*
X57602380Y-69015428D01*
X58828571Y-49848761D02*
X58876190Y-49991619D01*
X58923809Y-50039238D01*
X59019047Y-50086857D01*
X59161904Y-50086857D01*
X59257142Y-50039238D01*
X59304761Y-49991619D01*
X59352380Y-49896380D01*
X59352380Y-49515428D01*
X58352380Y-49515428D01*
X58352380Y-49848761D01*
X58400000Y-49944000D01*
X58447619Y-49991619D01*
X58542857Y-50039238D01*
X58638095Y-50039238D01*
X58733333Y-49991619D01*
X58780952Y-49944000D01*
X58828571Y-49848761D01*
X58828571Y-49515428D01*
X59352380Y-50658285D02*
X59304761Y-50563047D01*
X59257142Y-50515428D01*
X59161904Y-50467809D01*
X58876190Y-50467809D01*
X58780952Y-50515428D01*
X58733333Y-50563047D01*
X58685714Y-50658285D01*
X58685714Y-50801142D01*
X58733333Y-50896380D01*
X58780952Y-50944000D01*
X58876190Y-50991619D01*
X59161904Y-50991619D01*
X59257142Y-50944000D01*
X59304761Y-50896380D01*
X59352380Y-50801142D01*
X59352380Y-50658285D01*
X59352380Y-51848761D02*
X58828571Y-51848761D01*
X58733333Y-51801142D01*
X58685714Y-51705904D01*
X58685714Y-51515428D01*
X58733333Y-51420190D01*
X59304761Y-51848761D02*
X59352380Y-51753523D01*
X59352380Y-51515428D01*
X59304761Y-51420190D01*
X59209523Y-51372571D01*
X59114285Y-51372571D01*
X59019047Y-51420190D01*
X58971428Y-51515428D01*
X58971428Y-51753523D01*
X58923809Y-51848761D01*
X59352380Y-52324952D02*
X58685714Y-52324952D01*
X58876190Y-52324952D02*
X58780952Y-52372571D01*
X58733333Y-52420190D01*
X58685714Y-52515428D01*
X58685714Y-52610666D01*
X59352380Y-53372571D02*
X58352380Y-53372571D01*
X59304761Y-53372571D02*
X59352380Y-53277333D01*
X59352380Y-53086857D01*
X59304761Y-52991619D01*
X59257142Y-52944000D01*
X59161904Y-52896380D01*
X58876190Y-52896380D01*
X58780952Y-52944000D01*
X58733333Y-52991619D01*
X58685714Y-53086857D01*
X58685714Y-53277333D01*
X58733333Y-53372571D01*
X59352380Y-55039238D02*
X58352380Y-55039238D01*
X59304761Y-55039238D02*
X59352380Y-54943999D01*
X59352380Y-54753523D01*
X59304761Y-54658285D01*
X59257142Y-54610666D01*
X59161904Y-54563047D01*
X58876190Y-54563047D01*
X58780952Y-54610666D01*
X58733333Y-54658285D01*
X58685714Y-54753523D01*
X58685714Y-54943999D01*
X58733333Y-55039238D01*
X59304761Y-55896380D02*
X59352380Y-55801142D01*
X59352380Y-55610666D01*
X59304761Y-55515428D01*
X59209523Y-55467809D01*
X58828571Y-55467809D01*
X58733333Y-55515428D01*
X58685714Y-55610666D01*
X58685714Y-55801142D01*
X58733333Y-55896380D01*
X58828571Y-55943999D01*
X58923809Y-55943999D01*
X59019047Y-55467809D01*
X59304761Y-56324952D02*
X59352380Y-56420190D01*
X59352380Y-56610666D01*
X59304761Y-56705904D01*
X59209523Y-56753523D01*
X59161904Y-56753523D01*
X59066666Y-56705904D01*
X59019047Y-56610666D01*
X59019047Y-56467809D01*
X58971428Y-56372571D01*
X58876190Y-56324952D01*
X58828571Y-56324952D01*
X58733333Y-56372571D01*
X58685714Y-56467809D01*
X58685714Y-56610666D01*
X58733333Y-56705904D01*
X59352380Y-57182095D02*
X58685714Y-57182095D01*
X58352380Y-57182095D02*
X58400000Y-57134476D01*
X58447619Y-57182095D01*
X58400000Y-57229714D01*
X58352380Y-57182095D01*
X58447619Y-57182095D01*
X58685714Y-58086857D02*
X59495238Y-58086857D01*
X59590476Y-58039238D01*
X59638095Y-57991619D01*
X59685714Y-57896380D01*
X59685714Y-57753523D01*
X59638095Y-57658285D01*
X59304761Y-58086857D02*
X59352380Y-57991619D01*
X59352380Y-57801142D01*
X59304761Y-57705904D01*
X59257142Y-57658285D01*
X59161904Y-57610666D01*
X58876190Y-57610666D01*
X58780952Y-57658285D01*
X58733333Y-57705904D01*
X58685714Y-57801142D01*
X58685714Y-57991619D01*
X58733333Y-58086857D01*
X58685714Y-58563047D02*
X59352380Y-58563047D01*
X58780952Y-58563047D02*
X58733333Y-58610666D01*
X58685714Y-58705904D01*
X58685714Y-58848761D01*
X58733333Y-58943999D01*
X58828571Y-58991619D01*
X59352380Y-58991619D01*
X59352380Y-60229714D02*
X58352380Y-60229714D01*
X58733333Y-60229714D02*
X58685714Y-60324952D01*
X58685714Y-60515428D01*
X58733333Y-60610666D01*
X58780952Y-60658285D01*
X58876190Y-60705904D01*
X59161904Y-60705904D01*
X59257142Y-60658285D01*
X59304761Y-60610666D01*
X59352380Y-60515428D01*
X59352380Y-60324952D01*
X59304761Y-60229714D01*
X58685714Y-61039238D02*
X59352380Y-61277333D01*
X58685714Y-61515428D02*
X59352380Y-61277333D01*
X59590476Y-61182095D01*
X59638095Y-61134476D01*
X59685714Y-61039238D01*
X59066666Y-62610666D02*
X59066666Y-63086857D01*
X59352380Y-62515428D02*
X58352380Y-62848761D01*
X59352380Y-63182095D01*
X59352380Y-63515428D02*
X58352380Y-63515428D01*
X59066666Y-63848761D01*
X58352380Y-64182095D01*
X59352380Y-64182095D01*
X59257142Y-65991619D02*
X59304761Y-65943999D01*
X59352380Y-65801142D01*
X59352380Y-65705904D01*
X59304761Y-65563047D01*
X59209523Y-65467809D01*
X59114285Y-65420190D01*
X58923809Y-65372571D01*
X58780952Y-65372571D01*
X58590476Y-65420190D01*
X58495238Y-65467809D01*
X58400000Y-65563047D01*
X58352380Y-65705904D01*
X58352380Y-65801142D01*
X58400000Y-65943999D01*
X58447619Y-65991619D01*
X59352380Y-66420190D02*
X58352380Y-66420190D01*
X59352380Y-66848761D02*
X58828571Y-66848761D01*
X58733333Y-66801142D01*
X58685714Y-66705904D01*
X58685714Y-66563047D01*
X58733333Y-66467809D01*
X58780952Y-66420190D01*
X59352380Y-67753523D02*
X58828571Y-67753523D01*
X58733333Y-67705904D01*
X58685714Y-67610666D01*
X58685714Y-67420190D01*
X58733333Y-67324952D01*
X59304761Y-67753523D02*
X59352380Y-67658285D01*
X59352380Y-67420190D01*
X59304761Y-67324952D01*
X59209523Y-67277333D01*
X59114285Y-67277333D01*
X59019047Y-67324952D01*
X58971428Y-67420190D01*
X58971428Y-67658285D01*
X58923809Y-67753523D01*
X58685714Y-68658285D02*
X59495238Y-68658285D01*
X59590476Y-68610666D01*
X59638095Y-68563047D01*
X59685714Y-68467809D01*
X59685714Y-68324952D01*
X59638095Y-68229714D01*
X59304761Y-68658285D02*
X59352380Y-68563047D01*
X59352380Y-68372571D01*
X59304761Y-68277333D01*
X59257142Y-68229714D01*
X59161904Y-68182095D01*
X58876190Y-68182095D01*
X58780952Y-68229714D01*
X58733333Y-68277333D01*
X58685714Y-68372571D01*
X58685714Y-68563047D01*
X58733333Y-68658285D01*
X59352380Y-69563047D02*
X58828571Y-69563047D01*
X58733333Y-69515428D01*
X58685714Y-69420190D01*
X58685714Y-69229714D01*
X58733333Y-69134476D01*
X59304761Y-69563047D02*
X59352380Y-69467809D01*
X59352380Y-69229714D01*
X59304761Y-69134476D01*
X59209523Y-69086857D01*
X59114285Y-69086857D01*
X59019047Y-69134476D01*
X58971428Y-69229714D01*
X58971428Y-69467809D01*
X58923809Y-69563047D01*
X59304761Y-69991619D02*
X59352380Y-70086857D01*
X59352380Y-70277333D01*
X59304761Y-70372571D01*
X59209523Y-70420190D01*
X59161904Y-70420190D01*
X59066666Y-70372571D01*
X59019047Y-70277333D01*
X59019047Y-70134476D01*
X58971428Y-70039238D01*
X58876190Y-69991619D01*
X58828571Y-69991619D01*
X58733333Y-70039238D01*
X58685714Y-70134476D01*
X58685714Y-70277333D01*
X58733333Y-70372571D01*
D11*
X101853904Y-43696000D02*
X101949142Y-43648380D01*
X102092000Y-43648380D01*
X102234857Y-43696000D01*
X102330095Y-43791238D01*
X102377714Y-43886476D01*
X102425333Y-44076952D01*
X102425333Y-44219809D01*
X102377714Y-44410285D01*
X102330095Y-44505523D01*
X102234857Y-44600761D01*
X102092000Y-44648380D01*
X101996761Y-44648380D01*
X101853904Y-44600761D01*
X101806285Y-44553142D01*
X101806285Y-44219809D01*
X101996761Y-44219809D01*
X101377714Y-44648380D02*
X101377714Y-43648380D01*
X100806285Y-44648380D01*
X100806285Y-43648380D01*
X100330095Y-44648380D02*
X100330095Y-43648380D01*
X100092000Y-43648380D01*
X99949142Y-43696000D01*
X99853904Y-43791238D01*
X99806285Y-43886476D01*
X99758666Y-44076952D01*
X99758666Y-44219809D01*
X99806285Y-44410285D01*
X99853904Y-44505523D01*
X99949142Y-44600761D01*
X100092000Y-44648380D01*
X100330095Y-44648380D01*
X102123714Y-41727428D02*
X101361809Y-41727428D01*
X101742761Y-42108380D02*
X101742761Y-41346476D01*
X100409428Y-41108380D02*
X100885619Y-41108380D01*
X100933238Y-41584571D01*
X100885619Y-41536952D01*
X100790380Y-41489333D01*
X100552285Y-41489333D01*
X100457047Y-41536952D01*
X100409428Y-41584571D01*
X100361809Y-41679809D01*
X100361809Y-41917904D01*
X100409428Y-42013142D01*
X100457047Y-42060761D01*
X100552285Y-42108380D01*
X100790380Y-42108380D01*
X100885619Y-42060761D01*
X100933238Y-42013142D01*
X100076095Y-41108380D02*
X99742761Y-42108380D01*
X99409428Y-41108380D01*
D12*
X111647857Y-61774857D02*
X111647857Y-61274857D01*
X112433571Y-61274857D02*
X110933571Y-61274857D01*
X110933571Y-61989142D01*
X111647857Y-62560571D02*
X111647857Y-63060571D01*
X112433571Y-63274857D02*
X112433571Y-62560571D01*
X110933571Y-62560571D01*
X110933571Y-63274857D01*
X112433571Y-63917714D02*
X110933571Y-63917714D01*
X110933571Y-64274857D01*
X111005000Y-64489142D01*
X111147857Y-64632000D01*
X111290714Y-64703428D01*
X111576428Y-64774857D01*
X111790714Y-64774857D01*
X112076428Y-64703428D01*
X112219285Y-64632000D01*
X112362142Y-64489142D01*
X112433571Y-64274857D01*
X112433571Y-63917714D01*
X110933571Y-65274857D02*
X112433571Y-65632000D01*
X111362142Y-65917714D01*
X112433571Y-66203428D01*
X110933571Y-66560571D01*
X112433571Y-67774857D02*
X111647857Y-67774857D01*
X111505000Y-67703428D01*
X111433571Y-67560571D01*
X111433571Y-67274857D01*
X111505000Y-67132000D01*
X112362142Y-67774857D02*
X112433571Y-67632000D01*
X112433571Y-67274857D01*
X112362142Y-67132000D01*
X112219285Y-67060571D01*
X112076428Y-67060571D01*
X111933571Y-67132000D01*
X111862142Y-67274857D01*
X111862142Y-67632000D01*
X111790714Y-67774857D01*
X111433571Y-68274857D02*
X111433571Y-68846285D01*
X110933571Y-68489142D02*
X112219285Y-68489142D01*
X112362142Y-68560571D01*
X112433571Y-68703428D01*
X112433571Y-68846285D01*
X112362142Y-69989142D02*
X112433571Y-69846285D01*
X112433571Y-69560571D01*
X112362142Y-69417714D01*
X112290714Y-69346285D01*
X112147857Y-69274857D01*
X111719285Y-69274857D01*
X111576428Y-69346285D01*
X111505000Y-69417714D01*
X111433571Y-69560571D01*
X111433571Y-69846285D01*
X111505000Y-69989142D01*
X112433571Y-70632000D02*
X110933571Y-70632000D01*
X112433571Y-71274857D02*
X111647857Y-71274857D01*
X111505000Y-71203428D01*
X111433571Y-71060571D01*
X111433571Y-70846285D01*
X111505000Y-70703428D01*
X111576428Y-70632000D01*
X112362142Y-72560571D02*
X112433571Y-72417714D01*
X112433571Y-72132000D01*
X112362142Y-71989142D01*
X112219285Y-71917714D01*
X111647857Y-71917714D01*
X111505000Y-71989142D01*
X111433571Y-72132000D01*
X111433571Y-72417714D01*
X111505000Y-72560571D01*
X111647857Y-72632000D01*
X111790714Y-72632000D01*
X111933571Y-71917714D01*
X112433571Y-73274857D02*
X111433571Y-73274857D01*
X111719285Y-73274857D02*
X111576428Y-73346285D01*
X111505000Y-73417714D01*
X111433571Y-73560571D01*
X111433571Y-73703428D01*
X112362142Y-75274857D02*
X112433571Y-75417714D01*
X112433571Y-75703428D01*
X112362142Y-75846285D01*
X112219285Y-75917714D01*
X112147857Y-75917714D01*
X112005000Y-75846285D01*
X111933571Y-75703428D01*
X111933571Y-75489142D01*
X111862142Y-75346285D01*
X111719285Y-75274857D01*
X111647857Y-75274857D01*
X111505000Y-75346285D01*
X111433571Y-75489142D01*
X111433571Y-75703428D01*
X111505000Y-75846285D01*
X112433571Y-76560571D02*
X110933571Y-76560571D01*
X112433571Y-77203428D02*
X111647857Y-77203428D01*
X111505000Y-77132000D01*
X111433571Y-76989142D01*
X111433571Y-76774857D01*
X111505000Y-76632000D01*
X111576428Y-76560571D01*
X112433571Y-77917714D02*
X111433571Y-77917714D01*
X110933571Y-77917714D02*
X111005000Y-77846285D01*
X111076428Y-77917714D01*
X111005000Y-77989142D01*
X110933571Y-77917714D01*
X111076428Y-77917714D01*
X112362142Y-79203428D02*
X112433571Y-79060571D01*
X112433571Y-78774857D01*
X112362142Y-78632000D01*
X112219285Y-78560571D01*
X111647857Y-78560571D01*
X111505000Y-78632000D01*
X111433571Y-78774857D01*
X111433571Y-79060571D01*
X111505000Y-79203428D01*
X111647857Y-79274857D01*
X111790714Y-79274857D01*
X111933571Y-78560571D01*
X112433571Y-80132000D02*
X112362142Y-79989142D01*
X112219285Y-79917714D01*
X110933571Y-79917714D01*
X112433571Y-81346285D02*
X110933571Y-81346285D01*
X112362142Y-81346285D02*
X112433571Y-81203428D01*
X112433571Y-80917714D01*
X112362142Y-80774857D01*
X112290714Y-80703428D01*
X112147857Y-80632000D01*
X111719285Y-80632000D01*
X111576428Y-80703428D01*
X111505000Y-80774857D01*
X111433571Y-80917714D01*
X111433571Y-81203428D01*
X111505000Y-81346285D01*
X113983571Y-69739142D02*
X114983571Y-70096285D01*
X113983571Y-70453428D01*
X113483571Y-71310571D02*
X113483571Y-71453428D01*
X113555000Y-71596285D01*
X113626428Y-71667714D01*
X113769285Y-71739142D01*
X114055000Y-71810571D01*
X114412142Y-71810571D01*
X114697857Y-71739142D01*
X114840714Y-71667714D01*
X114912142Y-71596285D01*
X114983571Y-71453428D01*
X114983571Y-71310571D01*
X114912142Y-71167714D01*
X114840714Y-71096285D01*
X114697857Y-71024857D01*
X114412142Y-70953428D01*
X114055000Y-70953428D01*
X113769285Y-71024857D01*
X113626428Y-71096285D01*
X113555000Y-71167714D01*
X113483571Y-71310571D01*
X114840714Y-72453428D02*
X114912142Y-72524857D01*
X114983571Y-72453428D01*
X114912142Y-72382000D01*
X114840714Y-72453428D01*
X114983571Y-72453428D01*
X114983571Y-73953428D02*
X114983571Y-73096285D01*
X114983571Y-73524857D02*
X113483571Y-73524857D01*
X113697857Y-73382000D01*
X113840714Y-73239142D01*
X113912142Y-73096285D01*
D11*
X101480761Y-68365714D02*
X101480761Y-69175238D01*
X101528380Y-69270476D01*
X101576000Y-69318095D01*
X101671238Y-69365714D01*
X101814095Y-69365714D01*
X101909333Y-69318095D01*
X101480761Y-68984761D02*
X101576000Y-69032380D01*
X101766476Y-69032380D01*
X101861714Y-68984761D01*
X101909333Y-68937142D01*
X101956952Y-68841904D01*
X101956952Y-68556190D01*
X101909333Y-68460952D01*
X101861714Y-68413333D01*
X101766476Y-68365714D01*
X101576000Y-68365714D01*
X101480761Y-68413333D01*
X101004571Y-68365714D02*
X101004571Y-69365714D01*
X101004571Y-68413333D02*
X100909333Y-68365714D01*
X100718857Y-68365714D01*
X100623619Y-68413333D01*
X100576000Y-68460952D01*
X100528380Y-68556190D01*
X100528380Y-68841904D01*
X100576000Y-68937142D01*
X100623619Y-68984761D01*
X100718857Y-69032380D01*
X100909333Y-69032380D01*
X101004571Y-68984761D01*
X100099809Y-69032380D02*
X100099809Y-68365714D01*
X100099809Y-68032380D02*
X100147428Y-68080000D01*
X100099809Y-68127619D01*
X100052190Y-68080000D01*
X100099809Y-68032380D01*
X100099809Y-68127619D01*
X99480761Y-69032380D02*
X99576000Y-68984761D01*
X99623619Y-68937142D01*
X99671238Y-68841904D01*
X99671238Y-68556190D01*
X99623619Y-68460952D01*
X99576000Y-68413333D01*
X99480761Y-68365714D01*
X99337904Y-68365714D01*
X99242666Y-68413333D01*
X99195047Y-68460952D01*
X99147428Y-68556190D01*
X99147428Y-68841904D01*
X99195047Y-68937142D01*
X99242666Y-68984761D01*
X99337904Y-69032380D01*
X99480761Y-69032380D01*
X98671238Y-69032380D02*
X98480761Y-69032380D01*
X98385523Y-68984761D01*
X98337904Y-68937142D01*
X98242666Y-68794285D01*
X98195047Y-68603809D01*
X98195047Y-68222857D01*
X98242666Y-68127619D01*
X98290285Y-68080000D01*
X98385523Y-68032380D01*
X98576000Y-68032380D01*
X98671238Y-68080000D01*
X98718857Y-68127619D01*
X98766476Y-68222857D01*
X98766476Y-68460952D01*
X98718857Y-68556190D01*
X98671238Y-68603809D01*
X98576000Y-68651428D01*
X98385523Y-68651428D01*
X98290285Y-68603809D01*
X98242666Y-68556190D01*
X98195047Y-68460952D01*
X69190952Y-68365714D02*
X69190952Y-69175238D01*
X69238571Y-69270476D01*
X69286190Y-69318095D01*
X69381428Y-69365714D01*
X69524285Y-69365714D01*
X69619523Y-69318095D01*
X69190952Y-68984761D02*
X69286190Y-69032380D01*
X69476666Y-69032380D01*
X69571904Y-68984761D01*
X69619523Y-68937142D01*
X69667142Y-68841904D01*
X69667142Y-68556190D01*
X69619523Y-68460952D01*
X69571904Y-68413333D01*
X69476666Y-68365714D01*
X69286190Y-68365714D01*
X69190952Y-68413333D01*
X68714761Y-68365714D02*
X68714761Y-69365714D01*
X68714761Y-68413333D02*
X68619523Y-68365714D01*
X68429047Y-68365714D01*
X68333809Y-68413333D01*
X68286190Y-68460952D01*
X68238571Y-68556190D01*
X68238571Y-68841904D01*
X68286190Y-68937142D01*
X68333809Y-68984761D01*
X68429047Y-69032380D01*
X68619523Y-69032380D01*
X68714761Y-68984761D01*
X67810000Y-69032380D02*
X67810000Y-68365714D01*
X67810000Y-68032380D02*
X67857619Y-68080000D01*
X67810000Y-68127619D01*
X67762380Y-68080000D01*
X67810000Y-68032380D01*
X67810000Y-68127619D01*
X67190952Y-69032380D02*
X67286190Y-68984761D01*
X67333809Y-68937142D01*
X67381428Y-68841904D01*
X67381428Y-68556190D01*
X67333809Y-68460952D01*
X67286190Y-68413333D01*
X67190952Y-68365714D01*
X67048095Y-68365714D01*
X66952857Y-68413333D01*
X66905238Y-68460952D01*
X66857619Y-68556190D01*
X66857619Y-68841904D01*
X66905238Y-68937142D01*
X66952857Y-68984761D01*
X67048095Y-69032380D01*
X67190952Y-69032380D01*
X65905238Y-69032380D02*
X66476666Y-69032380D01*
X66190952Y-69032380D02*
X66190952Y-68032380D01*
X66286190Y-68175238D01*
X66381428Y-68270476D01*
X66476666Y-68318095D01*
X65571904Y-68032380D02*
X64952857Y-68032380D01*
X65286190Y-68413333D01*
X65143333Y-68413333D01*
X65048095Y-68460952D01*
X65000476Y-68508571D01*
X64952857Y-68603809D01*
X64952857Y-68841904D01*
X65000476Y-68937142D01*
X65048095Y-68984761D01*
X65143333Y-69032380D01*
X65429047Y-69032380D01*
X65524285Y-68984761D01*
X65571904Y-68937142D01*
X79382761Y-68365714D02*
X79382761Y-69175238D01*
X79430380Y-69270476D01*
X79478000Y-69318095D01*
X79573238Y-69365714D01*
X79716095Y-69365714D01*
X79811333Y-69318095D01*
X79382761Y-68984761D02*
X79478000Y-69032380D01*
X79668476Y-69032380D01*
X79763714Y-68984761D01*
X79811333Y-68937142D01*
X79858952Y-68841904D01*
X79858952Y-68556190D01*
X79811333Y-68460952D01*
X79763714Y-68413333D01*
X79668476Y-68365714D01*
X79478000Y-68365714D01*
X79382761Y-68413333D01*
X78906571Y-68365714D02*
X78906571Y-69365714D01*
X78906571Y-68413333D02*
X78811333Y-68365714D01*
X78620857Y-68365714D01*
X78525619Y-68413333D01*
X78478000Y-68460952D01*
X78430380Y-68556190D01*
X78430380Y-68841904D01*
X78478000Y-68937142D01*
X78525619Y-68984761D01*
X78620857Y-69032380D01*
X78811333Y-69032380D01*
X78906571Y-68984761D01*
X78001809Y-69032380D02*
X78001809Y-68365714D01*
X78001809Y-68032380D02*
X78049428Y-68080000D01*
X78001809Y-68127619D01*
X77954190Y-68080000D01*
X78001809Y-68032380D01*
X78001809Y-68127619D01*
X77382761Y-69032380D02*
X77478000Y-68984761D01*
X77525619Y-68937142D01*
X77573238Y-68841904D01*
X77573238Y-68556190D01*
X77525619Y-68460952D01*
X77478000Y-68413333D01*
X77382761Y-68365714D01*
X77239904Y-68365714D01*
X77144666Y-68413333D01*
X77097047Y-68460952D01*
X77049428Y-68556190D01*
X77049428Y-68841904D01*
X77097047Y-68937142D01*
X77144666Y-68984761D01*
X77239904Y-69032380D01*
X77382761Y-69032380D01*
X76144666Y-68032380D02*
X76620857Y-68032380D01*
X76668476Y-68508571D01*
X76620857Y-68460952D01*
X76525619Y-68413333D01*
X76287523Y-68413333D01*
X76192285Y-68460952D01*
X76144666Y-68508571D01*
X76097047Y-68603809D01*
X76097047Y-68841904D01*
X76144666Y-68937142D01*
X76192285Y-68984761D01*
X76287523Y-69032380D01*
X76525619Y-69032380D01*
X76620857Y-68984761D01*
X76668476Y-68937142D01*
X90558761Y-68365714D02*
X90558761Y-69175238D01*
X90606380Y-69270476D01*
X90654000Y-69318095D01*
X90749238Y-69365714D01*
X90892095Y-69365714D01*
X90987333Y-69318095D01*
X90558761Y-68984761D02*
X90654000Y-69032380D01*
X90844476Y-69032380D01*
X90939714Y-68984761D01*
X90987333Y-68937142D01*
X91034952Y-68841904D01*
X91034952Y-68556190D01*
X90987333Y-68460952D01*
X90939714Y-68413333D01*
X90844476Y-68365714D01*
X90654000Y-68365714D01*
X90558761Y-68413333D01*
X90082571Y-68365714D02*
X90082571Y-69365714D01*
X90082571Y-68413333D02*
X89987333Y-68365714D01*
X89796857Y-68365714D01*
X89701619Y-68413333D01*
X89654000Y-68460952D01*
X89606380Y-68556190D01*
X89606380Y-68841904D01*
X89654000Y-68937142D01*
X89701619Y-68984761D01*
X89796857Y-69032380D01*
X89987333Y-69032380D01*
X90082571Y-68984761D01*
X89177809Y-69032380D02*
X89177809Y-68365714D01*
X89177809Y-68032380D02*
X89225428Y-68080000D01*
X89177809Y-68127619D01*
X89130190Y-68080000D01*
X89177809Y-68032380D01*
X89177809Y-68127619D01*
X88558761Y-69032380D02*
X88654000Y-68984761D01*
X88701619Y-68937142D01*
X88749238Y-68841904D01*
X88749238Y-68556190D01*
X88701619Y-68460952D01*
X88654000Y-68413333D01*
X88558761Y-68365714D01*
X88415904Y-68365714D01*
X88320666Y-68413333D01*
X88273047Y-68460952D01*
X88225428Y-68556190D01*
X88225428Y-68841904D01*
X88273047Y-68937142D01*
X88320666Y-68984761D01*
X88415904Y-69032380D01*
X88558761Y-69032380D01*
X87273047Y-69032380D02*
X87844476Y-69032380D01*
X87558761Y-69032380D02*
X87558761Y-68032380D01*
X87654000Y-68175238D01*
X87749238Y-68270476D01*
X87844476Y-68318095D01*
D13*
%TO.C,G\u002A\u002A\u002A*%
G36*
X94547449Y-45291644D02*
G01*
X94580424Y-45687238D01*
X94633716Y-45666598D01*
X94670048Y-45506899D01*
X94853596Y-45128457D01*
X95056271Y-45022577D01*
X95320407Y-45205528D01*
X95442495Y-45506899D01*
X95515267Y-45848626D01*
X95547747Y-45772410D01*
X95565093Y-45521870D01*
X95767121Y-45098479D01*
X96045350Y-44983734D01*
X96335317Y-44869514D01*
X96332356Y-44753509D01*
X96027182Y-44648710D01*
X95480452Y-44594242D01*
X95343277Y-44592068D01*
X94808326Y-44617485D01*
X94581871Y-44765082D01*
X94542163Y-45141882D01*
X94547449Y-45291644D01*
G37*
X94547449Y-45291644D02*
X94580424Y-45687238D01*
X94633716Y-45666598D01*
X94670048Y-45506899D01*
X94853596Y-45128457D01*
X95056271Y-45022577D01*
X95320407Y-45205528D01*
X95442495Y-45506899D01*
X95515267Y-45848626D01*
X95547747Y-45772410D01*
X95565093Y-45521870D01*
X95767121Y-45098479D01*
X96045350Y-44983734D01*
X96335317Y-44869514D01*
X96332356Y-44753509D01*
X96027182Y-44648710D01*
X95480452Y-44594242D01*
X95343277Y-44592068D01*
X94808326Y-44617485D01*
X94581871Y-44765082D01*
X94542163Y-45141882D01*
X94547449Y-45291644D01*
G36*
X94547449Y-47013678D02*
G01*
X94580424Y-47409272D01*
X94633716Y-47388632D01*
X94670048Y-47228933D01*
X94853596Y-46850491D01*
X95056271Y-46744611D01*
X95320407Y-46927562D01*
X95442495Y-47228933D01*
X95535779Y-47713255D01*
X95565093Y-47228933D01*
X95683385Y-46836907D01*
X95879823Y-46767771D01*
X96016272Y-47037688D01*
X96024915Y-47175119D01*
X96115058Y-47524900D01*
X96240169Y-47605627D01*
X96394834Y-47428574D01*
X96453490Y-47033981D01*
X96403334Y-46626700D01*
X96311921Y-46457605D01*
X96021242Y-46364658D01*
X95483493Y-46316129D01*
X95343277Y-46314102D01*
X94808326Y-46339518D01*
X94581871Y-46487116D01*
X94542163Y-46863916D01*
X94547449Y-47013678D01*
G37*
X94547449Y-47013678D02*
X94580424Y-47409272D01*
X94633716Y-47388632D01*
X94670048Y-47228933D01*
X94853596Y-46850491D01*
X95056271Y-46744611D01*
X95320407Y-46927562D01*
X95442495Y-47228933D01*
X95535779Y-47713255D01*
X95565093Y-47228933D01*
X95683385Y-46836907D01*
X95879823Y-46767771D01*
X96016272Y-47037688D01*
X96024915Y-47175119D01*
X96115058Y-47524900D01*
X96240169Y-47605627D01*
X96394834Y-47428574D01*
X96453490Y-47033981D01*
X96403334Y-46626700D01*
X96311921Y-46457605D01*
X96021242Y-46364658D01*
X95483493Y-46316129D01*
X95343277Y-46314102D01*
X94808326Y-46339518D01*
X94581871Y-46487116D01*
X94542163Y-46863916D01*
X94547449Y-47013678D01*
G36*
X94557651Y-48843339D02*
G01*
X94667046Y-49248908D01*
X94960635Y-49436570D01*
X95404900Y-49500423D01*
X95945415Y-49500438D01*
X96212226Y-49333366D01*
X96316792Y-49069914D01*
X96421596Y-48584342D01*
X96336867Y-48342781D01*
X95974878Y-48260183D01*
X95499483Y-48251863D01*
X95499483Y-48466644D01*
X95906300Y-48600074D01*
X96028818Y-48893748D01*
X95826295Y-49187748D01*
X95699293Y-49250872D01*
X95327866Y-49243015D01*
X94982243Y-49043338D01*
X94826366Y-48767206D01*
X94856091Y-48657509D01*
X95139944Y-48510064D01*
X95499483Y-48466644D01*
X95499483Y-48251863D01*
X95472482Y-48251390D01*
X94873682Y-48268337D01*
X94597788Y-48365539D01*
X94537331Y-48612532D01*
X94557651Y-48843339D01*
G37*
X94557651Y-48843339D02*
X94667046Y-49248908D01*
X94960635Y-49436570D01*
X95404900Y-49500423D01*
X95945415Y-49500438D01*
X96212226Y-49333366D01*
X96316792Y-49069914D01*
X96421596Y-48584342D01*
X96336867Y-48342781D01*
X95974878Y-48260183D01*
X95499483Y-48251863D01*
X95499483Y-48466644D01*
X95906300Y-48600074D01*
X96028818Y-48893748D01*
X95826295Y-49187748D01*
X95699293Y-49250872D01*
X95327866Y-49243015D01*
X94982243Y-49043338D01*
X94826366Y-48767206D01*
X94856091Y-48657509D01*
X95139944Y-48510064D01*
X95499483Y-48466644D01*
X95499483Y-48251863D01*
X95472482Y-48251390D01*
X94873682Y-48268337D01*
X94597788Y-48365539D01*
X94537331Y-48612532D01*
X94557651Y-48843339D01*
G36*
X94698422Y-50363569D02*
G01*
X94948644Y-50403933D01*
X95298425Y-50494076D01*
X95379153Y-50619187D01*
X95198867Y-50794077D01*
X94948644Y-50834441D01*
X94577223Y-50911077D01*
X94583767Y-51101816D01*
X94951960Y-51347904D01*
X95110085Y-51415752D01*
X95486246Y-51579686D01*
X95479966Y-51650303D01*
X95230416Y-51672559D01*
X94786344Y-51792438D01*
X94607349Y-51940506D01*
X94630485Y-52081512D01*
X94996145Y-52077607D01*
X95292583Y-52028591D01*
X95869022Y-51903603D01*
X96251466Y-51790067D01*
X96295855Y-51768670D01*
X96390794Y-51560193D01*
X96174263Y-51356066D01*
X95754471Y-51256595D01*
X95743144Y-51256331D01*
X95455593Y-51231157D01*
X95509497Y-51130476D01*
X95863475Y-50926575D01*
X96274470Y-50684802D01*
X96455047Y-50541348D01*
X96455424Y-50538757D01*
X96271306Y-50441883D01*
X95811222Y-50280796D01*
X95623247Y-50222750D01*
X94984167Y-50041164D01*
X94654084Y-49989902D01*
X94532681Y-50065871D01*
X94518136Y-50188678D01*
X94698422Y-50363569D01*
G37*
X94698422Y-50363569D02*
X94948644Y-50403933D01*
X95298425Y-50494076D01*
X95379153Y-50619187D01*
X95198867Y-50794077D01*
X94948644Y-50834441D01*
X94577223Y-50911077D01*
X94583767Y-51101816D01*
X94951960Y-51347904D01*
X95110085Y-51415752D01*
X95486246Y-51579686D01*
X95479966Y-51650303D01*
X95230416Y-51672559D01*
X94786344Y-51792438D01*
X94607349Y-51940506D01*
X94630485Y-52081512D01*
X94996145Y-52077607D01*
X95292583Y-52028591D01*
X95869022Y-51903603D01*
X96251466Y-51790067D01*
X96295855Y-51768670D01*
X96390794Y-51560193D01*
X96174263Y-51356066D01*
X95754471Y-51256595D01*
X95743144Y-51256331D01*
X95455593Y-51231157D01*
X95509497Y-51130476D01*
X95863475Y-50926575D01*
X96274470Y-50684802D01*
X96455047Y-50541348D01*
X96455424Y-50538757D01*
X96271306Y-50441883D01*
X95811222Y-50280796D01*
X95623247Y-50222750D01*
X94984167Y-50041164D01*
X94654084Y-49989902D01*
X94532681Y-50065871D01*
X94518136Y-50188678D01*
X94698422Y-50363569D01*
G36*
X94702550Y-53342557D02*
G01*
X95146470Y-53546245D01*
X95685911Y-53719691D01*
X96156888Y-53809067D01*
X96384742Y-53775180D01*
X96362706Y-53644110D01*
X96276045Y-53632746D01*
X96067697Y-53468721D01*
X96046504Y-53093056D01*
X96209504Y-52680365D01*
X96293983Y-52575332D01*
X96420294Y-52391999D01*
X96219194Y-52399233D01*
X96024915Y-52453397D01*
X95366449Y-52670509D01*
X95366449Y-52986983D01*
X95585647Y-53143239D01*
X95594407Y-53202238D01*
X95520965Y-53411895D01*
X95499483Y-53417492D01*
X95315706Y-53266655D01*
X95271525Y-53202238D01*
X95288592Y-53003884D01*
X95366449Y-52986983D01*
X95366449Y-52670509D01*
X95152722Y-52740981D01*
X94664059Y-52973480D01*
X94518136Y-53162456D01*
X94702550Y-53342557D01*
G37*
X94702550Y-53342557D02*
X95146470Y-53546245D01*
X95685911Y-53719691D01*
X96156888Y-53809067D01*
X96384742Y-53775180D01*
X96362706Y-53644110D01*
X96276045Y-53632746D01*
X96067697Y-53468721D01*
X96046504Y-53093056D01*
X96209504Y-52680365D01*
X96293983Y-52575332D01*
X96420294Y-52391999D01*
X96219194Y-52399233D01*
X96024915Y-52453397D01*
X95366449Y-52670509D01*
X95366449Y-52986983D01*
X95585647Y-53143239D01*
X95594407Y-53202238D01*
X95520965Y-53411895D01*
X95499483Y-53417492D01*
X95315706Y-53266655D01*
X95271525Y-53202238D01*
X95288592Y-53003884D01*
X95366449Y-52986983D01*
X95366449Y-52670509D01*
X95152722Y-52740981D01*
X94664059Y-52973480D01*
X94518136Y-53162456D01*
X94702550Y-53342557D01*
G36*
X94539228Y-55319204D02*
G01*
X94615317Y-55465464D01*
X94784958Y-55303275D01*
X94787203Y-55300342D01*
X95175864Y-55036586D01*
X95758366Y-54869669D01*
X95809661Y-54863141D01*
X96563051Y-54777915D01*
X95766543Y-54743466D01*
X95084690Y-54603521D01*
X94750631Y-54332322D01*
X94610391Y-54168473D01*
X94542742Y-54342702D01*
X94524681Y-54803972D01*
X94539228Y-55319204D01*
G37*
X94539228Y-55319204D02*
X94615317Y-55465464D01*
X94784958Y-55303275D01*
X94787203Y-55300342D01*
X95175864Y-55036586D01*
X95758366Y-54869669D01*
X95809661Y-54863141D01*
X96563051Y-54777915D01*
X95766543Y-54743466D01*
X95084690Y-54603521D01*
X94750631Y-54332322D01*
X94610391Y-54168473D01*
X94542742Y-54342702D01*
X94524681Y-54803972D01*
X94539228Y-55319204D01*
G36*
X94744062Y-56853910D02*
G01*
X94948644Y-57040067D01*
X95155709Y-57068591D01*
X95038359Y-56864690D01*
X95004325Y-56822946D01*
X94847195Y-56465525D01*
X95089850Y-56263439D01*
X95547761Y-56215797D01*
X95927208Y-56283804D01*
X95982759Y-56555469D01*
X95959331Y-56658597D01*
X95952743Y-56989244D01*
X96095666Y-57017455D01*
X96370502Y-56744266D01*
X96367941Y-56327576D01*
X96154791Y-56019008D01*
X95712389Y-55844521D01*
X95230729Y-55823548D01*
X94779353Y-55958970D01*
X94630015Y-56295935D01*
X94625763Y-56413113D01*
X94744062Y-56853910D01*
G37*
X94744062Y-56853910D02*
X94948644Y-57040067D01*
X95155709Y-57068591D01*
X95038359Y-56864690D01*
X95004325Y-56822946D01*
X94847195Y-56465525D01*
X95089850Y-56263439D01*
X95547761Y-56215797D01*
X95927208Y-56283804D01*
X95982759Y-56555469D01*
X95959331Y-56658597D01*
X95952743Y-56989244D01*
X96095666Y-57017455D01*
X96370502Y-56744266D01*
X96367941Y-56327576D01*
X96154791Y-56019008D01*
X95712389Y-55844521D01*
X95230729Y-55823548D01*
X94779353Y-55958970D01*
X94630015Y-56295935D01*
X94625763Y-56413113D01*
X94744062Y-56853910D01*
G36*
X94838596Y-57921157D02*
G01*
X94894831Y-57944539D01*
X95267862Y-58177885D01*
X95379153Y-58368339D01*
X95202852Y-58615680D01*
X94894831Y-58792140D01*
X94692900Y-58904716D01*
X94834107Y-58960879D01*
X95358256Y-58972665D01*
X95486780Y-58971144D01*
X95996708Y-58947213D01*
X96182110Y-58901935D01*
X96078729Y-58862190D01*
X95677690Y-58628345D01*
X95594407Y-58368339D01*
X95783753Y-58000184D01*
X96078729Y-57874489D01*
X96166987Y-57820807D01*
X95886181Y-57780274D01*
X95486780Y-57765535D01*
X94894353Y-57771044D01*
X94691560Y-57818906D01*
X94838596Y-57921157D01*
G37*
X94838596Y-57921157D02*
X94894831Y-57944539D01*
X95267862Y-58177885D01*
X95379153Y-58368339D01*
X95202852Y-58615680D01*
X94894831Y-58792140D01*
X94692900Y-58904716D01*
X94834107Y-58960879D01*
X95358256Y-58972665D01*
X95486780Y-58971144D01*
X95996708Y-58947213D01*
X96182110Y-58901935D01*
X96078729Y-58862190D01*
X95677690Y-58628345D01*
X95594407Y-58368339D01*
X95783753Y-58000184D01*
X96078729Y-57874489D01*
X96166987Y-57820807D01*
X95886181Y-57780274D01*
X95486780Y-57765535D01*
X94894353Y-57771044D01*
X94691560Y-57818906D01*
X94838596Y-57921157D01*
G36*
X94547449Y-60359441D02*
G01*
X94580424Y-60755034D01*
X94633716Y-60734395D01*
X94670048Y-60574695D01*
X94873026Y-60185199D01*
X95173013Y-60114978D01*
X95419877Y-60384856D01*
X95446027Y-60467068D01*
X95527835Y-60732357D01*
X95561561Y-60579499D01*
X95569437Y-60467068D01*
X95696162Y-60135805D01*
X95901396Y-60142746D01*
X96023497Y-60468793D01*
X96024915Y-60520882D01*
X96115058Y-60870663D01*
X96240169Y-60951390D01*
X96391307Y-60764341D01*
X96455407Y-60313662D01*
X96455424Y-60305627D01*
X96427344Y-59908538D01*
X96265218Y-59720464D01*
X95852210Y-59663515D01*
X95486780Y-59659865D01*
X94892323Y-59676149D01*
X94614844Y-59781358D01*
X94540834Y-60060031D01*
X94547449Y-60359441D01*
G37*
X94547449Y-60359441D02*
X94580424Y-60755034D01*
X94633716Y-60734395D01*
X94670048Y-60574695D01*
X94873026Y-60185199D01*
X95173013Y-60114978D01*
X95419877Y-60384856D01*
X95446027Y-60467068D01*
X95527835Y-60732357D01*
X95561561Y-60579499D01*
X95569437Y-60467068D01*
X95696162Y-60135805D01*
X95901396Y-60142746D01*
X96023497Y-60468793D01*
X96024915Y-60520882D01*
X96115058Y-60870663D01*
X96240169Y-60951390D01*
X96391307Y-60764341D01*
X96455407Y-60313662D01*
X96455424Y-60305627D01*
X96427344Y-59908538D01*
X96265218Y-59720464D01*
X95852210Y-59663515D01*
X95486780Y-59659865D01*
X94892323Y-59676149D01*
X94614844Y-59781358D01*
X94540834Y-60060031D01*
X94547449Y-60359441D01*
G36*
X94558311Y-62081475D02*
G01*
X94632122Y-62521663D01*
X94826291Y-62725892D01*
X95270448Y-62788254D01*
X95540593Y-62794456D01*
X96099530Y-62788930D01*
X96423151Y-62759183D01*
X96455424Y-62742466D01*
X96297226Y-62593117D01*
X96024915Y-62408215D01*
X95658565Y-62096347D01*
X95648264Y-61877843D01*
X95917288Y-61812407D01*
X96203742Y-61696176D01*
X96240169Y-61597153D01*
X96049011Y-61463227D01*
X95570630Y-61387916D01*
X95365514Y-61381899D01*
X95074209Y-61392386D01*
X95074209Y-61812407D01*
X95309934Y-61937882D01*
X95272346Y-62196061D01*
X94989004Y-62408841D01*
X94769428Y-62315157D01*
X94733390Y-62153226D01*
X94906703Y-61856704D01*
X95074209Y-61812407D01*
X95074209Y-61392386D01*
X94810789Y-61401871D01*
X94573089Y-61527321D01*
X94538988Y-61856551D01*
X94558311Y-62081475D01*
G37*
X94558311Y-62081475D02*
X94632122Y-62521663D01*
X94826291Y-62725892D01*
X95270448Y-62788254D01*
X95540593Y-62794456D01*
X96099530Y-62788930D01*
X96423151Y-62759183D01*
X96455424Y-62742466D01*
X96297226Y-62593117D01*
X96024915Y-62408215D01*
X95658565Y-62096347D01*
X95648264Y-61877843D01*
X95917288Y-61812407D01*
X96203742Y-61696176D01*
X96240169Y-61597153D01*
X96049011Y-61463227D01*
X95570630Y-61387916D01*
X95365514Y-61381899D01*
X95074209Y-61392386D01*
X95074209Y-61812407D01*
X95309934Y-61937882D01*
X95272346Y-62196061D01*
X94989004Y-62408841D01*
X94769428Y-62315157D01*
X94733390Y-62153226D01*
X94906703Y-61856704D01*
X95074209Y-61812407D01*
X95074209Y-61392386D01*
X94810789Y-61401871D01*
X94573089Y-61527321D01*
X94538988Y-61856551D01*
X94558311Y-62081475D01*
G36*
X79023582Y-55893644D02*
G01*
X79035830Y-57437488D01*
X79058062Y-58623438D01*
X79091767Y-59487773D01*
X79138431Y-60066771D01*
X79199544Y-60396710D01*
X79276593Y-60513871D01*
X79288898Y-60515355D01*
X79610771Y-60467015D01*
X80237196Y-60342839D01*
X81053755Y-60165996D01*
X81387627Y-60090373D01*
X82229469Y-59900777D01*
X82907514Y-59754407D01*
X83315263Y-59673993D01*
X83378729Y-59665391D01*
X83454630Y-59860642D01*
X83511364Y-60383457D01*
X83538980Y-61130990D01*
X83540169Y-61334003D01*
X83579356Y-62378130D01*
X83729900Y-63176650D01*
X84041282Y-63761614D01*
X84562981Y-64165073D01*
X85344475Y-64419078D01*
X86435244Y-64555679D01*
X87884766Y-64606929D01*
X88598644Y-64610712D01*
X90063579Y-64593865D01*
X91164910Y-64531379D01*
X91968648Y-64405335D01*
X92540804Y-64197815D01*
X92947389Y-63890900D01*
X93254413Y-63466671D01*
X93330594Y-63326233D01*
X93419945Y-62935815D01*
X93496362Y-62173207D01*
X93559875Y-61095441D01*
X93610517Y-59759549D01*
X93648318Y-58222562D01*
X93673311Y-56541512D01*
X93685525Y-54773431D01*
X93684992Y-52975350D01*
X93671744Y-51204300D01*
X93645813Y-49517314D01*
X93607228Y-47971423D01*
X93556022Y-46623659D01*
X93492226Y-45531053D01*
X93415872Y-44750637D01*
X93326990Y-44339443D01*
X93320162Y-44325706D01*
X93023059Y-43879896D01*
X92642177Y-43552967D01*
X92111272Y-43327516D01*
X91364101Y-43186139D01*
X90334423Y-43111435D01*
X88955995Y-43086001D01*
X88598644Y-43085289D01*
X86988547Y-43109744D01*
X85757545Y-43205301D01*
X85011635Y-43370707D01*
X85011635Y-43408170D01*
X88558388Y-43408170D01*
X89885456Y-43412146D01*
X90851951Y-43429057D01*
X91527770Y-43466380D01*
X91982813Y-43531590D01*
X92286981Y-43632164D01*
X92510172Y-43775576D01*
X92583655Y-43838678D01*
X92999532Y-44304054D01*
X93238372Y-44699695D01*
X93294138Y-45051922D01*
X93340370Y-45774644D01*
X93377287Y-46811158D01*
X93405113Y-48104762D01*
X93424067Y-49598751D01*
X93434371Y-51236423D01*
X93436245Y-52961073D01*
X93429911Y-54715998D01*
X93415590Y-56444496D01*
X93393502Y-58089861D01*
X93363870Y-59595392D01*
X93326913Y-60904385D01*
X93282853Y-61960135D01*
X93231912Y-62705941D01*
X93174309Y-63085097D01*
X93166629Y-63103933D01*
X92857845Y-63576172D01*
X92430788Y-63922361D01*
X91824358Y-64157859D01*
X90977456Y-64298030D01*
X89828982Y-64358235D01*
X88317838Y-64353835D01*
X88203988Y-64351647D01*
X85011027Y-64287831D01*
X84383226Y-63584859D01*
X84066300Y-63195883D01*
X83878675Y-62822341D01*
X83786848Y-62335004D01*
X83757316Y-61604641D01*
X83755424Y-61163248D01*
X83744036Y-60299382D01*
X83697579Y-59781732D01*
X83597613Y-59526328D01*
X83425701Y-59449199D01*
X83378729Y-59447792D01*
X83146508Y-59466251D01*
X82773475Y-59527391D01*
X82195153Y-59644507D01*
X81347068Y-59830892D01*
X80164746Y-60099838D01*
X79719407Y-60202255D01*
X79235085Y-60313830D01*
X79235085Y-53959729D01*
X79238310Y-52355598D01*
X79247434Y-50900176D01*
X79261627Y-49646506D01*
X79280062Y-48647627D01*
X79301908Y-47956583D01*
X79326337Y-47626413D01*
X79334376Y-47605627D01*
X79574764Y-47651329D01*
X80132778Y-47773479D01*
X80907047Y-47949647D01*
X81280000Y-48036136D01*
X82336929Y-48283786D01*
X83041435Y-48413915D01*
X83464582Y-48386457D01*
X83677430Y-48161343D01*
X83751042Y-47698505D01*
X83756479Y-46957875D01*
X83755424Y-46640379D01*
X83765832Y-45732008D01*
X83817290Y-45131797D01*
X83940150Y-44717531D01*
X84164761Y-44366995D01*
X84383529Y-44111142D01*
X85011635Y-43408170D01*
X85011635Y-43370707D01*
X84855888Y-43405244D01*
X84233827Y-43742857D01*
X83841613Y-44251425D01*
X83629496Y-44964232D01*
X83547727Y-45914563D01*
X83540169Y-46469625D01*
X83529105Y-47284532D01*
X83499633Y-47903624D01*
X83457335Y-48226745D01*
X83440878Y-48251390D01*
X83200491Y-48205689D01*
X82642476Y-48083539D01*
X81868207Y-47907370D01*
X81495254Y-47820882D01*
X80626245Y-47626231D01*
X79896700Y-47477405D01*
X79423534Y-47397696D01*
X79334376Y-47390373D01*
X79244258Y-47441309D01*
X79172728Y-47622459D01*
X79117750Y-47976335D01*
X79077286Y-48545450D01*
X79049300Y-49372317D01*
X79031754Y-50499450D01*
X79022613Y-51969360D01*
X79019839Y-53824560D01*
X79019831Y-53955627D01*
X79023582Y-55893644D01*
G37*
X79023582Y-55893644D02*
X79035830Y-57437488D01*
X79058062Y-58623438D01*
X79091767Y-59487773D01*
X79138431Y-60066771D01*
X79199544Y-60396710D01*
X79276593Y-60513871D01*
X79288898Y-60515355D01*
X79610771Y-60467015D01*
X80237196Y-60342839D01*
X81053755Y-60165996D01*
X81387627Y-60090373D01*
X82229469Y-59900777D01*
X82907514Y-59754407D01*
X83315263Y-59673993D01*
X83378729Y-59665391D01*
X83454630Y-59860642D01*
X83511364Y-60383457D01*
X83538980Y-61130990D01*
X83540169Y-61334003D01*
X83579356Y-62378130D01*
X83729900Y-63176650D01*
X84041282Y-63761614D01*
X84562981Y-64165073D01*
X85344475Y-64419078D01*
X86435244Y-64555679D01*
X87884766Y-64606929D01*
X88598644Y-64610712D01*
X90063579Y-64593865D01*
X91164910Y-64531379D01*
X91968648Y-64405335D01*
X92540804Y-64197815D01*
X92947389Y-63890900D01*
X93254413Y-63466671D01*
X93330594Y-63326233D01*
X93419945Y-62935815D01*
X93496362Y-62173207D01*
X93559875Y-61095441D01*
X93610517Y-59759549D01*
X93648318Y-58222562D01*
X93673311Y-56541512D01*
X93685525Y-54773431D01*
X93684992Y-52975350D01*
X93671744Y-51204300D01*
X93645813Y-49517314D01*
X93607228Y-47971423D01*
X93556022Y-46623659D01*
X93492226Y-45531053D01*
X93415872Y-44750637D01*
X93326990Y-44339443D01*
X93320162Y-44325706D01*
X93023059Y-43879896D01*
X92642177Y-43552967D01*
X92111272Y-43327516D01*
X91364101Y-43186139D01*
X90334423Y-43111435D01*
X88955995Y-43086001D01*
X88598644Y-43085289D01*
X86988547Y-43109744D01*
X85757545Y-43205301D01*
X85011635Y-43370707D01*
X85011635Y-43408170D01*
X88558388Y-43408170D01*
X89885456Y-43412146D01*
X90851951Y-43429057D01*
X91527770Y-43466380D01*
X91982813Y-43531590D01*
X92286981Y-43632164D01*
X92510172Y-43775576D01*
X92583655Y-43838678D01*
X92999532Y-44304054D01*
X93238372Y-44699695D01*
X93294138Y-45051922D01*
X93340370Y-45774644D01*
X93377287Y-46811158D01*
X93405113Y-48104762D01*
X93424067Y-49598751D01*
X93434371Y-51236423D01*
X93436245Y-52961073D01*
X93429911Y-54715998D01*
X93415590Y-56444496D01*
X93393502Y-58089861D01*
X93363870Y-59595392D01*
X93326913Y-60904385D01*
X93282853Y-61960135D01*
X93231912Y-62705941D01*
X93174309Y-63085097D01*
X93166629Y-63103933D01*
X92857845Y-63576172D01*
X92430788Y-63922361D01*
X91824358Y-64157859D01*
X90977456Y-64298030D01*
X89828982Y-64358235D01*
X88317838Y-64353835D01*
X88203988Y-64351647D01*
X85011027Y-64287831D01*
X84383226Y-63584859D01*
X84066300Y-63195883D01*
X83878675Y-62822341D01*
X83786848Y-62335004D01*
X83757316Y-61604641D01*
X83755424Y-61163248D01*
X83744036Y-60299382D01*
X83697579Y-59781732D01*
X83597613Y-59526328D01*
X83425701Y-59449199D01*
X83378729Y-59447792D01*
X83146508Y-59466251D01*
X82773475Y-59527391D01*
X82195153Y-59644507D01*
X81347068Y-59830892D01*
X80164746Y-60099838D01*
X79719407Y-60202255D01*
X79235085Y-60313830D01*
X79235085Y-53959729D01*
X79238310Y-52355598D01*
X79247434Y-50900176D01*
X79261627Y-49646506D01*
X79280062Y-48647627D01*
X79301908Y-47956583D01*
X79326337Y-47626413D01*
X79334376Y-47605627D01*
X79574764Y-47651329D01*
X80132778Y-47773479D01*
X80907047Y-47949647D01*
X81280000Y-48036136D01*
X82336929Y-48283786D01*
X83041435Y-48413915D01*
X83464582Y-48386457D01*
X83677430Y-48161343D01*
X83751042Y-47698505D01*
X83756479Y-46957875D01*
X83755424Y-46640379D01*
X83765832Y-45732008D01*
X83817290Y-45131797D01*
X83940150Y-44717531D01*
X84164761Y-44366995D01*
X84383529Y-44111142D01*
X85011635Y-43408170D01*
X85011635Y-43370707D01*
X84855888Y-43405244D01*
X84233827Y-43742857D01*
X83841613Y-44251425D01*
X83629496Y-44964232D01*
X83547727Y-45914563D01*
X83540169Y-46469625D01*
X83529105Y-47284532D01*
X83499633Y-47903624D01*
X83457335Y-48226745D01*
X83440878Y-48251390D01*
X83200491Y-48205689D01*
X82642476Y-48083539D01*
X81868207Y-47907370D01*
X81495254Y-47820882D01*
X80626245Y-47626231D01*
X79896700Y-47477405D01*
X79423534Y-47397696D01*
X79334376Y-47390373D01*
X79244258Y-47441309D01*
X79172728Y-47622459D01*
X79117750Y-47976335D01*
X79077286Y-48545450D01*
X79049300Y-49372317D01*
X79031754Y-50499450D01*
X79022613Y-51969360D01*
X79019839Y-53824560D01*
X79019831Y-53955627D01*
X79023582Y-55893644D01*
G36*
X86486824Y-49348510D02*
G01*
X86817599Y-50138895D01*
X87386232Y-50768435D01*
X88111529Y-51151324D01*
X88912295Y-51201752D01*
X89024785Y-51177653D01*
X89820452Y-50781800D01*
X90366955Y-50121828D01*
X90635523Y-49303431D01*
X90597389Y-48432304D01*
X90223783Y-47614142D01*
X90051610Y-47405132D01*
X89310120Y-46873062D01*
X88598644Y-46729178D01*
X88598644Y-46959865D01*
X89322148Y-47119091D01*
X89947190Y-47527844D01*
X90347822Y-48082734D01*
X90428305Y-48461822D01*
X90394966Y-48759715D01*
X90216084Y-48755269D01*
X89933177Y-48582657D01*
X89521982Y-48374613D01*
X89182771Y-48448977D01*
X88964533Y-48589901D01*
X88549547Y-49080872D01*
X88501774Y-49626895D01*
X88791541Y-50116228D01*
X89389177Y-50437127D01*
X89459661Y-50454518D01*
X89709368Y-50540652D01*
X89609882Y-50655718D01*
X89283282Y-50800914D01*
X88454782Y-50944591D01*
X87717794Y-50716177D01*
X87147531Y-50173782D01*
X86819205Y-49375514D01*
X86768983Y-48858340D01*
X86949395Y-47976235D01*
X87449452Y-47334043D01*
X88207380Y-46995857D01*
X88598644Y-46959865D01*
X88598644Y-46729178D01*
X88495848Y-46708389D01*
X87704397Y-46882299D01*
X87031371Y-47365977D01*
X86572372Y-48130608D01*
X86475101Y-48483088D01*
X86486824Y-49348510D01*
G37*
X86486824Y-49348510D02*
X86817599Y-50138895D01*
X87386232Y-50768435D01*
X88111529Y-51151324D01*
X88912295Y-51201752D01*
X89024785Y-51177653D01*
X89820452Y-50781800D01*
X90366955Y-50121828D01*
X90635523Y-49303431D01*
X90597389Y-48432304D01*
X90223783Y-47614142D01*
X90051610Y-47405132D01*
X89310120Y-46873062D01*
X88598644Y-46729178D01*
X88598644Y-46959865D01*
X89322148Y-47119091D01*
X89947190Y-47527844D01*
X90347822Y-48082734D01*
X90428305Y-48461822D01*
X90394966Y-48759715D01*
X90216084Y-48755269D01*
X89933177Y-48582657D01*
X89521982Y-48374613D01*
X89182771Y-48448977D01*
X88964533Y-48589901D01*
X88549547Y-49080872D01*
X88501774Y-49626895D01*
X88791541Y-50116228D01*
X89389177Y-50437127D01*
X89459661Y-50454518D01*
X89709368Y-50540652D01*
X89609882Y-50655718D01*
X89283282Y-50800914D01*
X88454782Y-50944591D01*
X87717794Y-50716177D01*
X87147531Y-50173782D01*
X86819205Y-49375514D01*
X86768983Y-48858340D01*
X86949395Y-47976235D01*
X87449452Y-47334043D01*
X88207380Y-46995857D01*
X88598644Y-46959865D01*
X88598644Y-46729178D01*
X88495848Y-46708389D01*
X87704397Y-46882299D01*
X87031371Y-47365977D01*
X86572372Y-48130608D01*
X86475101Y-48483088D01*
X86486824Y-49348510D01*
G36*
X86537359Y-59111352D02*
G01*
X86923237Y-59837442D01*
X87621536Y-60399430D01*
X87703013Y-60440099D01*
X88568117Y-60663460D01*
X89345876Y-60530563D01*
X89987787Y-60113905D01*
X90445342Y-59485981D01*
X90670037Y-58719287D01*
X90613367Y-57886319D01*
X90226826Y-57059572D01*
X90086289Y-56878075D01*
X89622809Y-56431012D01*
X89112612Y-56244302D01*
X88780376Y-56225503D01*
X88780376Y-56415514D01*
X89511309Y-56674655D01*
X89900448Y-57000619D01*
X90182284Y-57392699D01*
X90375320Y-57813042D01*
X90456375Y-58158836D01*
X90402267Y-58327266D01*
X90189815Y-58215520D01*
X90170000Y-58196136D01*
X89750346Y-57980478D01*
X89459661Y-57937831D01*
X88881611Y-58100540D01*
X88556528Y-58506951D01*
X88511147Y-59034495D01*
X88772204Y-59560598D01*
X89052862Y-59802821D01*
X89426724Y-60064762D01*
X89459221Y-60204529D01*
X89169168Y-60335768D01*
X89142713Y-60345559D01*
X88368618Y-60431835D01*
X87668518Y-60155851D01*
X87122716Y-59585808D01*
X86811515Y-58789906D01*
X86768983Y-58329526D01*
X86942752Y-57490013D01*
X87399983Y-56863982D01*
X88044563Y-56492219D01*
X88780376Y-56415514D01*
X88780376Y-56225503D01*
X88608862Y-56215797D01*
X87726388Y-56392503D01*
X87058417Y-56861737D01*
X86624532Y-57532174D01*
X86444319Y-58312488D01*
X86537359Y-59111352D01*
G37*
X86537359Y-59111352D02*
X86923237Y-59837442D01*
X87621536Y-60399430D01*
X87703013Y-60440099D01*
X88568117Y-60663460D01*
X89345876Y-60530563D01*
X89987787Y-60113905D01*
X90445342Y-59485981D01*
X90670037Y-58719287D01*
X90613367Y-57886319D01*
X90226826Y-57059572D01*
X90086289Y-56878075D01*
X89622809Y-56431012D01*
X89112612Y-56244302D01*
X88780376Y-56225503D01*
X88780376Y-56415514D01*
X89511309Y-56674655D01*
X89900448Y-57000619D01*
X90182284Y-57392699D01*
X90375320Y-57813042D01*
X90456375Y-58158836D01*
X90402267Y-58327266D01*
X90189815Y-58215520D01*
X90170000Y-58196136D01*
X89750346Y-57980478D01*
X89459661Y-57937831D01*
X88881611Y-58100540D01*
X88556528Y-58506951D01*
X88511147Y-59034495D01*
X88772204Y-59560598D01*
X89052862Y-59802821D01*
X89426724Y-60064762D01*
X89459221Y-60204529D01*
X89169168Y-60335768D01*
X89142713Y-60345559D01*
X88368618Y-60431835D01*
X87668518Y-60155851D01*
X87122716Y-59585808D01*
X86811515Y-58789906D01*
X86768983Y-58329526D01*
X86942752Y-57490013D01*
X87399983Y-56863982D01*
X88044563Y-56492219D01*
X88780376Y-56415514D01*
X88780376Y-56225503D01*
X88608862Y-56215797D01*
X87726388Y-56392503D01*
X87058417Y-56861737D01*
X86624532Y-57532174D01*
X86444319Y-58312488D01*
X86537359Y-59111352D01*
D14*
%TO.C,J1*%
X102042000Y-88124000D02*
X95802000Y-88124000D01*
X95802000Y-88124000D02*
X95802000Y-84124000D01*
X95802000Y-84124000D02*
X95502000Y-84124000D01*
X95502000Y-84124000D02*
X95502000Y-69884000D01*
X95502000Y-69884000D02*
X103942000Y-69884000D01*
X103942000Y-69884000D02*
X103942000Y-84124000D01*
X103942000Y-84124000D02*
X102042000Y-84124000D01*
X102042000Y-84124000D02*
X102042000Y-88124000D01*
%TO.C,J2*%
X80198000Y-84124000D02*
X80198000Y-88124000D01*
X82098000Y-84124000D02*
X80198000Y-84124000D01*
X82098000Y-69884000D02*
X82098000Y-84124000D01*
X73658000Y-69884000D02*
X82098000Y-69884000D01*
X73658000Y-84124000D02*
X73658000Y-69884000D01*
X73958000Y-84124000D02*
X73658000Y-84124000D01*
X73958000Y-88124000D02*
X73958000Y-84124000D01*
X80198000Y-88124000D02*
X73958000Y-88124000D01*
%TO.C,J3*%
X91120000Y-88124000D02*
X84880000Y-88124000D01*
X84880000Y-88124000D02*
X84880000Y-84124000D01*
X84880000Y-84124000D02*
X84580000Y-84124000D01*
X84580000Y-84124000D02*
X84580000Y-69884000D01*
X84580000Y-69884000D02*
X93020000Y-69884000D01*
X93020000Y-69884000D02*
X93020000Y-84124000D01*
X93020000Y-84124000D02*
X91120000Y-84124000D01*
X91120000Y-84124000D02*
X91120000Y-88124000D01*
%TO.C,J4*%
X69276000Y-84124000D02*
X69276000Y-88124000D01*
X71176000Y-84124000D02*
X69276000Y-84124000D01*
X71176000Y-69884000D02*
X71176000Y-84124000D01*
X62736000Y-69884000D02*
X71176000Y-69884000D01*
X62736000Y-84124000D02*
X62736000Y-69884000D01*
X63036000Y-84124000D02*
X62736000Y-84124000D01*
X63036000Y-88124000D02*
X63036000Y-84124000D01*
X69276000Y-88124000D02*
X63036000Y-88124000D01*
D15*
%TO.C,J5*%
X108204000Y-37338000D02*
X108204000Y-37338000D01*
X108204000Y-37338000D02*
X108204000Y-37338000D01*
X108204000Y-37338000D02*
X108204000Y-37338000D01*
X108204000Y-37338000D02*
X108204000Y-37338000D01*
X58674000Y-38543000D02*
X58674000Y-33593000D01*
X109474000Y-38543000D02*
X58674000Y-38543000D01*
X109474000Y-33593000D02*
X109474000Y-38543000D01*
X58674000Y-33593000D02*
X109474000Y-33593000D01*
D14*
%TO.C,M1*%
X103378000Y-40386000D02*
X104648000Y-40386000D01*
X103378000Y-41656000D02*
X103378000Y-40386000D01*
X105690929Y-44576000D02*
X106088000Y-44576000D01*
X105690929Y-43816000D02*
X106088000Y-43816000D01*
X114748000Y-44576000D02*
X108748000Y-44576000D01*
X114748000Y-43816000D02*
X114748000Y-44576000D01*
X108748000Y-43816000D02*
X114748000Y-43816000D01*
X106088000Y-42926000D02*
X108748000Y-42926000D01*
X105758000Y-42036000D02*
X106088000Y-42036000D01*
X105758000Y-41276000D02*
X106088000Y-41276000D01*
X108748000Y-41936000D02*
X114748000Y-41936000D01*
X108748000Y-41816000D02*
X114748000Y-41816000D01*
X108748000Y-41696000D02*
X114748000Y-41696000D01*
X108748000Y-41576000D02*
X114748000Y-41576000D01*
X108748000Y-41456000D02*
X114748000Y-41456000D01*
X108748000Y-41336000D02*
X114748000Y-41336000D01*
X114748000Y-42036000D02*
X108748000Y-42036000D01*
X114748000Y-41276000D02*
X114748000Y-42036000D01*
X108748000Y-41276000D02*
X114748000Y-41276000D01*
X108748000Y-40326000D02*
X106088000Y-40326000D01*
X108748000Y-45526000D02*
X108748000Y-40326000D01*
X106088000Y-45526000D02*
X108748000Y-45526000D01*
X106088000Y-40326000D02*
X106088000Y-45526000D01*
%TO.C,J1*%
D11*
X96345333Y-68286380D02*
X96345333Y-69000666D01*
X96392952Y-69143523D01*
X96488190Y-69238761D01*
X96631047Y-69286380D01*
X96726285Y-69286380D01*
X95345333Y-69286380D02*
X95916761Y-69286380D01*
X95631047Y-69286380D02*
X95631047Y-68286380D01*
X95726285Y-68429238D01*
X95821523Y-68524476D01*
X95916761Y-68572095D01*
%TO.C,J2*%
X74247333Y-68032380D02*
X74247333Y-68746666D01*
X74294952Y-68889523D01*
X74390190Y-68984761D01*
X74533047Y-69032380D01*
X74628285Y-69032380D01*
X73818761Y-68127619D02*
X73771142Y-68080000D01*
X73675904Y-68032380D01*
X73437809Y-68032380D01*
X73342571Y-68080000D01*
X73294952Y-68127619D01*
X73247333Y-68222857D01*
X73247333Y-68318095D01*
X73294952Y-68460952D01*
X73866380Y-69032380D01*
X73247333Y-69032380D01*
%TO.C,J3*%
X85169333Y-68286380D02*
X85169333Y-69000666D01*
X85216952Y-69143523D01*
X85312190Y-69238761D01*
X85455047Y-69286380D01*
X85550285Y-69286380D01*
X84788380Y-68286380D02*
X84169333Y-68286380D01*
X84502666Y-68667333D01*
X84359809Y-68667333D01*
X84264571Y-68714952D01*
X84216952Y-68762571D01*
X84169333Y-68857809D01*
X84169333Y-69095904D01*
X84216952Y-69191142D01*
X84264571Y-69238761D01*
X84359809Y-69286380D01*
X84645523Y-69286380D01*
X84740761Y-69238761D01*
X84788380Y-69191142D01*
%TO.C,J4*%
X63579333Y-68286380D02*
X63579333Y-69000666D01*
X63626952Y-69143523D01*
X63722190Y-69238761D01*
X63865047Y-69286380D01*
X63960285Y-69286380D01*
X62674571Y-68619714D02*
X62674571Y-69286380D01*
X62912666Y-68238761D02*
X63150761Y-68953047D01*
X62531714Y-68953047D01*
%TO.C,J5*%
D16*
X61637333Y-40198523D02*
X61637333Y-41105666D01*
X61697809Y-41287095D01*
X61818761Y-41408047D01*
X62000190Y-41468523D01*
X62121142Y-41468523D01*
X60427809Y-40198523D02*
X61032571Y-40198523D01*
X61093047Y-40803285D01*
X61032571Y-40742809D01*
X60911619Y-40682333D01*
X60609238Y-40682333D01*
X60488285Y-40742809D01*
X60427809Y-40803285D01*
X60367333Y-40924238D01*
X60367333Y-41226619D01*
X60427809Y-41347571D01*
X60488285Y-41408047D01*
X60609238Y-41468523D01*
X60911619Y-41468523D01*
X61032571Y-41408047D01*
X61093047Y-41347571D01*
%TO.C,M1*%
D11*
X109842523Y-39838380D02*
X109842523Y-38838380D01*
X109509190Y-39552666D01*
X109175857Y-38838380D01*
X109175857Y-39838380D01*
X108175857Y-39838380D02*
X108747285Y-39838380D01*
X108461571Y-39838380D02*
X108461571Y-38838380D01*
X108556809Y-38981238D01*
X108652047Y-39076476D01*
X108747285Y-39124095D01*
X109794904Y-46394571D02*
X110128238Y-46394571D01*
X110128238Y-46918380D02*
X110128238Y-45918380D01*
X109652047Y-45918380D01*
X108842523Y-46918380D02*
X108842523Y-46394571D01*
X108890142Y-46299333D01*
X108985380Y-46251714D01*
X109175857Y-46251714D01*
X109271095Y-46299333D01*
X108842523Y-46870761D02*
X108937761Y-46918380D01*
X109175857Y-46918380D01*
X109271095Y-46870761D01*
X109318714Y-46775523D01*
X109318714Y-46680285D01*
X109271095Y-46585047D01*
X109175857Y-46537428D01*
X108937761Y-46537428D01*
X108842523Y-46489809D01*
X108366333Y-46251714D02*
X108366333Y-46918380D01*
X108366333Y-46346952D02*
X108318714Y-46299333D01*
X108223476Y-46251714D01*
X108080619Y-46251714D01*
X107985380Y-46299333D01*
X107937761Y-46394571D01*
X107937761Y-46918380D01*
%TD*%
M02*
