%TF.GenerationSoftware,KiCad,Pcbnew,5.1.10-88a1d61d58~90~ubuntu20.04.1*%
%TF.CreationDate,2021-12-20T21:33:27+00:00*%
%TF.ProjectId,RPi_shield,5250695f-7368-4696-956c-642e6b696361,rev?*%
%TF.SameCoordinates,Original*%
%TF.FileFunction,Legend,Top*%
%TF.FilePolarity,Positive*%
%FSLAX46Y46*%
G04 Gerber Fmt 4.6, Leading zero omitted, Abs format (unit mm)*
G04 Created by KiCad (PCBNEW 5.1.10-88a1d61d58~90~ubuntu20.04.1) date 2021-12-20 21:33:27*
%MOMM*%
%LPD*%
G01*
G04 APERTURE LIST*
%ADD10C,0.300000*%
%ADD11C,0.150000*%
%ADD12C,0.120000*%
%ADD13C,0.100000*%
%ADD14C,0.254000*%
G04 APERTURE END LIST*
D10*
X55135714Y-69586857D02*
X55207142Y-69658285D01*
X55278571Y-69872571D01*
X55278571Y-70015428D01*
X55207142Y-70229714D01*
X55064285Y-70372571D01*
X54921428Y-70444000D01*
X54635714Y-70515428D01*
X54421428Y-70515428D01*
X54135714Y-70444000D01*
X53992857Y-70372571D01*
X53850000Y-70229714D01*
X53778571Y-70015428D01*
X53778571Y-69872571D01*
X53850000Y-69658285D01*
X53921428Y-69586857D01*
X54492857Y-68944000D02*
X54492857Y-68444000D01*
X55278571Y-68229714D02*
X55278571Y-68944000D01*
X53778571Y-68944000D01*
X53778571Y-68229714D01*
X55278571Y-66729714D02*
X54564285Y-67229714D01*
X55278571Y-67586857D02*
X53778571Y-67586857D01*
X53778571Y-67015428D01*
X53850000Y-66872571D01*
X53921428Y-66801142D01*
X54064285Y-66729714D01*
X54278571Y-66729714D01*
X54421428Y-66801142D01*
X54492857Y-66872571D01*
X54564285Y-67015428D01*
X54564285Y-67586857D01*
X55278571Y-66086857D02*
X53778571Y-66086857D01*
X55278571Y-65229714D01*
X53778571Y-65229714D01*
X53778571Y-63086857D02*
X53778571Y-62801142D01*
X53850000Y-62658285D01*
X53992857Y-62515428D01*
X54278571Y-62444000D01*
X54778571Y-62444000D01*
X55064285Y-62515428D01*
X55207142Y-62658285D01*
X55278571Y-62801142D01*
X55278571Y-63086857D01*
X55207142Y-63229714D01*
X55064285Y-63372571D01*
X54778571Y-63444000D01*
X54278571Y-63444000D01*
X53992857Y-63372571D01*
X53850000Y-63229714D01*
X53778571Y-63086857D01*
X55278571Y-61801142D02*
X53778571Y-61801142D01*
X54492857Y-61801142D02*
X54492857Y-60944000D01*
X55278571Y-60944000D02*
X53778571Y-60944000D01*
X55278571Y-59515428D02*
X55278571Y-60229714D01*
X53778571Y-60229714D01*
X54707142Y-59015428D02*
X54707142Y-57872571D01*
X55207142Y-57229714D02*
X55278571Y-57015428D01*
X55278571Y-56658285D01*
X55207142Y-56515428D01*
X55135714Y-56444000D01*
X54992857Y-56372571D01*
X54850000Y-56372571D01*
X54707142Y-56444000D01*
X54635714Y-56515428D01*
X54564285Y-56658285D01*
X54492857Y-56944000D01*
X54421428Y-57086857D01*
X54350000Y-57158285D01*
X54207142Y-57229714D01*
X54064285Y-57229714D01*
X53921428Y-57158285D01*
X53850000Y-57086857D01*
X53778571Y-56944000D01*
X53778571Y-56586857D01*
X53850000Y-56372571D01*
X54278571Y-54729714D02*
X55278571Y-54372571D01*
X54278571Y-54015428D01*
X53921428Y-53515428D02*
X53850000Y-53444000D01*
X53778571Y-53301142D01*
X53778571Y-52944000D01*
X53850000Y-52801142D01*
X53921428Y-52729714D01*
X54064285Y-52658285D01*
X54207142Y-52658285D01*
X54421428Y-52729714D01*
X55278571Y-53586857D01*
X55278571Y-52658285D01*
X55135714Y-52015428D02*
X55207142Y-51944000D01*
X55278571Y-52015428D01*
X55207142Y-52086857D01*
X55135714Y-52015428D01*
X55278571Y-52015428D01*
X53778571Y-51015428D02*
X53778571Y-50872571D01*
X53850000Y-50729714D01*
X53921428Y-50658285D01*
X54064285Y-50586857D01*
X54350000Y-50515428D01*
X54707142Y-50515428D01*
X54992857Y-50586857D01*
X55135714Y-50658285D01*
X55207142Y-50729714D01*
X55278571Y-50872571D01*
X55278571Y-51015428D01*
X55207142Y-51158285D01*
X55135714Y-51229714D01*
X54992857Y-51301142D01*
X54707142Y-51372571D01*
X54350000Y-51372571D01*
X54064285Y-51301142D01*
X53921428Y-51229714D01*
X53850000Y-51158285D01*
X53778571Y-51015428D01*
X57757142Y-73622571D02*
X57828571Y-73479714D01*
X57828571Y-73194000D01*
X57757142Y-73051142D01*
X57614285Y-72979714D01*
X57542857Y-72979714D01*
X57400000Y-73051142D01*
X57328571Y-73194000D01*
X57328571Y-73408285D01*
X57257142Y-73551142D01*
X57114285Y-73622571D01*
X57042857Y-73622571D01*
X56900000Y-73551142D01*
X56828571Y-73408285D01*
X56828571Y-73194000D01*
X56900000Y-73051142D01*
X57757142Y-71694000D02*
X57828571Y-71836857D01*
X57828571Y-72122571D01*
X57757142Y-72265428D01*
X57685714Y-72336857D01*
X57542857Y-72408285D01*
X57114285Y-72408285D01*
X56971428Y-72336857D01*
X56900000Y-72265428D01*
X56828571Y-72122571D01*
X56828571Y-71836857D01*
X56900000Y-71694000D01*
X57828571Y-71051142D02*
X56328571Y-71051142D01*
X57828571Y-70408285D02*
X57042857Y-70408285D01*
X56900000Y-70479714D01*
X56828571Y-70622571D01*
X56828571Y-70836857D01*
X56900000Y-70979714D01*
X56971428Y-71051142D01*
X57757142Y-69122571D02*
X57828571Y-69265428D01*
X57828571Y-69551142D01*
X57757142Y-69694000D01*
X57614285Y-69765428D01*
X57042857Y-69765428D01*
X56900000Y-69694000D01*
X56828571Y-69551142D01*
X56828571Y-69265428D01*
X56900000Y-69122571D01*
X57042857Y-69051142D01*
X57185714Y-69051142D01*
X57328571Y-69765428D01*
X57828571Y-68408285D02*
X56828571Y-68408285D01*
X56971428Y-68408285D02*
X56900000Y-68336857D01*
X56828571Y-68194000D01*
X56828571Y-67979714D01*
X56900000Y-67836857D01*
X57042857Y-67765428D01*
X57828571Y-67765428D01*
X57042857Y-67765428D02*
X56900000Y-67694000D01*
X56828571Y-67551142D01*
X56828571Y-67336857D01*
X56900000Y-67194000D01*
X57042857Y-67122571D01*
X57828571Y-67122571D01*
X57828571Y-65765428D02*
X57042857Y-65765428D01*
X56900000Y-65836857D01*
X56828571Y-65979714D01*
X56828571Y-66265428D01*
X56900000Y-66408285D01*
X57757142Y-65765428D02*
X57828571Y-65908285D01*
X57828571Y-66265428D01*
X57757142Y-66408285D01*
X57614285Y-66479714D01*
X57471428Y-66479714D01*
X57328571Y-66408285D01*
X57257142Y-66265428D01*
X57257142Y-65908285D01*
X57185714Y-65765428D01*
X56828571Y-65265428D02*
X56828571Y-64694000D01*
X56328571Y-65051142D02*
X57614285Y-65051142D01*
X57757142Y-64979714D01*
X57828571Y-64836857D01*
X57828571Y-64694000D01*
X57828571Y-64194000D02*
X56828571Y-64194000D01*
X56328571Y-64194000D02*
X56400000Y-64265428D01*
X56471428Y-64194000D01*
X56400000Y-64122571D01*
X56328571Y-64194000D01*
X56471428Y-64194000D01*
X57757142Y-62836857D02*
X57828571Y-62979714D01*
X57828571Y-63265428D01*
X57757142Y-63408285D01*
X57685714Y-63479714D01*
X57542857Y-63551142D01*
X57114285Y-63551142D01*
X56971428Y-63479714D01*
X56900000Y-63408285D01*
X56828571Y-63265428D01*
X56828571Y-62979714D01*
X56900000Y-62836857D01*
X57828571Y-61051142D02*
X56328571Y-61051142D01*
X56900000Y-61051142D02*
X56828571Y-60908285D01*
X56828571Y-60622571D01*
X56900000Y-60479714D01*
X56971428Y-60408285D01*
X57114285Y-60336857D01*
X57542857Y-60336857D01*
X57685714Y-60408285D01*
X57757142Y-60479714D01*
X57828571Y-60622571D01*
X57828571Y-60908285D01*
X57757142Y-61051142D01*
X56828571Y-59836857D02*
X57828571Y-59479714D01*
X56828571Y-59122571D02*
X57828571Y-59479714D01*
X58185714Y-59622571D01*
X58257142Y-59694000D01*
X58328571Y-59836857D01*
X56328571Y-56979714D02*
X57400000Y-56979714D01*
X57614285Y-57051142D01*
X57757142Y-57194000D01*
X57828571Y-57408285D01*
X57828571Y-57551142D01*
X57042857Y-55122571D02*
X57042857Y-54622571D01*
X57828571Y-54408285D02*
X57828571Y-55122571D01*
X56328571Y-55122571D01*
X56328571Y-54408285D01*
X57828571Y-53122571D02*
X57042857Y-53122571D01*
X56900000Y-53194000D01*
X56828571Y-53336857D01*
X56828571Y-53622571D01*
X56900000Y-53765428D01*
X57757142Y-53122571D02*
X57828571Y-53265428D01*
X57828571Y-53622571D01*
X57757142Y-53765428D01*
X57614285Y-53836857D01*
X57471428Y-53836857D01*
X57328571Y-53765428D01*
X57257142Y-53622571D01*
X57257142Y-53265428D01*
X57185714Y-53122571D01*
X57757142Y-52479714D02*
X57828571Y-52336857D01*
X57828571Y-52051142D01*
X57757142Y-51908285D01*
X57614285Y-51836857D01*
X57542857Y-51836857D01*
X57400000Y-51908285D01*
X57328571Y-52051142D01*
X57328571Y-52265428D01*
X57257142Y-52408285D01*
X57114285Y-52479714D01*
X57042857Y-52479714D01*
X56900000Y-52408285D01*
X56828571Y-52265428D01*
X56828571Y-52051142D01*
X56900000Y-51908285D01*
X56828571Y-51408285D02*
X56828571Y-50836857D01*
X56328571Y-51194000D02*
X57614285Y-51194000D01*
X57757142Y-51122571D01*
X57828571Y-50979714D01*
X57828571Y-50836857D01*
X57828571Y-50336857D02*
X56828571Y-50336857D01*
X56971428Y-50336857D02*
X56900000Y-50265428D01*
X56828571Y-50122571D01*
X56828571Y-49908285D01*
X56900000Y-49765428D01*
X57042857Y-49694000D01*
X57828571Y-49694000D01*
X57042857Y-49694000D02*
X56900000Y-49622571D01*
X56828571Y-49479714D01*
X56828571Y-49265428D01*
X56900000Y-49122571D01*
X57042857Y-49051142D01*
X57828571Y-49051142D01*
X57828571Y-47694000D02*
X57042857Y-47694000D01*
X56900000Y-47765428D01*
X56828571Y-47908285D01*
X56828571Y-48194000D01*
X56900000Y-48336857D01*
X57757142Y-47694000D02*
X57828571Y-47836857D01*
X57828571Y-48194000D01*
X57757142Y-48336857D01*
X57614285Y-48408285D01*
X57471428Y-48408285D01*
X57328571Y-48336857D01*
X57257142Y-48194000D01*
X57257142Y-47836857D01*
X57185714Y-47694000D01*
X56828571Y-46979714D02*
X57828571Y-46979714D01*
X56971428Y-46979714D02*
X56900000Y-46908285D01*
X56828571Y-46765428D01*
X56828571Y-46551142D01*
X56900000Y-46408285D01*
X57042857Y-46336857D01*
X57828571Y-46336857D01*
X59592857Y-75086857D02*
X59664285Y-74872571D01*
X59735714Y-74801142D01*
X59878571Y-74729714D01*
X60092857Y-74729714D01*
X60235714Y-74801142D01*
X60307142Y-74872571D01*
X60378571Y-75015428D01*
X60378571Y-75586857D01*
X58878571Y-75586857D01*
X58878571Y-75086857D01*
X58950000Y-74944000D01*
X59021428Y-74872571D01*
X59164285Y-74801142D01*
X59307142Y-74801142D01*
X59450000Y-74872571D01*
X59521428Y-74944000D01*
X59592857Y-75086857D01*
X59592857Y-75586857D01*
X60378571Y-73872571D02*
X60307142Y-74015428D01*
X60235714Y-74086857D01*
X60092857Y-74158285D01*
X59664285Y-74158285D01*
X59521428Y-74086857D01*
X59450000Y-74015428D01*
X59378571Y-73872571D01*
X59378571Y-73658285D01*
X59450000Y-73515428D01*
X59521428Y-73444000D01*
X59664285Y-73372571D01*
X60092857Y-73372571D01*
X60235714Y-73444000D01*
X60307142Y-73515428D01*
X60378571Y-73658285D01*
X60378571Y-73872571D01*
X60378571Y-72086857D02*
X59592857Y-72086857D01*
X59450000Y-72158285D01*
X59378571Y-72301142D01*
X59378571Y-72586857D01*
X59450000Y-72729714D01*
X60307142Y-72086857D02*
X60378571Y-72229714D01*
X60378571Y-72586857D01*
X60307142Y-72729714D01*
X60164285Y-72801142D01*
X60021428Y-72801142D01*
X59878571Y-72729714D01*
X59807142Y-72586857D01*
X59807142Y-72229714D01*
X59735714Y-72086857D01*
X60378571Y-71372571D02*
X59378571Y-71372571D01*
X59664285Y-71372571D02*
X59521428Y-71301142D01*
X59450000Y-71229714D01*
X59378571Y-71086857D01*
X59378571Y-70944000D01*
X60378571Y-69801142D02*
X58878571Y-69801142D01*
X60307142Y-69801142D02*
X60378571Y-69944000D01*
X60378571Y-70229714D01*
X60307142Y-70372571D01*
X60235714Y-70444000D01*
X60092857Y-70515428D01*
X59664285Y-70515428D01*
X59521428Y-70444000D01*
X59450000Y-70372571D01*
X59378571Y-70229714D01*
X59378571Y-69944000D01*
X59450000Y-69801142D01*
X60378571Y-67301142D02*
X58878571Y-67301142D01*
X60307142Y-67301142D02*
X60378571Y-67444000D01*
X60378571Y-67729714D01*
X60307142Y-67872571D01*
X60235714Y-67944000D01*
X60092857Y-68015428D01*
X59664285Y-68015428D01*
X59521428Y-67944000D01*
X59450000Y-67872571D01*
X59378571Y-67729714D01*
X59378571Y-67444000D01*
X59450000Y-67301142D01*
X60307142Y-66015428D02*
X60378571Y-66158285D01*
X60378571Y-66444000D01*
X60307142Y-66586857D01*
X60164285Y-66658285D01*
X59592857Y-66658285D01*
X59450000Y-66586857D01*
X59378571Y-66444000D01*
X59378571Y-66158285D01*
X59450000Y-66015428D01*
X59592857Y-65944000D01*
X59735714Y-65944000D01*
X59878571Y-66658285D01*
X60307142Y-65372571D02*
X60378571Y-65229714D01*
X60378571Y-64944000D01*
X60307142Y-64801142D01*
X60164285Y-64729714D01*
X60092857Y-64729714D01*
X59950000Y-64801142D01*
X59878571Y-64944000D01*
X59878571Y-65158285D01*
X59807142Y-65301142D01*
X59664285Y-65372571D01*
X59592857Y-65372571D01*
X59450000Y-65301142D01*
X59378571Y-65158285D01*
X59378571Y-64944000D01*
X59450000Y-64801142D01*
X60378571Y-64086857D02*
X59378571Y-64086857D01*
X58878571Y-64086857D02*
X58950000Y-64158285D01*
X59021428Y-64086857D01*
X58950000Y-64015428D01*
X58878571Y-64086857D01*
X59021428Y-64086857D01*
X59378571Y-62729714D02*
X60592857Y-62729714D01*
X60735714Y-62801142D01*
X60807142Y-62872571D01*
X60878571Y-63015428D01*
X60878571Y-63229714D01*
X60807142Y-63372571D01*
X60307142Y-62729714D02*
X60378571Y-62872571D01*
X60378571Y-63158285D01*
X60307142Y-63301142D01*
X60235714Y-63372571D01*
X60092857Y-63444000D01*
X59664285Y-63444000D01*
X59521428Y-63372571D01*
X59450000Y-63301142D01*
X59378571Y-63158285D01*
X59378571Y-62872571D01*
X59450000Y-62729714D01*
X59378571Y-62015428D02*
X60378571Y-62015428D01*
X59521428Y-62015428D02*
X59450000Y-61944000D01*
X59378571Y-61801142D01*
X59378571Y-61586857D01*
X59450000Y-61444000D01*
X59592857Y-61372571D01*
X60378571Y-61372571D01*
X60378571Y-59515428D02*
X58878571Y-59515428D01*
X59450000Y-59515428D02*
X59378571Y-59372571D01*
X59378571Y-59086857D01*
X59450000Y-58944000D01*
X59521428Y-58872571D01*
X59664285Y-58801142D01*
X60092857Y-58801142D01*
X60235714Y-58872571D01*
X60307142Y-58944000D01*
X60378571Y-59086857D01*
X60378571Y-59372571D01*
X60307142Y-59515428D01*
X59378571Y-58301142D02*
X60378571Y-57944000D01*
X59378571Y-57586857D02*
X60378571Y-57944000D01*
X60735714Y-58086857D01*
X60807142Y-58158285D01*
X60878571Y-58301142D01*
X59950000Y-55944000D02*
X59950000Y-55229714D01*
X60378571Y-56086857D02*
X58878571Y-55586857D01*
X60378571Y-55086857D01*
X60378571Y-54586857D02*
X58878571Y-54586857D01*
X59950000Y-54086857D01*
X58878571Y-53586857D01*
X60378571Y-53586857D01*
X60235714Y-50872571D02*
X60307142Y-50944000D01*
X60378571Y-51158285D01*
X60378571Y-51301142D01*
X60307142Y-51515428D01*
X60164285Y-51658285D01*
X60021428Y-51729714D01*
X59735714Y-51801142D01*
X59521428Y-51801142D01*
X59235714Y-51729714D01*
X59092857Y-51658285D01*
X58950000Y-51515428D01*
X58878571Y-51301142D01*
X58878571Y-51158285D01*
X58950000Y-50944000D01*
X59021428Y-50872571D01*
X60378571Y-50229714D02*
X58878571Y-50229714D01*
X60378571Y-49586857D02*
X59592857Y-49586857D01*
X59450000Y-49658285D01*
X59378571Y-49801142D01*
X59378571Y-50015428D01*
X59450000Y-50158285D01*
X59521428Y-50229714D01*
X60378571Y-48229714D02*
X59592857Y-48229714D01*
X59450000Y-48301142D01*
X59378571Y-48444000D01*
X59378571Y-48729714D01*
X59450000Y-48872571D01*
X60307142Y-48229714D02*
X60378571Y-48372571D01*
X60378571Y-48729714D01*
X60307142Y-48872571D01*
X60164285Y-48944000D01*
X60021428Y-48944000D01*
X59878571Y-48872571D01*
X59807142Y-48729714D01*
X59807142Y-48372571D01*
X59735714Y-48229714D01*
X59378571Y-46872571D02*
X60592857Y-46872571D01*
X60735714Y-46944000D01*
X60807142Y-47015428D01*
X60878571Y-47158285D01*
X60878571Y-47372571D01*
X60807142Y-47515428D01*
X60307142Y-46872571D02*
X60378571Y-47015428D01*
X60378571Y-47301142D01*
X60307142Y-47444000D01*
X60235714Y-47515428D01*
X60092857Y-47586857D01*
X59664285Y-47586857D01*
X59521428Y-47515428D01*
X59450000Y-47444000D01*
X59378571Y-47301142D01*
X59378571Y-47015428D01*
X59450000Y-46872571D01*
X60378571Y-45515428D02*
X59592857Y-45515428D01*
X59450000Y-45586857D01*
X59378571Y-45729714D01*
X59378571Y-46015428D01*
X59450000Y-46158285D01*
X60307142Y-45515428D02*
X60378571Y-45658285D01*
X60378571Y-46015428D01*
X60307142Y-46158285D01*
X60164285Y-46229714D01*
X60021428Y-46229714D01*
X59878571Y-46158285D01*
X59807142Y-46015428D01*
X59807142Y-45658285D01*
X59735714Y-45515428D01*
X60307142Y-44872571D02*
X60378571Y-44729714D01*
X60378571Y-44444000D01*
X60307142Y-44301142D01*
X60164285Y-44229714D01*
X60092857Y-44229714D01*
X59950000Y-44301142D01*
X59878571Y-44444000D01*
X59878571Y-44658285D01*
X59807142Y-44801142D01*
X59664285Y-44872571D01*
X59592857Y-44872571D01*
X59450000Y-44801142D01*
X59378571Y-44658285D01*
X59378571Y-44444000D01*
X59450000Y-44301142D01*
D11*
X100330095Y-43696000D02*
X100234857Y-43648380D01*
X100092000Y-43648380D01*
X99949142Y-43696000D01*
X99853904Y-43791238D01*
X99806285Y-43886476D01*
X99758666Y-44076952D01*
X99758666Y-44219809D01*
X99806285Y-44410285D01*
X99853904Y-44505523D01*
X99949142Y-44600761D01*
X100092000Y-44648380D01*
X100187238Y-44648380D01*
X100330095Y-44600761D01*
X100377714Y-44553142D01*
X100377714Y-44219809D01*
X100187238Y-44219809D01*
X100806285Y-44648380D02*
X100806285Y-43648380D01*
X101377714Y-44648380D01*
X101377714Y-43648380D01*
X101853904Y-44648380D02*
X101853904Y-43648380D01*
X102092000Y-43648380D01*
X102234857Y-43696000D01*
X102330095Y-43791238D01*
X102377714Y-43886476D01*
X102425333Y-44076952D01*
X102425333Y-44219809D01*
X102377714Y-44410285D01*
X102330095Y-44505523D01*
X102234857Y-44600761D01*
X102092000Y-44648380D01*
X101853904Y-44648380D01*
X99552285Y-41727428D02*
X100314190Y-41727428D01*
X99933238Y-42108380D02*
X99933238Y-41346476D01*
X101266571Y-41108380D02*
X100790380Y-41108380D01*
X100742761Y-41584571D01*
X100790380Y-41536952D01*
X100885619Y-41489333D01*
X101123714Y-41489333D01*
X101218952Y-41536952D01*
X101266571Y-41584571D01*
X101314190Y-41679809D01*
X101314190Y-41917904D01*
X101266571Y-42013142D01*
X101218952Y-42060761D01*
X101123714Y-42108380D01*
X100885619Y-42108380D01*
X100790380Y-42060761D01*
X100742761Y-42013142D01*
X101599904Y-41108380D02*
X101933238Y-42108380D01*
X102266571Y-41108380D01*
X111722857Y-81989142D02*
X111722857Y-82489142D01*
X112508571Y-82489142D02*
X111008571Y-82489142D01*
X111008571Y-81774857D01*
X111722857Y-81203428D02*
X111722857Y-80703428D01*
X112508571Y-80489142D02*
X112508571Y-81203428D01*
X111008571Y-81203428D01*
X111008571Y-80489142D01*
X112508571Y-79846285D02*
X111008571Y-79846285D01*
X111008571Y-79489142D01*
X111080000Y-79274857D01*
X111222857Y-79132000D01*
X111365714Y-79060571D01*
X111651428Y-78989142D01*
X111865714Y-78989142D01*
X112151428Y-79060571D01*
X112294285Y-79132000D01*
X112437142Y-79274857D01*
X112508571Y-79489142D01*
X112508571Y-79846285D01*
X111008571Y-78489142D02*
X112508571Y-78132000D01*
X111437142Y-77846285D01*
X112508571Y-77560571D01*
X111008571Y-77203428D01*
X112508571Y-75989142D02*
X111722857Y-75989142D01*
X111580000Y-76060571D01*
X111508571Y-76203428D01*
X111508571Y-76489142D01*
X111580000Y-76632000D01*
X112437142Y-75989142D02*
X112508571Y-76132000D01*
X112508571Y-76489142D01*
X112437142Y-76632000D01*
X112294285Y-76703428D01*
X112151428Y-76703428D01*
X112008571Y-76632000D01*
X111937142Y-76489142D01*
X111937142Y-76132000D01*
X111865714Y-75989142D01*
X111508571Y-75489142D02*
X111508571Y-74917714D01*
X111008571Y-75274857D02*
X112294285Y-75274857D01*
X112437142Y-75203428D01*
X112508571Y-75060571D01*
X112508571Y-74917714D01*
X112437142Y-73774857D02*
X112508571Y-73917714D01*
X112508571Y-74203428D01*
X112437142Y-74346285D01*
X112365714Y-74417714D01*
X112222857Y-74489142D01*
X111794285Y-74489142D01*
X111651428Y-74417714D01*
X111580000Y-74346285D01*
X111508571Y-74203428D01*
X111508571Y-73917714D01*
X111580000Y-73774857D01*
X112508571Y-73132000D02*
X111008571Y-73132000D01*
X112508571Y-72489142D02*
X111722857Y-72489142D01*
X111580000Y-72560571D01*
X111508571Y-72703428D01*
X111508571Y-72917714D01*
X111580000Y-73060571D01*
X111651428Y-73132000D01*
X112437142Y-71203428D02*
X112508571Y-71346285D01*
X112508571Y-71632000D01*
X112437142Y-71774857D01*
X112294285Y-71846285D01*
X111722857Y-71846285D01*
X111580000Y-71774857D01*
X111508571Y-71632000D01*
X111508571Y-71346285D01*
X111580000Y-71203428D01*
X111722857Y-71132000D01*
X111865714Y-71132000D01*
X112008571Y-71846285D01*
X112508571Y-70489142D02*
X111508571Y-70489142D01*
X111794285Y-70489142D02*
X111651428Y-70417714D01*
X111580000Y-70346285D01*
X111508571Y-70203428D01*
X111508571Y-70060571D01*
X112437142Y-68489142D02*
X112508571Y-68346285D01*
X112508571Y-68060571D01*
X112437142Y-67917714D01*
X112294285Y-67846285D01*
X112222857Y-67846285D01*
X112080000Y-67917714D01*
X112008571Y-68060571D01*
X112008571Y-68274857D01*
X111937142Y-68417714D01*
X111794285Y-68489142D01*
X111722857Y-68489142D01*
X111580000Y-68417714D01*
X111508571Y-68274857D01*
X111508571Y-68060571D01*
X111580000Y-67917714D01*
X112508571Y-67203428D02*
X111008571Y-67203428D01*
X112508571Y-66560571D02*
X111722857Y-66560571D01*
X111580000Y-66632000D01*
X111508571Y-66774857D01*
X111508571Y-66989142D01*
X111580000Y-67132000D01*
X111651428Y-67203428D01*
X112508571Y-65846285D02*
X111508571Y-65846285D01*
X111008571Y-65846285D02*
X111080000Y-65917714D01*
X111151428Y-65846285D01*
X111080000Y-65774857D01*
X111008571Y-65846285D01*
X111151428Y-65846285D01*
X112437142Y-64560571D02*
X112508571Y-64703428D01*
X112508571Y-64989142D01*
X112437142Y-65132000D01*
X112294285Y-65203428D01*
X111722857Y-65203428D01*
X111580000Y-65132000D01*
X111508571Y-64989142D01*
X111508571Y-64703428D01*
X111580000Y-64560571D01*
X111722857Y-64489142D01*
X111865714Y-64489142D01*
X112008571Y-65203428D01*
X112508571Y-63632000D02*
X112437142Y-63774857D01*
X112294285Y-63846285D01*
X111008571Y-63846285D01*
X112508571Y-62417714D02*
X111008571Y-62417714D01*
X112437142Y-62417714D02*
X112508571Y-62560571D01*
X112508571Y-62846285D01*
X112437142Y-62989142D01*
X112365714Y-63060571D01*
X112222857Y-63132000D01*
X111794285Y-63132000D01*
X111651428Y-63060571D01*
X111580000Y-62989142D01*
X111508571Y-62846285D01*
X111508571Y-62560571D01*
X111580000Y-62417714D01*
X113908571Y-74024857D02*
X114908571Y-73667714D01*
X113908571Y-73310571D01*
X113408571Y-72453428D02*
X113408571Y-72310571D01*
X113480000Y-72167714D01*
X113551428Y-72096285D01*
X113694285Y-72024857D01*
X113980000Y-71953428D01*
X114337142Y-71953428D01*
X114622857Y-72024857D01*
X114765714Y-72096285D01*
X114837142Y-72167714D01*
X114908571Y-72310571D01*
X114908571Y-72453428D01*
X114837142Y-72596285D01*
X114765714Y-72667714D01*
X114622857Y-72739142D01*
X114337142Y-72810571D01*
X113980000Y-72810571D01*
X113694285Y-72739142D01*
X113551428Y-72667714D01*
X113480000Y-72596285D01*
X113408571Y-72453428D01*
X114765714Y-71310571D02*
X114837142Y-71239142D01*
X114908571Y-71310571D01*
X114837142Y-71382000D01*
X114765714Y-71310571D01*
X114908571Y-71310571D01*
X114908571Y-69810571D02*
X114908571Y-70667714D01*
X114908571Y-70239142D02*
X113408571Y-70239142D01*
X113622857Y-70382000D01*
X113765714Y-70524857D01*
X113837142Y-70667714D01*
X98671238Y-68365714D02*
X98671238Y-69175238D01*
X98623619Y-69270476D01*
X98576000Y-69318095D01*
X98480761Y-69365714D01*
X98337904Y-69365714D01*
X98242666Y-69318095D01*
X98671238Y-68984761D02*
X98576000Y-69032380D01*
X98385523Y-69032380D01*
X98290285Y-68984761D01*
X98242666Y-68937142D01*
X98195047Y-68841904D01*
X98195047Y-68556190D01*
X98242666Y-68460952D01*
X98290285Y-68413333D01*
X98385523Y-68365714D01*
X98576000Y-68365714D01*
X98671238Y-68413333D01*
X99147428Y-68365714D02*
X99147428Y-69365714D01*
X99147428Y-68413333D02*
X99242666Y-68365714D01*
X99433142Y-68365714D01*
X99528380Y-68413333D01*
X99576000Y-68460952D01*
X99623619Y-68556190D01*
X99623619Y-68841904D01*
X99576000Y-68937142D01*
X99528380Y-68984761D01*
X99433142Y-69032380D01*
X99242666Y-69032380D01*
X99147428Y-68984761D01*
X100052190Y-69032380D02*
X100052190Y-68365714D01*
X100052190Y-68032380D02*
X100004571Y-68080000D01*
X100052190Y-68127619D01*
X100099809Y-68080000D01*
X100052190Y-68032380D01*
X100052190Y-68127619D01*
X100671238Y-69032380D02*
X100576000Y-68984761D01*
X100528380Y-68937142D01*
X100480761Y-68841904D01*
X100480761Y-68556190D01*
X100528380Y-68460952D01*
X100576000Y-68413333D01*
X100671238Y-68365714D01*
X100814095Y-68365714D01*
X100909333Y-68413333D01*
X100956952Y-68460952D01*
X101004571Y-68556190D01*
X101004571Y-68841904D01*
X100956952Y-68937142D01*
X100909333Y-68984761D01*
X100814095Y-69032380D01*
X100671238Y-69032380D01*
X101480761Y-69032380D02*
X101671238Y-69032380D01*
X101766476Y-68984761D01*
X101814095Y-68937142D01*
X101909333Y-68794285D01*
X101956952Y-68603809D01*
X101956952Y-68222857D01*
X101909333Y-68127619D01*
X101861714Y-68080000D01*
X101766476Y-68032380D01*
X101576000Y-68032380D01*
X101480761Y-68080000D01*
X101433142Y-68127619D01*
X101385523Y-68222857D01*
X101385523Y-68460952D01*
X101433142Y-68556190D01*
X101480761Y-68603809D01*
X101576000Y-68651428D01*
X101766476Y-68651428D01*
X101861714Y-68603809D01*
X101909333Y-68556190D01*
X101956952Y-68460952D01*
X65429047Y-68365714D02*
X65429047Y-69175238D01*
X65381428Y-69270476D01*
X65333809Y-69318095D01*
X65238571Y-69365714D01*
X65095714Y-69365714D01*
X65000476Y-69318095D01*
X65429047Y-68984761D02*
X65333809Y-69032380D01*
X65143333Y-69032380D01*
X65048095Y-68984761D01*
X65000476Y-68937142D01*
X64952857Y-68841904D01*
X64952857Y-68556190D01*
X65000476Y-68460952D01*
X65048095Y-68413333D01*
X65143333Y-68365714D01*
X65333809Y-68365714D01*
X65429047Y-68413333D01*
X65905238Y-68365714D02*
X65905238Y-69365714D01*
X65905238Y-68413333D02*
X66000476Y-68365714D01*
X66190952Y-68365714D01*
X66286190Y-68413333D01*
X66333809Y-68460952D01*
X66381428Y-68556190D01*
X66381428Y-68841904D01*
X66333809Y-68937142D01*
X66286190Y-68984761D01*
X66190952Y-69032380D01*
X66000476Y-69032380D01*
X65905238Y-68984761D01*
X66810000Y-69032380D02*
X66810000Y-68365714D01*
X66810000Y-68032380D02*
X66762380Y-68080000D01*
X66810000Y-68127619D01*
X66857619Y-68080000D01*
X66810000Y-68032380D01*
X66810000Y-68127619D01*
X67429047Y-69032380D02*
X67333809Y-68984761D01*
X67286190Y-68937142D01*
X67238571Y-68841904D01*
X67238571Y-68556190D01*
X67286190Y-68460952D01*
X67333809Y-68413333D01*
X67429047Y-68365714D01*
X67571904Y-68365714D01*
X67667142Y-68413333D01*
X67714761Y-68460952D01*
X67762380Y-68556190D01*
X67762380Y-68841904D01*
X67714761Y-68937142D01*
X67667142Y-68984761D01*
X67571904Y-69032380D01*
X67429047Y-69032380D01*
X68714761Y-69032380D02*
X68143333Y-69032380D01*
X68429047Y-69032380D02*
X68429047Y-68032380D01*
X68333809Y-68175238D01*
X68238571Y-68270476D01*
X68143333Y-68318095D01*
X69048095Y-68032380D02*
X69667142Y-68032380D01*
X69333809Y-68413333D01*
X69476666Y-68413333D01*
X69571904Y-68460952D01*
X69619523Y-68508571D01*
X69667142Y-68603809D01*
X69667142Y-68841904D01*
X69619523Y-68937142D01*
X69571904Y-68984761D01*
X69476666Y-69032380D01*
X69190952Y-69032380D01*
X69095714Y-68984761D01*
X69048095Y-68937142D01*
X76573238Y-68365714D02*
X76573238Y-69175238D01*
X76525619Y-69270476D01*
X76478000Y-69318095D01*
X76382761Y-69365714D01*
X76239904Y-69365714D01*
X76144666Y-69318095D01*
X76573238Y-68984761D02*
X76478000Y-69032380D01*
X76287523Y-69032380D01*
X76192285Y-68984761D01*
X76144666Y-68937142D01*
X76097047Y-68841904D01*
X76097047Y-68556190D01*
X76144666Y-68460952D01*
X76192285Y-68413333D01*
X76287523Y-68365714D01*
X76478000Y-68365714D01*
X76573238Y-68413333D01*
X77049428Y-68365714D02*
X77049428Y-69365714D01*
X77049428Y-68413333D02*
X77144666Y-68365714D01*
X77335142Y-68365714D01*
X77430380Y-68413333D01*
X77478000Y-68460952D01*
X77525619Y-68556190D01*
X77525619Y-68841904D01*
X77478000Y-68937142D01*
X77430380Y-68984761D01*
X77335142Y-69032380D01*
X77144666Y-69032380D01*
X77049428Y-68984761D01*
X77954190Y-69032380D02*
X77954190Y-68365714D01*
X77954190Y-68032380D02*
X77906571Y-68080000D01*
X77954190Y-68127619D01*
X78001809Y-68080000D01*
X77954190Y-68032380D01*
X77954190Y-68127619D01*
X78573238Y-69032380D02*
X78478000Y-68984761D01*
X78430380Y-68937142D01*
X78382761Y-68841904D01*
X78382761Y-68556190D01*
X78430380Y-68460952D01*
X78478000Y-68413333D01*
X78573238Y-68365714D01*
X78716095Y-68365714D01*
X78811333Y-68413333D01*
X78858952Y-68460952D01*
X78906571Y-68556190D01*
X78906571Y-68841904D01*
X78858952Y-68937142D01*
X78811333Y-68984761D01*
X78716095Y-69032380D01*
X78573238Y-69032380D01*
X79811333Y-68032380D02*
X79335142Y-68032380D01*
X79287523Y-68508571D01*
X79335142Y-68460952D01*
X79430380Y-68413333D01*
X79668476Y-68413333D01*
X79763714Y-68460952D01*
X79811333Y-68508571D01*
X79858952Y-68603809D01*
X79858952Y-68841904D01*
X79811333Y-68937142D01*
X79763714Y-68984761D01*
X79668476Y-69032380D01*
X79430380Y-69032380D01*
X79335142Y-68984761D01*
X79287523Y-68937142D01*
X87749238Y-68365714D02*
X87749238Y-69175238D01*
X87701619Y-69270476D01*
X87654000Y-69318095D01*
X87558761Y-69365714D01*
X87415904Y-69365714D01*
X87320666Y-69318095D01*
X87749238Y-68984761D02*
X87654000Y-69032380D01*
X87463523Y-69032380D01*
X87368285Y-68984761D01*
X87320666Y-68937142D01*
X87273047Y-68841904D01*
X87273047Y-68556190D01*
X87320666Y-68460952D01*
X87368285Y-68413333D01*
X87463523Y-68365714D01*
X87654000Y-68365714D01*
X87749238Y-68413333D01*
X88225428Y-68365714D02*
X88225428Y-69365714D01*
X88225428Y-68413333D02*
X88320666Y-68365714D01*
X88511142Y-68365714D01*
X88606380Y-68413333D01*
X88654000Y-68460952D01*
X88701619Y-68556190D01*
X88701619Y-68841904D01*
X88654000Y-68937142D01*
X88606380Y-68984761D01*
X88511142Y-69032380D01*
X88320666Y-69032380D01*
X88225428Y-68984761D01*
X89130190Y-69032380D02*
X89130190Y-68365714D01*
X89130190Y-68032380D02*
X89082571Y-68080000D01*
X89130190Y-68127619D01*
X89177809Y-68080000D01*
X89130190Y-68032380D01*
X89130190Y-68127619D01*
X89749238Y-69032380D02*
X89654000Y-68984761D01*
X89606380Y-68937142D01*
X89558761Y-68841904D01*
X89558761Y-68556190D01*
X89606380Y-68460952D01*
X89654000Y-68413333D01*
X89749238Y-68365714D01*
X89892095Y-68365714D01*
X89987333Y-68413333D01*
X90034952Y-68460952D01*
X90082571Y-68556190D01*
X90082571Y-68841904D01*
X90034952Y-68937142D01*
X89987333Y-68984761D01*
X89892095Y-69032380D01*
X89749238Y-69032380D01*
X91034952Y-69032380D02*
X90463523Y-69032380D01*
X90749238Y-69032380D02*
X90749238Y-68032380D01*
X90654000Y-68175238D01*
X90558761Y-68270476D01*
X90463523Y-68318095D01*
D12*
%TO.C,J1*%
X102042000Y-88124000D02*
X95802000Y-88124000D01*
X95802000Y-88124000D02*
X95802000Y-84124000D01*
X95802000Y-84124000D02*
X95502000Y-84124000D01*
X95502000Y-84124000D02*
X95502000Y-69884000D01*
X95502000Y-69884000D02*
X103942000Y-69884000D01*
X103942000Y-69884000D02*
X103942000Y-84124000D01*
X103942000Y-84124000D02*
X102042000Y-84124000D01*
X102042000Y-84124000D02*
X102042000Y-88124000D01*
%TO.C,J2*%
X80198000Y-84124000D02*
X80198000Y-88124000D01*
X82098000Y-84124000D02*
X80198000Y-84124000D01*
X82098000Y-69884000D02*
X82098000Y-84124000D01*
X73658000Y-69884000D02*
X82098000Y-69884000D01*
X73658000Y-84124000D02*
X73658000Y-69884000D01*
X73958000Y-84124000D02*
X73658000Y-84124000D01*
X73958000Y-88124000D02*
X73958000Y-84124000D01*
X80198000Y-88124000D02*
X73958000Y-88124000D01*
%TO.C,J3*%
X91120000Y-88124000D02*
X84880000Y-88124000D01*
X84880000Y-88124000D02*
X84880000Y-84124000D01*
X84880000Y-84124000D02*
X84580000Y-84124000D01*
X84580000Y-84124000D02*
X84580000Y-69884000D01*
X84580000Y-69884000D02*
X93020000Y-69884000D01*
X93020000Y-69884000D02*
X93020000Y-84124000D01*
X93020000Y-84124000D02*
X91120000Y-84124000D01*
X91120000Y-84124000D02*
X91120000Y-88124000D01*
%TO.C,J4*%
X69276000Y-84124000D02*
X69276000Y-88124000D01*
X71176000Y-84124000D02*
X69276000Y-84124000D01*
X71176000Y-69884000D02*
X71176000Y-84124000D01*
X62736000Y-69884000D02*
X71176000Y-69884000D01*
X62736000Y-84124000D02*
X62736000Y-69884000D01*
X63036000Y-84124000D02*
X62736000Y-84124000D01*
X63036000Y-88124000D02*
X63036000Y-84124000D01*
X69276000Y-88124000D02*
X63036000Y-88124000D01*
D13*
%TO.C,J5*%
X108204000Y-37338000D02*
X108204000Y-37338000D01*
X108204000Y-37338000D02*
X108204000Y-37338000D01*
X108204000Y-37338000D02*
X108204000Y-37338000D01*
X108204000Y-37338000D02*
X108204000Y-37338000D01*
X58674000Y-38543000D02*
X58674000Y-33593000D01*
X109474000Y-38543000D02*
X58674000Y-38543000D01*
X109474000Y-33593000D02*
X109474000Y-38543000D01*
X58674000Y-33593000D02*
X109474000Y-33593000D01*
D12*
%TO.C,M1*%
X103378000Y-40386000D02*
X104648000Y-40386000D01*
X103378000Y-41656000D02*
X103378000Y-40386000D01*
X105690929Y-44576000D02*
X106088000Y-44576000D01*
X105690929Y-43816000D02*
X106088000Y-43816000D01*
X114748000Y-44576000D02*
X108748000Y-44576000D01*
X114748000Y-43816000D02*
X114748000Y-44576000D01*
X108748000Y-43816000D02*
X114748000Y-43816000D01*
X106088000Y-42926000D02*
X108748000Y-42926000D01*
X105758000Y-42036000D02*
X106088000Y-42036000D01*
X105758000Y-41276000D02*
X106088000Y-41276000D01*
X108748000Y-41936000D02*
X114748000Y-41936000D01*
X108748000Y-41816000D02*
X114748000Y-41816000D01*
X108748000Y-41696000D02*
X114748000Y-41696000D01*
X108748000Y-41576000D02*
X114748000Y-41576000D01*
X108748000Y-41456000D02*
X114748000Y-41456000D01*
X108748000Y-41336000D02*
X114748000Y-41336000D01*
X114748000Y-42036000D02*
X108748000Y-42036000D01*
X114748000Y-41276000D02*
X114748000Y-42036000D01*
X108748000Y-41276000D02*
X114748000Y-41276000D01*
X108748000Y-40326000D02*
X106088000Y-40326000D01*
X108748000Y-45526000D02*
X108748000Y-40326000D01*
X106088000Y-45526000D02*
X108748000Y-45526000D01*
X106088000Y-40326000D02*
X106088000Y-45526000D01*
%TO.C,J1*%
D11*
X95678666Y-68286380D02*
X95678666Y-69000666D01*
X95631047Y-69143523D01*
X95535809Y-69238761D01*
X95392952Y-69286380D01*
X95297714Y-69286380D01*
X96678666Y-69286380D02*
X96107238Y-69286380D01*
X96392952Y-69286380D02*
X96392952Y-68286380D01*
X96297714Y-68429238D01*
X96202476Y-68524476D01*
X96107238Y-68572095D01*
%TO.C,J2*%
X73580666Y-68032380D02*
X73580666Y-68746666D01*
X73533047Y-68889523D01*
X73437809Y-68984761D01*
X73294952Y-69032380D01*
X73199714Y-69032380D01*
X74009238Y-68127619D02*
X74056857Y-68080000D01*
X74152095Y-68032380D01*
X74390190Y-68032380D01*
X74485428Y-68080000D01*
X74533047Y-68127619D01*
X74580666Y-68222857D01*
X74580666Y-68318095D01*
X74533047Y-68460952D01*
X73961619Y-69032380D01*
X74580666Y-69032380D01*
%TO.C,J3*%
X84502666Y-68286380D02*
X84502666Y-69000666D01*
X84455047Y-69143523D01*
X84359809Y-69238761D01*
X84216952Y-69286380D01*
X84121714Y-69286380D01*
X84883619Y-68286380D02*
X85502666Y-68286380D01*
X85169333Y-68667333D01*
X85312190Y-68667333D01*
X85407428Y-68714952D01*
X85455047Y-68762571D01*
X85502666Y-68857809D01*
X85502666Y-69095904D01*
X85455047Y-69191142D01*
X85407428Y-69238761D01*
X85312190Y-69286380D01*
X85026476Y-69286380D01*
X84931238Y-69238761D01*
X84883619Y-69191142D01*
%TO.C,J4*%
X62912666Y-68286380D02*
X62912666Y-69000666D01*
X62865047Y-69143523D01*
X62769809Y-69238761D01*
X62626952Y-69286380D01*
X62531714Y-69286380D01*
X63817428Y-68619714D02*
X63817428Y-69286380D01*
X63579333Y-68238761D02*
X63341238Y-68953047D01*
X63960285Y-68953047D01*
%TO.C,J5*%
D14*
X46340665Y-35124522D02*
X46340665Y-36031665D01*
X46280189Y-36213094D01*
X46159237Y-36334046D01*
X45977808Y-36394522D01*
X45856856Y-36394522D01*
X47550189Y-35124522D02*
X46945427Y-35124522D01*
X46884951Y-35729284D01*
X46945427Y-35668808D01*
X47066379Y-35608332D01*
X47368760Y-35608332D01*
X47489713Y-35668808D01*
X47550189Y-35729284D01*
X47610665Y-35850237D01*
X47610665Y-36152618D01*
X47550189Y-36273570D01*
X47489713Y-36334046D01*
X47368760Y-36394522D01*
X47066379Y-36394522D01*
X46945427Y-36334046D01*
X46884951Y-36273570D01*
%TO.C,M1*%
D11*
X108223476Y-39838380D02*
X108223476Y-38838380D01*
X108556809Y-39552666D01*
X108890142Y-38838380D01*
X108890142Y-39838380D01*
X109890142Y-39838380D02*
X109318714Y-39838380D01*
X109604428Y-39838380D02*
X109604428Y-38838380D01*
X109509190Y-38981238D01*
X109413952Y-39076476D01*
X109318714Y-39124095D01*
%TD*%
M02*
