%TF.GenerationSoftware,KiCad,Pcbnew,5.1.10-88a1d61d58~90~ubuntu20.04.1*%
%TF.CreationDate,2022-01-13T19:57:23+00:00*%
%TF.ProjectId,RPi_shield,5250695f-7368-4696-956c-642e6b696361,rev?*%
%TF.SameCoordinates,Original*%
%TF.FileFunction,Copper,L1,Top*%
%TF.FilePolarity,Positive*%
%FSLAX46Y46*%
G04 Gerber Fmt 4.6, Leading zero omitted, Abs format (unit mm)*
G04 Created by KiCad (PCBNEW 5.1.10-88a1d61d58~90~ubuntu20.04.1) date 2022-01-13 19:57:23*
%MOMM*%
%LPD*%
G01*
G04 APERTURE LIST*
%TA.AperFunction,ComponentPad*%
%ADD10O,2.800000X1.800000*%
%TD*%
%TA.AperFunction,ComponentPad*%
%ADD11R,1.640000X1.640000*%
%TD*%
%TA.AperFunction,ComponentPad*%
%ADD12C,1.640000*%
%TD*%
%TA.AperFunction,ComponentPad*%
%ADD13R,1.700000X1.700000*%
%TD*%
%TA.AperFunction,ComponentPad*%
%ADD14O,1.700000X1.700000*%
%TD*%
%TA.AperFunction,Conductor*%
%ADD15C,0.250000*%
%TD*%
G04 APERTURE END LIST*
D10*
%TO.P,J1,R*%
%TO.N,jack3*%
X97822000Y-74904000D03*
%TO.P,J1,T*%
X97822000Y-80404000D03*
%TO.P,J1,S*%
%TO.N,GND*%
X99822000Y-82804000D03*
%TD*%
%TO.P,J2,S*%
%TO.N,GND*%
X77978000Y-82804000D03*
%TO.P,J2,T*%
%TO.N,jack2*%
X75978000Y-80404000D03*
%TO.P,J2,R*%
X75978000Y-74904000D03*
%TD*%
%TO.P,J3,R*%
%TO.N,jack1*%
X86900000Y-74904000D03*
%TO.P,J3,T*%
X86900000Y-80404000D03*
%TO.P,J3,S*%
%TO.N,GND*%
X88900000Y-82804000D03*
%TD*%
%TO.P,J4,S*%
%TO.N,GND*%
X67056000Y-82804000D03*
%TO.P,J4,T*%
%TO.N,jack4*%
X65056000Y-80404000D03*
%TO.P,J4,R*%
X65056000Y-74904000D03*
%TD*%
D11*
%TO.P,J5,1*%
%TO.N,Net-(J5-Pad1)*%
X108204000Y-37338000D03*
D12*
%TO.P,J5,2*%
%TO.N,+5V*%
X108204000Y-34798000D03*
%TO.P,J5,3*%
%TO.N,Net-(J5-Pad3)*%
X105664000Y-37338000D03*
%TO.P,J5,4*%
%TO.N,+5V*%
X105664000Y-34798000D03*
%TO.P,J5,5*%
%TO.N,Net-(J5-Pad5)*%
X103124000Y-37338000D03*
%TO.P,J5,6*%
%TO.N,GND*%
X103124000Y-34798000D03*
%TO.P,J5,7*%
%TO.N,Net-(J5-Pad7)*%
X100584000Y-37338000D03*
%TO.P,J5,8*%
%TO.N,Net-(J5-Pad8)*%
X100584000Y-34798000D03*
%TO.P,J5,9*%
%TO.N,GND*%
X98044000Y-37338000D03*
%TO.P,J5,10*%
%TO.N,Net-(J5-Pad10)*%
X98044000Y-34798000D03*
%TO.P,J5,11*%
%TO.N,Net-(J5-Pad11)*%
X95504000Y-37338000D03*
%TO.P,J5,12*%
%TO.N,Net-(J5-Pad12)*%
X95504000Y-34798000D03*
%TO.P,J5,13*%
%TO.N,Net-(J5-Pad13)*%
X92964000Y-37338000D03*
%TO.P,J5,14*%
%TO.N,GND*%
X92964000Y-34798000D03*
%TO.P,J5,15*%
%TO.N,Net-(J5-Pad15)*%
X90424000Y-37338000D03*
%TO.P,J5,16*%
%TO.N,Net-(J5-Pad16)*%
X90424000Y-34798000D03*
%TO.P,J5,17*%
%TO.N,Net-(J5-Pad17)*%
X87884000Y-37338000D03*
%TO.P,J5,18*%
%TO.N,Net-(J5-Pad18)*%
X87884000Y-34798000D03*
%TO.P,J5,19*%
%TO.N,Net-(J5-Pad19)*%
X85344000Y-37338000D03*
%TO.P,J5,20*%
%TO.N,GND*%
X85344000Y-34798000D03*
%TO.P,J5,21*%
%TO.N,jack3*%
X82804000Y-37338000D03*
%TO.P,J5,22*%
%TO.N,Net-(J5-Pad22)*%
X82804000Y-34798000D03*
%TO.P,J5,23*%
%TO.N,Net-(J5-Pad23)*%
X80264000Y-37338000D03*
%TO.P,J5,24*%
%TO.N,Net-(J5-Pad24)*%
X80264000Y-34798000D03*
%TO.P,J5,25*%
%TO.N,GND*%
X77724000Y-37338000D03*
%TO.P,J5,26*%
%TO.N,Net-(J5-Pad26)*%
X77724000Y-34798000D03*
%TO.P,J5,27*%
%TO.N,Net-(J5-Pad27)*%
X75184000Y-37338000D03*
%TO.P,J5,28*%
%TO.N,jack1*%
X75184000Y-34798000D03*
%TO.P,J5,29*%
%TO.N,jack2*%
X72644000Y-37338000D03*
%TO.P,J5,30*%
%TO.N,GND*%
X72644000Y-34798000D03*
%TO.P,J5,31*%
%TO.N,Net-(J5-Pad31)*%
X70104000Y-37338000D03*
%TO.P,J5,32*%
%TO.N,Net-(J5-Pad32)*%
X70104000Y-34798000D03*
%TO.P,J5,33*%
%TO.N,jack4*%
X67564000Y-37338000D03*
%TO.P,J5,34*%
%TO.N,GND*%
X67564000Y-34798000D03*
%TO.P,J5,35*%
%TO.N,Net-(J5-Pad35)*%
X65024000Y-37338000D03*
%TO.P,J5,36*%
%TO.N,Net-(J5-Pad36)*%
X65024000Y-34798000D03*
%TO.P,J5,37*%
%TO.N,Net-(J5-Pad37)*%
X62484000Y-37338000D03*
%TO.P,J5,38*%
%TO.N,Net-(J5-Pad38)*%
X62484000Y-34798000D03*
%TO.P,J5,39*%
%TO.N,GND*%
X59944000Y-37338000D03*
%TO.P,J5,40*%
%TO.N,Net-(J5-Pad40)*%
X59944000Y-34798000D03*
%TD*%
D13*
%TO.P,M1,1*%
%TO.N,+5V*%
X104648000Y-41656000D03*
D14*
%TO.P,M1,2*%
%TO.N,GND*%
X104648000Y-44196000D03*
%TD*%
D15*
%TO.N,jack3*%
X82804000Y-58362000D02*
X97822000Y-73380000D01*
X82804000Y-37338000D02*
X82804000Y-58362000D01*
X97822000Y-78880000D02*
X97822000Y-80404000D01*
X97822000Y-74904000D02*
X97822000Y-73692000D01*
X97822000Y-73692000D02*
X97822000Y-78880000D01*
X97822000Y-73380000D02*
X97822000Y-73692000D01*
%TO.N,jack2*%
X72644000Y-70046000D02*
X75978000Y-73380000D01*
X72644000Y-37338000D02*
X72644000Y-70046000D01*
X75978000Y-78880000D02*
X75978000Y-73380000D01*
X75978000Y-78880000D02*
X75978000Y-80404000D01*
%TO.N,jack1*%
X74038999Y-60518999D02*
X86900000Y-73380000D01*
X74038999Y-35943001D02*
X74038999Y-60518999D01*
X75184000Y-34798000D02*
X74038999Y-35943001D01*
X86900000Y-73380000D02*
X86900000Y-78880000D01*
X86900000Y-78880000D02*
X86900000Y-80404000D01*
%TO.N,jack4*%
X67564000Y-70872000D02*
X65056000Y-73380000D01*
X67564000Y-37338000D02*
X67564000Y-70872000D01*
X65056000Y-73380000D02*
X65056000Y-78880000D01*
X65056000Y-78880000D02*
X65056000Y-80404000D01*
%TO.N,+5V*%
X105664000Y-34798000D02*
X108204000Y-34798000D01*
X104518999Y-41526999D02*
X104648000Y-41656000D01*
X104518999Y-35943001D02*
X104518999Y-41526999D01*
X105664000Y-34798000D02*
X104518999Y-35943001D01*
%TD*%
M02*
