<?xml version="1.0" encoding="UTF-8" standalone="no"?>
<svg
   xmlns:dc="http://purl.org/dc/elements/1.1/"
   xmlns:cc="http://creativecommons.org/ns#"
   xmlns:rdf="http://www.w3.org/1999/02/22-rdf-syntax-ns#"
   xmlns:svg="http://www.w3.org/2000/svg"
   xmlns="http://www.w3.org/2000/svg"
   xmlns:sodipodi="http://sodipodi.sourceforge.net/DTD/sodipodi-0.dtd"
   xmlns:inkscape="http://www.inkscape.org/namespaces/inkscape"
   version="1.1"
   id="Layer_1"
   x="0px"
   y="0px"
   viewBox="0 0 167.3 143.8"
   style="enable-background:new 0 0 167.3 143.8;"
   xml:space="preserve"
   sodipodi:docname="fedwatcher_logo.svg"
   inkscape:version="1.0.1 (1.0.1+r75)"><metadata
   id="metadata45"><rdf:RDF><cc:Work
       rdf:about=""><dc:format>image/svg+xml</dc:format><dc:type
         rdf:resource="http://purl.org/dc/dcmitype/StillImage" /></cc:Work></rdf:RDF></metadata><defs
   id="defs43" /><sodipodi:namedview
   pagecolor="#ffffff"
   bordercolor="#666666"
   borderopacity="1"
   objecttolerance="10"
   gridtolerance="10"
   guidetolerance="10"
   inkscape:pageopacity="0"
   inkscape:pageshadow="2"
   inkscape:window-width="1920"
   inkscape:window-height="1009"
   id="namedview41"
   showgrid="false"
   inkscape:zoom="4.5260325"
   inkscape:cx="73.645023"
   inkscape:cy="72.175176"
   inkscape:window-x="0"
   inkscape:window-y="34"
   inkscape:window-maximized="1"
   inkscape:current-layer="Layer_1" />
<style
   type="text/css"
   id="style2">
	.st0{fill:none;stroke:#000000;stroke-width:2.25;stroke-miterlimit:10;}
	.st1{fill:#656668;stroke:#000000;stroke-width:2.25;stroke-miterlimit:10;}
	.st2{fill:#FFFFFF;stroke:#000000;stroke-width:2.25;stroke-miterlimit:10;}
	.st3{stroke:#000000;stroke-width:2.25;stroke-miterlimit:10;}
	.st4{fill:#010101;stroke:#000000;stroke-width:0.56;stroke-miterlimit:10;}
</style>
<rect
   style="fill:#ffffff;stroke-width:4.0207;stroke-linecap:round;stroke-linejoin:round"
   id="rect47"
   width="167.423"
   height="144.24277"
   x="0.074103169"
   y="0.1392161"
   ry="12.854736" /><path
   class="st0"
   d="M122-30.6"
   id="path4" />
<path
   class="st1"
   d="M41.5,37.8L33.9,1.1h101.2l-7.6,36.7h19.7c10.3-0.1,18.9,8.1,19,18.5v45.7c-0.1,10.3-8.7,18.6-19,18.5h-127  c-10.3,0.1-18.9-8.1-19-18.5V56.3c0.1-10.3,8.7-18.6,19-18.5H41.5L33.8,1.1l0,0"
   id="path6" />
<path
   class="st0"
   d="M49.6,64.1"
   id="path8" />
<circle
   class="st2"
   cx="45.5"
   cy="79.2"
   r="16.9"
   id="circle10" />
<path
   class="st0"
   d="M123.4,64.1"
   id="path12" />
<circle
   class="st2"
   cx="119.3"
   cy="79.2"
   r="16.9"
   id="circle14" />
<circle
   class="st3"
   cx="49.3"
   cy="86.6"
   r="7.3"
   id="circle16" />
<circle
   class="st3"
   cx="123.2"
   cy="86.6"
   r="7.4"
   id="circle18" />
<path
   class="st4"
   d="M12.7,128.5h2.2v14.9h-2.2V128.5z M13.7,128.5h8.5v2.1h-8.5V128.5z M13.7,135.1H21v2.1h-7.4V135.1z"
   id="path20" />
<path
   class="st4"
   d="M26,128.5h2.2v14.9H26V128.5z M27,128.5h8.7v2.1H27L27,128.5z M27,134.9h7.6v2.1H27L27,134.9z M27,141.3h8.7  v2.1H27L27,141.3z"
   id="path22" />
<path
   class="st4"
   d="M39.9,128.5h2.2v14.9h-2.2V128.5z M41.4,141.3h3.4c0.9,0.1,1.8-0.2,2.5-0.8c0.6-0.6,1-1.5,0.9-2.3v-4.4  c0.1-0.9-0.3-1.7-0.9-2.4c-0.7-0.6-1.6-0.9-2.5-0.8h-3.4v-2.1h3.4c1.1,0,2.1,0.2,3.1,0.6c0.8,0.4,1.5,1,2,1.8  c0.5,0.9,0.7,1.9,0.7,2.9v4.2c0,1-0.2,2-0.7,2.9c-0.5,0.8-1.2,1.4-2,1.8c-1,0.4-2,0.7-3.1,0.6h-3.4L41.4,141.3z"
   id="path24" />
<path
   class="st4"
   d="M61.5,128.5H63l3.1,11.5l2.6-11.5h2.3l-3.6,14.9h-2.2l-2.8-10.4l-2.9,10.4h-2.2l-3.6-14.9h2.3l2.6,11.5  L61.5,128.5z"
   id="path26" />
<path
   class="st4"
   d="M77.5,128.5h1.8l5.6,14.9h-2.4l-4.1-11.8l-4.1,11.8h-2.4L77.5,128.5z M74.5,138.1h7.9v2.1h-7.9V138.1z"
   id="path28" />
<path
   class="st4"
   d="M85.9,128.5h10.7v2.1H85.9V128.5z M90.1,129.7h2.2v13.7h-2.2V129.7z"
   id="path30" />
<path
   class="st4"
   d="M101.6,142.8c-0.8-0.5-1.4-1.1-1.8-1.9c-0.5-0.9-0.7-1.9-0.6-2.9v-4.1c0-1,0.2-2,0.6-2.9c0.4-0.8,1-1.5,1.8-1.9  c0.8-0.5,1.8-0.7,2.8-0.7c0.8,0,1.7,0.2,2.4,0.6c0.7,0.4,1.4,0.9,1.8,1.6c0.5,0.7,0.8,1.5,1,2.4h-2.3c-0.1-0.5-0.3-0.9-0.6-1.3  c-0.3-0.4-0.6-0.6-1-0.8c-0.4-0.2-0.8-0.3-1.3-0.3c-0.6,0-1.1,0.1-1.6,0.4c-0.5,0.3-0.8,0.7-1,1.2c-0.3,0.6-0.4,1.2-0.4,1.8v4.1  c0,0.6,0.1,1.2,0.4,1.8c0.2,0.5,0.6,0.9,1,1.2c0.5,0.3,1,0.4,1.6,0.4c0.4,0,0.9-0.1,1.3-0.3c0.4-0.2,0.8-0.5,1-0.8  c0.3-0.4,0.5-0.8,0.6-1.3h2.3c-0.2,0.9-0.5,1.7-1,2.4c-0.5,0.7-1.1,1.2-1.8,1.6c-0.7,0.4-1.6,0.6-2.4,0.5  C103.4,143.5,102.5,143.3,101.6,142.8z"
   id="path32" />
<path
   class="st4"
   d="M113.6,128.5h2.2v14.9h-2.2V128.5z M114.9,135h8.4v2.1h-8.4V135z M122.1,128.5h2.2v14.9h-2.2V128.5z"
   id="path34" />
<path
   class="st4"
   d="M129.2,128.5h2.2v14.9h-2.2V128.5z M130.2,128.5h8.7v2.1h-8.7V128.5z M130.2,134.9h7.6v2.1h-7.6V134.9z   M130.2,141.3h8.7v2.1h-8.7V141.3z"
   id="path36" />
<path
   class="st4"
   d="M143.2,128.4h2.2v14.9h-2.2V128.4z M144.2,135h5.1c0.4,0,0.7-0.1,1-0.3c0.3-0.2,0.5-0.5,0.7-0.8  c0.2-0.4,0.3-0.8,0.2-1.2c0-0.4-0.1-0.8-0.2-1.2c-0.1-0.3-0.4-0.6-0.7-0.8c-0.3-0.2-0.6-0.3-1-0.3h-5.1v-2.1h5.1  c0.8,0,1.6,0.2,2.3,0.5c0.6,0.3,1.2,0.9,1.5,1.5c0.4,0.7,0.6,1.5,0.5,2.3c0,0.8-0.2,1.6-0.5,2.3c-0.4,0.6-0.9,1.2-1.5,1.5  c-0.7,0.4-1.5,0.6-2.3,0.5h-5.1L144.2,135z M148.2,136.6l2.2-0.5l3.9,7.2h-2.6L148.2,136.6z"
   id="path38" />
</svg>
